#usda 1.0
(
    doc = "Static sphere prototype for blastest-instanced-static.usda (BLAS compaction gate)."
    defaultPrim = "root"
    metersPerUnit = 1
    upAxis = "Z"
)

def Xform "root"
{
    def Mesh "SphereProto"
    {
        uniform bool doubleSided = 1
        int[] faceVertexCounts = [4, 4, 4, 4, 4, 4, 4, 4, 4, 4, 4, 4, 4, 4, 4, 4, 4, 4, 4, 4, 4, 4, 4, 4, 4, 4, 4, 4, 4, 4, 4, 4, 4, 4, 4, 4, 4, 4, 4, 4, 4, 4, 4, 4, 4, 4, 4, 4, 4, 4, 4, 4, 4, 4, 4, 4, 4, 4, 4, 4, 4, 4, 4, 4, 4, 4, 4, 4, 4, 4, 4, 4, 4, 4, 4, 4, 4, 4, 4, 4, 4, 4, 4, 4, 4, 4, 4, 4, 4, 4, 4, 4, 4, 4, 4, 4, 4, 4, 4, 4, 4, 4, 4, 4, 4, 4, 4, 4, 4, 4, 4, 4, 4, 4, 4, 4, 4, 4, 4, 4, 4, 4, 4, 4, 4, 4, 4, 4, 4, 4, 4, 4, 4, 4, 4, 4, 4, 4, 4, 4, 4, 4, 4, 4, 4, 4, 4, 4, 4, 4, 4, 4, 4, 4, 4, 4, 4, 4, 4, 4, 4, 4, 4, 4, 4, 4, 4, 4, 4, 4, 4, 4, 4, 4, 4, 4, 4, 4, 4, 4, 4, 4, 4, 4, 4, 4, 4, 4, 4, 4, 4, 4, 4, 4, 4, 4, 4, 4, 4, 4, 4, 4, 4, 4, 4, 4, 4, 4, 4, 4, 4, 4, 4, 4, 4, 4, 4, 4, 4, 4, 4, 4, 4, 4, 4, 4, 4, 4, 4, 4, 4, 4, 4, 4, 4, 4, 4, 4, 4, 4, 4, 4, 4, 4, 4, 4, 4, 4, 4, 4, 4, 4, 4, 4, 4, 4, 4, 4, 4, 4, 4, 4, 4, 4, 4, 4, 4, 4, 4, 4, 4, 4, 4, 4, 4, 4, 4, 4, 4, 4, 4, 4, 4, 4, 4, 4, 4, 4, 4, 4, 4, 4, 4, 4, 4, 4, 4, 4, 4, 4, 4, 4, 4, 4, 4, 4, 4, 4, 4, 4, 4, 4, 4, 4, 4, 4, 4, 4, 4, 4, 4, 4, 4, 4, 4, 4, 4, 4, 4, 4, 4, 4, 4, 4, 4, 4, 4, 4, 4, 4, 4, 4, 4, 4, 4, 4, 4, 4, 4, 4, 4, 4, 4, 4, 4, 4, 4, 4, 4, 4, 4, 4, 4, 4, 4, 4, 4, 4, 4, 4, 4, 4, 4, 4, 4, 4, 4, 4, 4, 4, 4, 4, 4, 4, 4, 4, 4, 4, 4, 4, 4, 4, 4, 4, 4, 4, 4, 4, 4, 4, 4, 4, 4, 4, 4, 4, 4, 4, 4, 4, 4, 4, 4, 4, 4, 4, 4, 4, 4, 4, 4, 4, 4, 4, 4, 4, 4, 4, 4, 4, 4, 4, 4, 4, 4, 4, 4, 4, 4, 4, 4, 4, 4, 4, 4, 4, 4, 4, 4, 4, 4, 4, 4, 4, 4, 4, 4, 4, 4, 4, 4, 4, 4, 4, 4, 4, 4, 4, 4, 4, 4, 4, 4, 4, 4, 4, 4, 4, 4, 4, 4, 4, 4, 4, 4, 4, 4, 4, 4, 4, 4, 4, 4, 4, 4, 4, 4, 4, 4, 4, 4, 4, 4, 4, 4, 4, 4, 4, 4, 4, 4, 4, 4, 4, 4, 4, 4, 4, 4, 4, 4, 4, 4, 4, 4, 4, 4, 4, 4, 4, 4, 4, 4, 4, 4, 4, 4, 4, 4, 4, 4, 4, 4, 4, 4, 4, 4, 4, 4, 4, 4, 4, 4, 4, 4, 4, 4, 4, 4, 4, 4, 4, 4, 4, 4, 4, 4, 4, 4, 4, 4, 4, 4, 4, 4, 4, 4, 4, 4, 4, 4, 4, 4, 4, 4, 4, 4, 4, 4, 4, 4, 4, 4, 4, 4, 4, 4, 4, 4, 4, 4, 4, 4, 4, 4, 4, 4, 4, 4, 4, 4, 4, 4, 4, 4, 4, 4, 4, 4, 4, 4, 4, 4, 4, 4, 4, 4, 4, 4, 4, 4, 4, 4, 4, 4, 4, 4, 4, 4, 4, 4, 4, 4, 4, 4, 4, 4, 4, 4, 4, 4, 4, 4, 4, 4, 4, 4, 4, 4, 4, 4, 4, 4, 4, 4, 4, 4, 4, 4, 4, 4, 4, 4, 4, 4, 4, 4, 4, 4, 4, 4, 4, 4, 4, 4, 4, 4, 4, 4, 4, 4, 4, 4, 4, 4, 4, 4, 4, 4, 4, 4, 4, 4, 4, 4, 4, 4, 4, 4, 4, 4, 4, 4, 4, 4, 4, 4, 4, 4, 4, 4, 4, 4, 4, 4, 4, 4, 4, 4, 4, 4, 4, 4, 4, 4, 4, 4, 4, 4, 4, 4, 4, 4, 4, 4, 4, 4, 4, 4, 4, 4, 4, 4, 4, 4, 4, 4, 4, 4, 4, 4, 4, 4, 4, 4, 4, 4, 4, 4, 4, 4, 4, 4, 4, 4, 4, 4, 4, 4, 4, 4, 4, 4, 4, 4, 4, 4, 4, 4, 4, 4, 4, 4, 4, 4, 4, 4, 4, 4, 4, 4, 4, 4, 4, 4, 4, 4, 4, 4, 4, 4, 4, 4, 4, 4, 4, 4, 4, 4, 4, 4, 4, 4, 4, 4, 4, 4, 4, 4, 4, 4, 4, 4, 4, 4, 4, 4, 4, 4, 4, 4, 4, 4, 4, 4, 4, 4, 4, 4, 4, 4, 4, 4, 4, 4, 4, 4, 4, 4, 4, 4, 4, 4, 4, 4, 4, 4, 4, 4, 4, 4, 4, 4, 4, 4, 4, 4, 4, 4, 4, 4, 4, 4, 4, 4, 4, 4, 4, 4, 4, 4, 4, 4, 4, 4, 4, 4, 4, 4, 4, 4, 4, 4, 4, 4, 4, 4, 4, 4, 4, 4, 4, 4, 4, 4, 4, 4, 4, 4, 4, 4, 4, 4, 4, 4, 4, 4, 4, 4, 4, 4, 4, 4, 4, 4, 4, 4, 4, 4, 4, 4, 4, 4, 4, 4, 4, 4, 4, 4, 4, 4, 4, 4, 4, 4, 4, 4, 4, 4, 4, 4, 4, 4, 4, 4, 4, 4, 4, 4, 4, 4, 4, 4, 4, 4, 4, 4, 4, 4, 4, 4, 4, 4, 4, 4, 4, 4, 4, 4, 4, 4, 4, 4, 4, 4, 4, 4, 4, 4, 4, 4, 4, 4, 4, 4, 4, 4, 4, 4, 4, 4, 4, 4, 4, 4, 4, 4, 4, 4, 4, 4, 4, 4, 4, 4, 4, 4, 4, 4, 4, 4, 4, 4, 4, 4, 4, 4, 4, 4, 4, 4, 4, 4, 4, 4, 4, 4, 4, 4, 4, 4, 4, 4, 4, 4, 4, 4, 4, 4, 4, 4, 4, 4, 4, 4, 4, 4, 4, 4, 4, 4, 4, 4, 4, 4, 4, 4, 4, 4, 4, 4, 4, 4, 4, 4, 4, 4, 4, 4, 4, 4, 4, 4, 4, 4, 4, 4, 4, 4, 4, 4, 4, 4, 4, 4, 4, 4, 4, 4, 4, 4, 4, 4, 4, 4, 4, 4, 4, 4, 4, 4, 4, 4, 4, 4, 4, 4, 4, 4, 4, 4, 4, 4, 4, 4, 4, 4, 4, 4, 4, 4, 4, 4, 4, 4, 4, 4, 4, 4, 4, 4, 4]
        int[] faceVertexIndices = [0, 1, 49, 48, 1, 2, 50, 49, 2, 3, 51, 50, 3, 4, 52, 51, 4, 5, 53, 52, 5, 6, 54, 53, 6, 7, 55, 54, 7, 8, 56, 55, 8, 9, 57, 56, 9, 10, 58, 57, 10, 11, 59, 58, 11, 12, 60, 59, 12, 13, 61, 60, 13, 14, 62, 61, 14, 15, 63, 62, 15, 16, 64, 63, 16, 17, 65, 64, 17, 18, 66, 65, 18, 19, 67, 66, 19, 20, 68, 67, 20, 21, 69, 68, 21, 22, 70, 69, 22, 23, 71, 70, 23, 24, 72, 71, 24, 25, 73, 72, 25, 26, 74, 73, 26, 27, 75, 74, 27, 28, 76, 75, 28, 29, 77, 76, 29, 30, 78, 77, 30, 31, 79, 78, 31, 32, 80, 79, 32, 33, 81, 80, 33, 34, 82, 81, 34, 35, 83, 82, 35, 36, 84, 83, 36, 37, 85, 84, 37, 38, 86, 85, 38, 39, 87, 86, 39, 40, 88, 87, 40, 41, 89, 88, 41, 42, 90, 89, 42, 43, 91, 90, 43, 44, 92, 91, 44, 45, 93, 92, 45, 46, 94, 93, 46, 47, 95, 94, 47, 0, 48, 95, 48, 49, 97, 96, 49, 50, 98, 97, 50, 51, 99, 98, 51, 52, 100, 99, 52, 53, 101, 100, 53, 54, 102, 101, 54, 55, 103, 102, 55, 56, 104, 103, 56, 57, 105, 104, 57, 58, 106, 105, 58, 59, 107, 106, 59, 60, 108, 107, 60, 61, 109, 108, 61, 62, 110, 109, 62, 63, 111, 110, 63, 64, 112, 111, 64, 65, 113, 112, 65, 66, 114, 113, 66, 67, 115, 114, 67, 68, 116, 115, 68, 69, 117, 116, 69, 70, 118, 117, 70, 71, 119, 118, 71, 72, 120, 119, 72, 73, 121, 120, 73, 74, 122, 121, 74, 75, 123, 122, 75, 76, 124, 123, 76, 77, 125, 124, 77, 78, 126, 125, 78, 79, 127, 126, 79, 80, 128, 127, 80, 81, 129, 128, 81, 82, 130, 129, 82, 83, 131, 130, 83, 84, 132, 131, 84, 85, 133, 132, 85, 86, 134, 133, 86, 87, 135, 134, 87, 88, 136, 135, 88, 89, 137, 136, 89, 90, 138, 137, 90, 91, 139, 138, 91, 92, 140, 139, 92, 93, 141, 140, 93, 94, 142, 141, 94, 95, 143, 142, 95, 48, 96, 143, 96, 97, 145, 144, 97, 98, 146, 145, 98, 99, 147, 146, 99, 100, 148, 147, 100, 101, 149, 148, 101, 102, 150, 149, 102, 103, 151, 150, 103, 104, 152, 151, 104, 105, 153, 152, 105, 106, 154, 153, 106, 107, 155, 154, 107, 108, 156, 155, 108, 109, 157, 156, 109, 110, 158, 157, 110, 111, 159, 158, 111, 112, 160, 159, 112, 113, 161, 160, 113, 114, 162, 161, 114, 115, 163, 162, 115, 116, 164, 163, 116, 117, 165, 164, 117, 118, 166, 165, 118, 119, 167, 166, 119, 120, 168, 167, 120, 121, 169, 168, 121, 122, 170, 169, 122, 123, 171, 170, 123, 124, 172, 171, 124, 125, 173, 172, 125, 126, 174, 173, 126, 127, 175, 174, 127, 128, 176, 175, 128, 129, 177, 176, 129, 130, 178, 177, 130, 131, 179, 178, 131, 132, 180, 179, 132, 133, 181, 180, 133, 134, 182, 181, 134, 135, 183, 182, 135, 136, 184, 183, 136, 137, 185, 184, 137, 138, 186, 185, 138, 139, 187, 186, 139, 140, 188, 187, 140, 141, 189, 188, 141, 142, 190, 189, 142, 143, 191, 190, 143, 96, 144, 191, 144, 145, 193, 192, 145, 146, 194, 193, 146, 147, 195, 194, 147, 148, 196, 195, 148, 149, 197, 196, 149, 150, 198, 197, 150, 151, 199, 198, 151, 152, 200, 199, 152, 153, 201, 200, 153, 154, 202, 201, 154, 155, 203, 202, 155, 156, 204, 203, 156, 157, 205, 204, 157, 158, 206, 205, 158, 159, 207, 206, 159, 160, 208, 207, 160, 161, 209, 208, 161, 162, 210, 209, 162, 163, 211, 210, 163, 164, 212, 211, 164, 165, 213, 212, 165, 166, 214, 213, 166, 167, 215, 214, 167, 168, 216, 215, 168, 169, 217, 216, 169, 170, 218, 217, 170, 171, 219, 218, 171, 172, 220, 219, 172, 173, 221, 220, 173, 174, 222, 221, 174, 175, 223, 222, 175, 176, 224, 223, 176, 177, 225, 224, 177, 178, 226, 225, 178, 179, 227, 226, 179, 180, 228, 227, 180, 181, 229, 228, 181, 182, 230, 229, 182, 183, 231, 230, 183, 184, 232, 231, 184, 185, 233, 232, 185, 186, 234, 233, 186, 187, 235, 234, 187, 188, 236, 235, 188, 189, 237, 236, 189, 190, 238, 237, 190, 191, 239, 238, 191, 144, 192, 239, 192, 193, 241, 240, 193, 194, 242, 241, 194, 195, 243, 242, 195, 196, 244, 243, 196, 197, 245, 244, 197, 198, 246, 245, 198, 199, 247, 246, 199, 200, 248, 247, 200, 201, 249, 248, 201, 202, 250, 249, 202, 203, 251, 250, 203, 204, 252, 251, 204, 205, 253, 252, 205, 206, 254, 253, 206, 207, 255, 254, 207, 208, 256, 255, 208, 209, 257, 256, 209, 210, 258, 257, 210, 211, 259, 258, 211, 212, 260, 259, 212, 213, 261, 260, 213, 214, 262, 261, 214, 215, 263, 262, 215, 216, 264, 263, 216, 217, 265, 264, 217, 218, 266, 265, 218, 219, 267, 266, 219, 220, 268, 267, 220, 221, 269, 268, 221, 222, 270, 269, 222, 223, 271, 270, 223, 224, 272, 271, 224, 225, 273, 272, 225, 226, 274, 273, 226, 227, 275, 274, 227, 228, 276, 275, 228, 229, 277, 276, 229, 230, 278, 277, 230, 231, 279, 278, 231, 232, 280, 279, 232, 233, 281, 280, 233, 234, 282, 281, 234, 235, 283, 282, 235, 236, 284, 283, 236, 237, 285, 284, 237, 238, 286, 285, 238, 239, 287, 286, 239, 192, 240, 287, 240, 241, 289, 288, 241, 242, 290, 289, 242, 243, 291, 290, 243, 244, 292, 291, 244, 245, 293, 292, 245, 246, 294, 293, 246, 247, 295, 294, 247, 248, 296, 295, 248, 249, 297, 296, 249, 250, 298, 297, 250, 251, 299, 298, 251, 252, 300, 299, 252, 253, 301, 300, 253, 254, 302, 301, 254, 255, 303, 302, 255, 256, 304, 303, 256, 257, 305, 304, 257, 258, 306, 305, 258, 259, 307, 306, 259, 260, 308, 307, 260, 261, 309, 308, 261, 262, 310, 309, 262, 263, 311, 310, 263, 264, 312, 311, 264, 265, 313, 312, 265, 266, 314, 313, 266, 267, 315, 314, 267, 268, 316, 315, 268, 269, 317, 316, 269, 270, 318, 317, 270, 271, 319, 318, 271, 272, 320, 319, 272, 273, 321, 320, 273, 274, 322, 321, 274, 275, 323, 322, 275, 276, 324, 323, 276, 277, 325, 324, 277, 278, 326, 325, 278, 279, 327, 326, 279, 280, 328, 327, 280, 281, 329, 328, 281, 282, 330, 329, 282, 283, 331, 330, 283, 284, 332, 331, 284, 285, 333, 332, 285, 286, 334, 333, 286, 287, 335, 334, 287, 240, 288, 335, 288, 289, 337, 336, 289, 290, 338, 337, 290, 291, 339, 338, 291, 292, 340, 339, 292, 293, 341, 340, 293, 294, 342, 341, 294, 295, 343, 342, 295, 296, 344, 343, 296, 297, 345, 344, 297, 298, 346, 345, 298, 299, 347, 346, 299, 300, 348, 347, 300, 301, 349, 348, 301, 302, 350, 349, 302, 303, 351, 350, 303, 304, 352, 351, 304, 305, 353, 352, 305, 306, 354, 353, 306, 307, 355, 354, 307, 308, 356, 355, 308, 309, 357, 356, 309, 310, 358, 357, 310, 311, 359, 358, 311, 312, 360, 359, 312, 313, 361, 360, 313, 314, 362, 361, 314, 315, 363, 362, 315, 316, 364, 363, 316, 317, 365, 364, 317, 318, 366, 365, 318, 319, 367, 366, 319, 320, 368, 367, 320, 321, 369, 368, 321, 322, 370, 369, 322, 323, 371, 370, 323, 324, 372, 371, 324, 325, 373, 372, 325, 326, 374, 373, 326, 327, 375, 374, 327, 328, 376, 375, 328, 329, 377, 376, 329, 330, 378, 377, 330, 331, 379, 378, 331, 332, 380, 379, 332, 333, 381, 380, 333, 334, 382, 381, 334, 335, 383, 382, 335, 288, 336, 383, 336, 337, 385, 384, 337, 338, 386, 385, 338, 339, 387, 386, 339, 340, 388, 387, 340, 341, 389, 388, 341, 342, 390, 389, 342, 343, 391, 390, 343, 344, 392, 391, 344, 345, 393, 392, 345, 346, 394, 393, 346, 347, 395, 394, 347, 348, 396, 395, 348, 349, 397, 396, 349, 350, 398, 397, 350, 351, 399, 398, 351, 352, 400, 399, 352, 353, 401, 400, 353, 354, 402, 401, 354, 355, 403, 402, 355, 356, 404, 403, 356, 357, 405, 404, 357, 358, 406, 405, 358, 359, 407, 406, 359, 360, 408, 407, 360, 361, 409, 408, 361, 362, 410, 409, 362, 363, 411, 410, 363, 364, 412, 411, 364, 365, 413, 412, 365, 366, 414, 413, 366, 367, 415, 414, 367, 368, 416, 415, 368, 369, 417, 416, 369, 370, 418, 417, 370, 371, 419, 418, 371, 372, 420, 419, 372, 373, 421, 420, 373, 374, 422, 421, 374, 375, 423, 422, 375, 376, 424, 423, 376, 377, 425, 424, 377, 378, 426, 425, 378, 379, 427, 426, 379, 380, 428, 427, 380, 381, 429, 428, 381, 382, 430, 429, 382, 383, 431, 430, 383, 336, 384, 431, 384, 385, 433, 432, 385, 386, 434, 433, 386, 387, 435, 434, 387, 388, 436, 435, 388, 389, 437, 436, 389, 390, 438, 437, 390, 391, 439, 438, 391, 392, 440, 439, 392, 393, 441, 440, 393, 394, 442, 441, 394, 395, 443, 442, 395, 396, 444, 443, 396, 397, 445, 444, 397, 398, 446, 445, 398, 399, 447, 446, 399, 400, 448, 447, 400, 401, 449, 448, 401, 402, 450, 449, 402, 403, 451, 450, 403, 404, 452, 451, 404, 405, 453, 452, 405, 406, 454, 453, 406, 407, 455, 454, 407, 408, 456, 455, 408, 409, 457, 456, 409, 410, 458, 457, 410, 411, 459, 458, 411, 412, 460, 459, 412, 413, 461, 460, 413, 414, 462, 461, 414, 415, 463, 462, 415, 416, 464, 463, 416, 417, 465, 464, 417, 418, 466, 465, 418, 419, 467, 466, 419, 420, 468, 467, 420, 421, 469, 468, 421, 422, 470, 469, 422, 423, 471, 470, 423, 424, 472, 471, 424, 425, 473, 472, 425, 426, 474, 473, 426, 427, 475, 474, 427, 428, 476, 475, 428, 429, 477, 476, 429, 430, 478, 477, 430, 431, 479, 478, 431, 384, 432, 479, 432, 433, 481, 480, 433, 434, 482, 481, 434, 435, 483, 482, 435, 436, 484, 483, 436, 437, 485, 484, 437, 438, 486, 485, 438, 439, 487, 486, 439, 440, 488, 487, 440, 441, 489, 488, 441, 442, 490, 489, 442, 443, 491, 490, 443, 444, 492, 491, 444, 445, 493, 492, 445, 446, 494, 493, 446, 447, 495, 494, 447, 448, 496, 495, 448, 449, 497, 496, 449, 450, 498, 497, 450, 451, 499, 498, 451, 452, 500, 499, 452, 453, 501, 500, 453, 454, 502, 501, 454, 455, 503, 502, 455, 456, 504, 503, 456, 457, 505, 504, 457, 458, 506, 505, 458, 459, 507, 506, 459, 460, 508, 507, 460, 461, 509, 508, 461, 462, 510, 509, 462, 463, 511, 510, 463, 464, 512, 511, 464, 465, 513, 512, 465, 466, 514, 513, 466, 467, 515, 514, 467, 468, 516, 515, 468, 469, 517, 516, 469, 470, 518, 517, 470, 471, 519, 518, 471, 472, 520, 519, 472, 473, 521, 520, 473, 474, 522, 521, 474, 475, 523, 522, 475, 476, 524, 523, 476, 477, 525, 524, 477, 478, 526, 525, 478, 479, 527, 526, 479, 432, 480, 527, 480, 481, 529, 528, 481, 482, 530, 529, 482, 483, 531, 530, 483, 484, 532, 531, 484, 485, 533, 532, 485, 486, 534, 533, 486, 487, 535, 534, 487, 488, 536, 535, 488, 489, 537, 536, 489, 490, 538, 537, 490, 491, 539, 538, 491, 492, 540, 539, 492, 493, 541, 540, 493, 494, 542, 541, 494, 495, 543, 542, 495, 496, 544, 543, 496, 497, 545, 544, 497, 498, 546, 545, 498, 499, 547, 546, 499, 500, 548, 547, 500, 501, 549, 548, 501, 502, 550, 549, 502, 503, 551, 550, 503, 504, 552, 551, 504, 505, 553, 552, 505, 506, 554, 553, 506, 507, 555, 554, 507, 508, 556, 555, 508, 509, 557, 556, 509, 510, 558, 557, 510, 511, 559, 558, 511, 512, 560, 559, 512, 513, 561, 560, 513, 514, 562, 561, 514, 515, 563, 562, 515, 516, 564, 563, 516, 517, 565, 564, 517, 518, 566, 565, 518, 519, 567, 566, 519, 520, 568, 567, 520, 521, 569, 568, 521, 522, 570, 569, 522, 523, 571, 570, 523, 524, 572, 571, 524, 525, 573, 572, 525, 526, 574, 573, 526, 527, 575, 574, 527, 480, 528, 575, 528, 529, 577, 576, 529, 530, 578, 577, 530, 531, 579, 578, 531, 532, 580, 579, 532, 533, 581, 580, 533, 534, 582, 581, 534, 535, 583, 582, 535, 536, 584, 583, 536, 537, 585, 584, 537, 538, 586, 585, 538, 539, 587, 586, 539, 540, 588, 587, 540, 541, 589, 588, 541, 542, 590, 589, 542, 543, 591, 590, 543, 544, 592, 591, 544, 545, 593, 592, 545, 546, 594, 593, 546, 547, 595, 594, 547, 548, 596, 595, 548, 549, 597, 596, 549, 550, 598, 597, 550, 551, 599, 598, 551, 552, 600, 599, 552, 553, 601, 600, 553, 554, 602, 601, 554, 555, 603, 602, 555, 556, 604, 603, 556, 557, 605, 604, 557, 558, 606, 605, 558, 559, 607, 606, 559, 560, 608, 607, 560, 561, 609, 608, 561, 562, 610, 609, 562, 563, 611, 610, 563, 564, 612, 611, 564, 565, 613, 612, 565, 566, 614, 613, 566, 567, 615, 614, 567, 568, 616, 615, 568, 569, 617, 616, 569, 570, 618, 617, 570, 571, 619, 618, 571, 572, 620, 619, 572, 573, 621, 620, 573, 574, 622, 621, 574, 575, 623, 622, 575, 528, 576, 623, 576, 577, 625, 624, 577, 578, 626, 625, 578, 579, 627, 626, 579, 580, 628, 627, 580, 581, 629, 628, 581, 582, 630, 629, 582, 583, 631, 630, 583, 584, 632, 631, 584, 585, 633, 632, 585, 586, 634, 633, 586, 587, 635, 634, 587, 588, 636, 635, 588, 589, 637, 636, 589, 590, 638, 637, 590, 591, 639, 638, 591, 592, 640, 639, 592, 593, 641, 640, 593, 594, 642, 641, 594, 595, 643, 642, 595, 596, 644, 643, 596, 597, 645, 644, 597, 598, 646, 645, 598, 599, 647, 646, 599, 600, 648, 647, 600, 601, 649, 648, 601, 602, 650, 649, 602, 603, 651, 650, 603, 604, 652, 651, 604, 605, 653, 652, 605, 606, 654, 653, 606, 607, 655, 654, 607, 608, 656, 655, 608, 609, 657, 656, 609, 610, 658, 657, 610, 611, 659, 658, 611, 612, 660, 659, 612, 613, 661, 660, 613, 614, 662, 661, 614, 615, 663, 662, 615, 616, 664, 663, 616, 617, 665, 664, 617, 618, 666, 665, 618, 619, 667, 666, 619, 620, 668, 667, 620, 621, 669, 668, 621, 622, 670, 669, 622, 623, 671, 670, 623, 576, 624, 671, 624, 625, 673, 672, 625, 626, 674, 673, 626, 627, 675, 674, 627, 628, 676, 675, 628, 629, 677, 676, 629, 630, 678, 677, 630, 631, 679, 678, 631, 632, 680, 679, 632, 633, 681, 680, 633, 634, 682, 681, 634, 635, 683, 682, 635, 636, 684, 683, 636, 637, 685, 684, 637, 638, 686, 685, 638, 639, 687, 686, 639, 640, 688, 687, 640, 641, 689, 688, 641, 642, 690, 689, 642, 643, 691, 690, 643, 644, 692, 691, 644, 645, 693, 692, 645, 646, 694, 693, 646, 647, 695, 694, 647, 648, 696, 695, 648, 649, 697, 696, 649, 650, 698, 697, 650, 651, 699, 698, 651, 652, 700, 699, 652, 653, 701, 700, 653, 654, 702, 701, 654, 655, 703, 702, 655, 656, 704, 703, 656, 657, 705, 704, 657, 658, 706, 705, 658, 659, 707, 706, 659, 660, 708, 707, 660, 661, 709, 708, 661, 662, 710, 709, 662, 663, 711, 710, 663, 664, 712, 711, 664, 665, 713, 712, 665, 666, 714, 713, 666, 667, 715, 714, 667, 668, 716, 715, 668, 669, 717, 716, 669, 670, 718, 717, 670, 671, 719, 718, 671, 624, 672, 719, 672, 673, 721, 720, 673, 674, 722, 721, 674, 675, 723, 722, 675, 676, 724, 723, 676, 677, 725, 724, 677, 678, 726, 725, 678, 679, 727, 726, 679, 680, 728, 727, 680, 681, 729, 728, 681, 682, 730, 729, 682, 683, 731, 730, 683, 684, 732, 731, 684, 685, 733, 732, 685, 686, 734, 733, 686, 687, 735, 734, 687, 688, 736, 735, 688, 689, 737, 736, 689, 690, 738, 737, 690, 691, 739, 738, 691, 692, 740, 739, 692, 693, 741, 740, 693, 694, 742, 741, 694, 695, 743, 742, 695, 696, 744, 743, 696, 697, 745, 744, 697, 698, 746, 745, 698, 699, 747, 746, 699, 700, 748, 747, 700, 701, 749, 748, 701, 702, 750, 749, 702, 703, 751, 750, 703, 704, 752, 751, 704, 705, 753, 752, 705, 706, 754, 753, 706, 707, 755, 754, 707, 708, 756, 755, 708, 709, 757, 756, 709, 710, 758, 757, 710, 711, 759, 758, 711, 712, 760, 759, 712, 713, 761, 760, 713, 714, 762, 761, 714, 715, 763, 762, 715, 716, 764, 763, 716, 717, 765, 764, 717, 718, 766, 765, 718, 719, 767, 766, 719, 672, 720, 767, 720, 721, 769, 768, 721, 722, 770, 769, 722, 723, 771, 770, 723, 724, 772, 771, 724, 725, 773, 772, 725, 726, 774, 773, 726, 727, 775, 774, 727, 728, 776, 775, 728, 729, 777, 776, 729, 730, 778, 777, 730, 731, 779, 778, 731, 732, 780, 779, 732, 733, 781, 780, 733, 734, 782, 781, 734, 735, 783, 782, 735, 736, 784, 783, 736, 737, 785, 784, 737, 738, 786, 785, 738, 739, 787, 786, 739, 740, 788, 787, 740, 741, 789, 788, 741, 742, 790, 789, 742, 743, 791, 790, 743, 744, 792, 791, 744, 745, 793, 792, 745, 746, 794, 793, 746, 747, 795, 794, 747, 748, 796, 795, 748, 749, 797, 796, 749, 750, 798, 797, 750, 751, 799, 798, 751, 752, 800, 799, 752, 753, 801, 800, 753, 754, 802, 801, 754, 755, 803, 802, 755, 756, 804, 803, 756, 757, 805, 804, 757, 758, 806, 805, 758, 759, 807, 806, 759, 760, 808, 807, 760, 761, 809, 808, 761, 762, 810, 809, 762, 763, 811, 810, 763, 764, 812, 811, 764, 765, 813, 812, 765, 766, 814, 813, 766, 767, 815, 814, 767, 720, 768, 815, 768, 769, 817, 816, 769, 770, 818, 817, 770, 771, 819, 818, 771, 772, 820, 819, 772, 773, 821, 820, 773, 774, 822, 821, 774, 775, 823, 822, 775, 776, 824, 823, 776, 777, 825, 824, 777, 778, 826, 825, 778, 779, 827, 826, 779, 780, 828, 827, 780, 781, 829, 828, 781, 782, 830, 829, 782, 783, 831, 830, 783, 784, 832, 831, 784, 785, 833, 832, 785, 786, 834, 833, 786, 787, 835, 834, 787, 788, 836, 835, 788, 789, 837, 836, 789, 790, 838, 837, 790, 791, 839, 838, 791, 792, 840, 839, 792, 793, 841, 840, 793, 794, 842, 841, 794, 795, 843, 842, 795, 796, 844, 843, 796, 797, 845, 844, 797, 798, 846, 845, 798, 799, 847, 846, 799, 800, 848, 847, 800, 801, 849, 848, 801, 802, 850, 849, 802, 803, 851, 850, 803, 804, 852, 851, 804, 805, 853, 852, 805, 806, 854, 853, 806, 807, 855, 854, 807, 808, 856, 855, 808, 809, 857, 856, 809, 810, 858, 857, 810, 811, 859, 858, 811, 812, 860, 859, 812, 813, 861, 860, 813, 814, 862, 861, 814, 815, 863, 862, 815, 768, 816, 863, 816, 817, 865, 864, 817, 818, 866, 865, 818, 819, 867, 866, 819, 820, 868, 867, 820, 821, 869, 868, 821, 822, 870, 869, 822, 823, 871, 870, 823, 824, 872, 871, 824, 825, 873, 872, 825, 826, 874, 873, 826, 827, 875, 874, 827, 828, 876, 875, 828, 829, 877, 876, 829, 830, 878, 877, 830, 831, 879, 878, 831, 832, 880, 879, 832, 833, 881, 880, 833, 834, 882, 881, 834, 835, 883, 882, 835, 836, 884, 883, 836, 837, 885, 884, 837, 838, 886, 885, 838, 839, 887, 886, 839, 840, 888, 887, 840, 841, 889, 888, 841, 842, 890, 889, 842, 843, 891, 890, 843, 844, 892, 891, 844, 845, 893, 892, 845, 846, 894, 893, 846, 847, 895, 894, 847, 848, 896, 895, 848, 849, 897, 896, 849, 850, 898, 897, 850, 851, 899, 898, 851, 852, 900, 899, 852, 853, 901, 900, 853, 854, 902, 901, 854, 855, 903, 902, 855, 856, 904, 903, 856, 857, 905, 904, 857, 858, 906, 905, 858, 859, 907, 906, 859, 860, 908, 907, 860, 861, 909, 908, 861, 862, 910, 909, 862, 863, 911, 910, 863, 816, 864, 911, 864, 865, 913, 912, 865, 866, 914, 913, 866, 867, 915, 914, 867, 868, 916, 915, 868, 869, 917, 916, 869, 870, 918, 917, 870, 871, 919, 918, 871, 872, 920, 919, 872, 873, 921, 920, 873, 874, 922, 921, 874, 875, 923, 922, 875, 876, 924, 923, 876, 877, 925, 924, 877, 878, 926, 925, 878, 879, 927, 926, 879, 880, 928, 927, 880, 881, 929, 928, 881, 882, 930, 929, 882, 883, 931, 930, 883, 884, 932, 931, 884, 885, 933, 932, 885, 886, 934, 933, 886, 887, 935, 934, 887, 888, 936, 935, 888, 889, 937, 936, 889, 890, 938, 937, 890, 891, 939, 938, 891, 892, 940, 939, 892, 893, 941, 940, 893, 894, 942, 941, 894, 895, 943, 942, 895, 896, 944, 943, 896, 897, 945, 944, 897, 898, 946, 945, 898, 899, 947, 946, 899, 900, 948, 947, 900, 901, 949, 948, 901, 902, 950, 949, 902, 903, 951, 950, 903, 904, 952, 951, 904, 905, 953, 952, 905, 906, 954, 953, 906, 907, 955, 954, 907, 908, 956, 955, 908, 909, 957, 956, 909, 910, 958, 957, 910, 911, 959, 958, 911, 864, 912, 959, 912, 913, 961, 960, 913, 914, 962, 961, 914, 915, 963, 962, 915, 916, 964, 963, 916, 917, 965, 964, 917, 918, 966, 965, 918, 919, 967, 966, 919, 920, 968, 967, 920, 921, 969, 968, 921, 922, 970, 969, 922, 923, 971, 970, 923, 924, 972, 971, 924, 925, 973, 972, 925, 926, 974, 973, 926, 927, 975, 974, 927, 928, 976, 975, 928, 929, 977, 976, 929, 930, 978, 977, 930, 931, 979, 978, 931, 932, 980, 979, 932, 933, 981, 980, 933, 934, 982, 981, 934, 935, 983, 982, 935, 936, 984, 983, 936, 937, 985, 984, 937, 938, 986, 985, 938, 939, 987, 986, 939, 940, 988, 987, 940, 941, 989, 988, 941, 942, 990, 989, 942, 943, 991, 990, 943, 944, 992, 991, 944, 945, 993, 992, 945, 946, 994, 993, 946, 947, 995, 994, 947, 948, 996, 995, 948, 949, 997, 996, 949, 950, 998, 997, 950, 951, 999, 998, 951, 952, 1000, 999, 952, 953, 1001, 1000, 953, 954, 1002, 1001, 954, 955, 1003, 1002, 955, 956, 1004, 1003, 956, 957, 1005, 1004, 957, 958, 1006, 1005, 958, 959, 1007, 1006, 959, 912, 960, 1007, 960, 961, 1009, 1008, 961, 962, 1010, 1009, 962, 963, 1011, 1010, 963, 964, 1012, 1011, 964, 965, 1013, 1012, 965, 966, 1014, 1013, 966, 967, 1015, 1014, 967, 968, 1016, 1015, 968, 969, 1017, 1016, 969, 970, 1018, 1017, 970, 971, 1019, 1018, 971, 972, 1020, 1019, 972, 973, 1021, 1020, 973, 974, 1022, 1021, 974, 975, 1023, 1022, 975, 976, 1024, 1023, 976, 977, 1025, 1024, 977, 978, 1026, 1025, 978, 979, 1027, 1026, 979, 980, 1028, 1027, 980, 981, 1029, 1028, 981, 982, 1030, 1029, 982, 983, 1031, 1030, 983, 984, 1032, 1031, 984, 985, 1033, 1032, 985, 986, 1034, 1033, 986, 987, 1035, 1034, 987, 988, 1036, 1035, 988, 989, 1037, 1036, 989, 990, 1038, 1037, 990, 991, 1039, 1038, 991, 992, 1040, 1039, 992, 993, 1041, 1040, 993, 994, 1042, 1041, 994, 995, 1043, 1042, 995, 996, 1044, 1043, 996, 997, 1045, 1044, 997, 998, 1046, 1045, 998, 999, 1047, 1046, 999, 1000, 1048, 1047, 1000, 1001, 1049, 1048, 1001, 1002, 1050, 1049, 1002, 1003, 1051, 1050, 1003, 1004, 1052, 1051, 1004, 1005, 1053, 1052, 1005, 1006, 1054, 1053, 1006, 1007, 1055, 1054, 1007, 960, 1008, 1055, 1008, 1009, 1057, 1056, 1009, 1010, 1058, 1057, 1010, 1011, 1059, 1058, 1011, 1012, 1060, 1059, 1012, 1013, 1061, 1060, 1013, 1014, 1062, 1061, 1014, 1015, 1063, 1062, 1015, 1016, 1064, 1063, 1016, 1017, 1065, 1064, 1017, 1018, 1066, 1065, 1018, 1019, 1067, 1066, 1019, 1020, 1068, 1067, 1020, 1021, 1069, 1068, 1021, 1022, 1070, 1069, 1022, 1023, 1071, 1070, 1023, 1024, 1072, 1071, 1024, 1025, 1073, 1072, 1025, 1026, 1074, 1073, 1026, 1027, 1075, 1074, 1027, 1028, 1076, 1075, 1028, 1029, 1077, 1076, 1029, 1030, 1078, 1077, 1030, 1031, 1079, 1078, 1031, 1032, 1080, 1079, 1032, 1033, 1081, 1080, 1033, 1034, 1082, 1081, 1034, 1035, 1083, 1082, 1035, 1036, 1084, 1083, 1036, 1037, 1085, 1084, 1037, 1038, 1086, 1085, 1038, 1039, 1087, 1086, 1039, 1040, 1088, 1087, 1040, 1041, 1089, 1088, 1041, 1042, 1090, 1089, 1042, 1043, 1091, 1090, 1043, 1044, 1092, 1091, 1044, 1045, 1093, 1092, 1045, 1046, 1094, 1093, 1046, 1047, 1095, 1094, 1047, 1048, 1096, 1095, 1048, 1049, 1097, 1096, 1049, 1050, 1098, 1097, 1050, 1051, 1099, 1098, 1051, 1052, 1100, 1099, 1052, 1053, 1101, 1100, 1053, 1054, 1102, 1101, 1054, 1055, 1103, 1102, 1055, 1008, 1056, 1103, 1056, 1057, 1105, 1104, 1057, 1058, 1106, 1105, 1058, 1059, 1107, 1106, 1059, 1060, 1108, 1107, 1060, 1061, 1109, 1108, 1061, 1062, 1110, 1109, 1062, 1063, 1111, 1110, 1063, 1064, 1112, 1111, 1064, 1065, 1113, 1112, 1065, 1066, 1114, 1113, 1066, 1067, 1115, 1114, 1067, 1068, 1116, 1115, 1068, 1069, 1117, 1116, 1069, 1070, 1118, 1117, 1070, 1071, 1119, 1118, 1071, 1072, 1120, 1119, 1072, 1073, 1121, 1120, 1073, 1074, 1122, 1121, 1074, 1075, 1123, 1122, 1075, 1076, 1124, 1123, 1076, 1077, 1125, 1124, 1077, 1078, 1126, 1125, 1078, 1079, 1127, 1126, 1079, 1080, 1128, 1127, 1080, 1081, 1129, 1128, 1081, 1082, 1130, 1129, 1082, 1083, 1131, 1130, 1083, 1084, 1132, 1131, 1084, 1085, 1133, 1132, 1085, 1086, 1134, 1133, 1086, 1087, 1135, 1134, 1087, 1088, 1136, 1135, 1088, 1089, 1137, 1136, 1089, 1090, 1138, 1137, 1090, 1091, 1139, 1138, 1091, 1092, 1140, 1139, 1092, 1093, 1141, 1140, 1093, 1094, 1142, 1141, 1094, 1095, 1143, 1142, 1095, 1096, 1144, 1143, 1096, 1097, 1145, 1144, 1097, 1098, 1146, 1145, 1098, 1099, 1147, 1146, 1099, 1100, 1148, 1147, 1100, 1101, 1149, 1148, 1101, 1102, 1150, 1149, 1102, 1103, 1151, 1150, 1103, 1056, 1104, 1151, 1104, 1105, 1153, 1152, 1105, 1106, 1154, 1153, 1106, 1107, 1155, 1154, 1107, 1108, 1156, 1155, 1108, 1109, 1157, 1156, 1109, 1110, 1158, 1157, 1110, 1111, 1159, 1158, 1111, 1112, 1160, 1159, 1112, 1113, 1161, 1160, 1113, 1114, 1162, 1161, 1114, 1115, 1163, 1162, 1115, 1116, 1164, 1163, 1116, 1117, 1165, 1164, 1117, 1118, 1166, 1165, 1118, 1119, 1167, 1166, 1119, 1120, 1168, 1167, 1120, 1121, 1169, 1168, 1121, 1122, 1170, 1169, 1122, 1123, 1171, 1170, 1123, 1124, 1172, 1171, 1124, 1125, 1173, 1172, 1125, 1126, 1174, 1173, 1126, 1127, 1175, 1174, 1127, 1128, 1176, 1175, 1128, 1129, 1177, 1176, 1129, 1130, 1178, 1177, 1130, 1131, 1179, 1178, 1131, 1132, 1180, 1179, 1132, 1133, 1181, 1180, 1133, 1134, 1182, 1181, 1134, 1135, 1183, 1182, 1135, 1136, 1184, 1183, 1136, 1137, 1185, 1184, 1137, 1138, 1186, 1185, 1138, 1139, 1187, 1186, 1139, 1140, 1188, 1187, 1140, 1141, 1189, 1188, 1141, 1142, 1190, 1189, 1142, 1143, 1191, 1190, 1143, 1144, 1192, 1191, 1144, 1145, 1193, 1192, 1145, 1146, 1194, 1193, 1146, 1147, 1195, 1194, 1147, 1148, 1196, 1195, 1148, 1149, 1197, 1196, 1149, 1150, 1198, 1197, 1150, 1151, 1199, 1198, 1151, 1104, 1152, 1199]
        point3f[] points = [(0, 0, 1), (0, 0, 1), (0, 0, 1), (0, 0, 1), (0, 0, 1), (0, 0, 1), (0, 0, 1), (0, 0, 1), (0, 0, 1), (0, 0, 1), (0, 0, 1), (0, 0, 1), (0, 0, 1), (-0, 0, 1), (-0, 0, 1), (-0, 0, 1), (-0, 0, 1), (-0, 0, 1), (-0, 0, 1), (-0, 0, 1), (-0, 0, 1), (-0, 0, 1), (-0, 0, 1), (-0, 0, 1), (-0, 0, 1), (-0, -0, 1), (-0, -0, 1), (-0, -0, 1), (-0, -0, 1), (-0, -0, 1), (-0, -0, 1), (-0, -0, 1), (-0, -0, 1), (-0, -0, 1), (-0, -0, 1), (-0, -0, 1), (-0, -0, 1), (0, -0, 1), (0, -0, 1), (0, -0, 1), (0, -0, 1), (0, -0, 1), (0, -0, 1), (0, -0, 1), (0, -0, 1), (0, -0, 1), (0, -0, 1), (0, -0, 1), (0.130526, 0, 0.991445), (0.12941, 0.0170371, 0.991445), (0.126079, 0.0337827, 0.991445), (0.12059, 0.0499502, 0.991445), (0.113039, 0.0652631, 0.991445), (0.103553, 0.0794593, 0.991445), (0.092296, 0.092296, 0.991445), (0.0794593, 0.103553, 0.991445), (0.0652631, 0.113039, 0.991445), (0.0499502, 0.12059, 0.991445), (0.0337827, 0.126079, 0.991445), (0.0170371, 0.12941, 0.991445), (7.99242e-18, 0.130526, 0.991445), (-0.0170371, 0.12941, 0.991445), (-0.0337827, 0.126079, 0.991445), (-0.0499502, 0.12059, 0.991445), (-0.0652631, 0.113039, 0.991445), (-0.0794593, 0.103553, 0.991445), (-0.092296, 0.092296, 0.991445), (-0.103553, 0.0794593, 0.991445), (-0.113039, 0.0652631, 0.991445), (-0.12059, 0.0499502, 0.991445), (-0.126079, 0.0337827, 0.991445), (-0.12941, 0.0170371, 0.991445), (-0.130526, 1.59848e-17, 0.991445), (-0.12941, -0.0170371, 0.991445), (-0.126079, -0.0337827, 0.991445), (-0.12059, -0.0499502, 0.991445), (-0.113039, -0.0652631, 0.991445), (-0.103553, -0.0794593, 0.991445), (-0.092296, -0.092296, 0.991445), (-0.0794593, -0.103553, 0.991445), (-0.0652631, -0.113039, 0.991445), (-0.0499502, -0.12059, 0.991445), (-0.0337827, -0.126079, 0.991445), (-0.0170371, -0.12941, 0.991445), (-2.39773e-17, -0.130526, 0.991445), (0.0170371, -0.12941, 0.991445), (0.0337827, -0.126079, 0.991445), (0.0499502, -0.12059, 0.991445), (0.0652631, -0.113039, 0.991445), (0.0794593, -0.103553, 0.991445), (0.092296, -0.092296, 0.991445), (0.103553, -0.0794593, 0.991445), (0.113039, -0.0652631, 0.991445), (0.12059, -0.0499502, 0.991445), (0.126079, -0.0337827, 0.991445), (0.12941, -0.0170371, 0.991445), (0.258819, 0, 0.965926), (0.256605, 0.0337827, 0.965926), (0.25, 0.0669873, 0.965926), (0.239118, 0.0990458, 0.965926), (0.224144, 0.12941, 0.965926), (0.205335, 0.157559, 0.965926), (0.183013, 0.183013, 0.965926), (0.157559, 0.205335, 0.965926), (0.12941, 0.224144, 0.965926), (0.0990458, 0.239118, 0.965926), (0.0669873, 0.25, 0.965926), (0.0337827, 0.256605, 0.965926), (1.58481e-17, 0.258819, 0.965926), (-0.0337827, 0.256605, 0.965926), (-0.0669873, 0.25, 0.965926), (-0.0990458, 0.239118, 0.965926), (-0.12941, 0.224144, 0.965926), (-0.157559, 0.205335, 0.965926), (-0.183013, 0.183013, 0.965926), (-0.205335, 0.157559, 0.965926), (-0.224144, 0.12941, 0.965926), (-0.239118, 0.0990458, 0.965926), (-0.25, 0.0669873, 0.965926), (-0.256605, 0.0337827, 0.965926), (-0.258819, 3.16962e-17, 0.965926), (-0.256605, -0.0337827, 0.965926), (-0.25, -0.0669873, 0.965926), (-0.239118, -0.0990458, 0.965926), (-0.224144, -0.12941, 0.965926), (-0.205335, -0.157559, 0.965926), (-0.183013, -0.183013, 0.965926), (-0.157559, -0.205335, 0.965926), (-0.12941, -0.224144, 0.965926), (-0.0990458, -0.239118, 0.965926), (-0.0669873, -0.25, 0.965926), (-0.0337827, -0.256605, 0.965926), (-4.75443e-17, -0.258819, 0.965926), (0.0337827, -0.256605, 0.965926), (0.0669873, -0.25, 0.965926), (0.0990458, -0.239118, 0.965926), (0.12941, -0.224144, 0.965926), (0.157559, -0.205335, 0.965926), (0.183013, -0.183013, 0.965926), (0.205335, -0.157559, 0.965926), (0.224144, -0.12941, 0.965926), (0.239118, -0.0990458, 0.965926), (0.25, -0.0669873, 0.965926), (0.256605, -0.0337827, 0.965926), (0.382683, 0, 0.92388), (0.37941, 0.0499502, 0.92388), (0.369644, 0.0990458, 0.92388), (0.353553, 0.146447, 0.92388), (0.331414, 0.191342, 0.92388), (0.303603, 0.232963, 0.92388), (0.270598, 0.270598, 0.92388), (0.232963, 0.303603, 0.92388), (0.191342, 0.331414, 0.92388), (0.146447, 0.353553, 0.92388), (0.0990458, 0.369644, 0.92388), (0.0499502, 0.37941, 0.92388), (2.34326e-17, 0.382683, 0.92388), (-0.0499502, 0.37941, 0.92388), (-0.0990458, 0.369644, 0.92388), (-0.146447, 0.353553, 0.92388), (-0.191342, 0.331414, 0.92388), (-0.232963, 0.303603, 0.92388), (-0.270598, 0.270598, 0.92388), (-0.303603, 0.232963, 0.92388), (-0.331414, 0.191342, 0.92388), (-0.353553, 0.146447, 0.92388), (-0.369644, 0.0990458, 0.92388), (-0.37941, 0.0499502, 0.92388), (-0.382683, 4.68652e-17, 0.92388), (-0.37941, -0.0499502, 0.92388), (-0.369644, -0.0990458, 0.92388), (-0.353553, -0.146447, 0.92388), (-0.331414, -0.191342, 0.92388), (-0.303603, -0.232963, 0.92388), (-0.270598, -0.270598, 0.92388), (-0.232963, -0.303603, 0.92388), (-0.191342, -0.331414, 0.92388), (-0.146447, -0.353553, 0.92388), (-0.0990458, -0.369644, 0.92388), (-0.0499502, -0.37941, 0.92388), (-7.02978e-17, -0.382683, 0.92388), (0.0499502, -0.37941, 0.92388), (0.0990458, -0.369644, 0.92388), (0.146447, -0.353553, 0.92388), (0.191342, -0.331414, 0.92388), (0.232963, -0.303603, 0.92388), (0.270598, -0.270598, 0.92388), (0.303603, -0.232963, 0.92388), (0.331414, -0.191342, 0.92388), (0.353553, -0.146447, 0.92388), (0.369644, -0.0990458, 0.92388), (0.37941, -0.0499502, 0.92388), (0.5, 0, 0.866025), (0.495722, 0.0652631, 0.866025), (0.482963, 0.12941, 0.866025), (0.46194, 0.191342, 0.866025), (0.433013, 0.25, 0.866025), (0.396677, 0.304381, 0.866025), (0.353553, 0.353553, 0.866025), (0.304381, 0.396677, 0.866025), (0.25, 0.433013, 0.866025), (0.191342, 0.46194, 0.866025), (0.12941, 0.482963, 0.866025), (0.0652631, 0.495722, 0.866025), (3.06162e-17, 0.5, 0.866025), (-0.0652631, 0.495722, 0.866025), (-0.12941, 0.482963, 0.866025), (-0.191342, 0.46194, 0.866025), (-0.25, 0.433013, 0.866025), (-0.304381, 0.396677, 0.866025), (-0.353553, 0.353553, 0.866025), (-0.396677, 0.304381, 0.866025), (-0.433013, 0.25, 0.866025), (-0.46194, 0.191342, 0.866025), (-0.482963, 0.12941, 0.866025), (-0.495722, 0.0652631, 0.866025), (-0.5, 6.12323e-17, 0.866025), (-0.495722, -0.0652631, 0.866025), (-0.482963, -0.12941, 0.866025), (-0.46194, -0.191342, 0.866025), (-0.433013, -0.25, 0.866025), (-0.396677, -0.304381, 0.866025), (-0.353553, -0.353553, 0.866025), (-0.304381, -0.396677, 0.866025), (-0.25, -0.433013, 0.866025), (-0.191342, -0.46194, 0.866025), (-0.12941, -0.482963, 0.866025), (-0.0652631, -0.495722, 0.866025), (-9.18485e-17, -0.5, 0.866025), (0.0652631, -0.495722, 0.866025), (0.12941, -0.482963, 0.866025), (0.191342, -0.46194, 0.866025), (0.25, -0.433013, 0.866025), (0.304381, -0.396677, 0.866025), (0.353553, -0.353553, 0.866025), (0.396677, -0.304381, 0.866025), (0.433013, -0.25, 0.866025), (0.46194, -0.191342, 0.866025), (0.482963, -0.12941, 0.866025), (0.495722, -0.0652631, 0.866025), (0.608761, 0, 0.793353), (0.603553, 0.0794593, 0.793353), (0.588018, 0.157559, 0.793353), (0.562422, 0.232963, 0.793353), (0.527203, 0.304381, 0.793353), (0.482963, 0.37059, 0.793353), (0.430459, 0.430459, 0.793353), (0.37059, 0.482963, 0.793353), (0.304381, 0.527203, 0.793353), (0.232963, 0.562422, 0.793353), (0.157559, 0.588018, 0.793353), (0.0794593, 0.603553, 0.793353), (3.72759e-17, 0.608761, 0.793353), (-0.0794593, 0.603553, 0.793353), (-0.157559, 0.588018, 0.793353), (-0.232963, 0.562422, 0.793353), (-0.304381, 0.527203, 0.793353), (-0.37059, 0.482963, 0.793353), (-0.430459, 0.430459, 0.793353), (-0.482963, 0.37059, 0.793353), (-0.527203, 0.304381, 0.793353), (-0.562422, 0.232963, 0.793353), (-0.588018, 0.157559, 0.793353), (-0.603553, 0.0794593, 0.793353), (-0.608761, 7.45518e-17, 0.793353), (-0.603553, -0.0794593, 0.793353), (-0.588018, -0.157559, 0.793353), (-0.562422, -0.232963, 0.793353), (-0.527203, -0.304381, 0.793353), (-0.482963, -0.37059, 0.793353), (-0.430459, -0.430459, 0.793353), (-0.37059, -0.482963, 0.793353), (-0.304381, -0.527203, 0.793353), (-0.232963, -0.562422, 0.793353), (-0.157559, -0.588018, 0.793353), (-0.0794593, -0.603553, 0.793353), (-1.11828e-16, -0.608761, 0.793353), (0.0794593, -0.603553, 0.793353), (0.157559, -0.588018, 0.793353), (0.232963, -0.562422, 0.793353), (0.304381, -0.527203, 0.793353), (0.37059, -0.482963, 0.793353), (0.430459, -0.430459, 0.793353), (0.482963, -0.37059, 0.793353), (0.527203, -0.304381, 0.793353), (0.562422, -0.232963, 0.793353), (0.588018, -0.157559, 0.793353), (0.603553, -0.0794593, 0.793353), (0.707107, 0, 0.707107), (0.701057, 0.092296, 0.707107), (0.683013, 0.183013, 0.707107), (0.653281, 0.270598, 0.707107), (0.612372, 0.353553, 0.707107), (0.560986, 0.430459, 0.707107), (0.5, 0.5, 0.707107), (0.430459, 0.560986, 0.707107), (0.353553, 0.612372, 0.707107), (0.270598, 0.653281, 0.707107), (0.183013, 0.683013, 0.707107), (0.092296, 0.701057, 0.707107), (4.32978e-17, 0.707107, 0.707107), (-0.092296, 0.701057, 0.707107), (-0.183013, 0.683013, 0.707107), (-0.270598, 0.653281, 0.707107), (-0.353553, 0.612372, 0.707107), (-0.430459, 0.560986, 0.707107), (-0.5, 0.5, 0.707107), (-0.560986, 0.430459, 0.707107), (-0.612372, 0.353553, 0.707107), (-0.653281, 0.270598, 0.707107), (-0.683013, 0.183013, 0.707107), (-0.701057, 0.092296, 0.707107), (-0.707107, 8.65956e-17, 0.707107), (-0.701057, -0.092296, 0.707107), (-0.683013, -0.183013, 0.707107), (-0.653281, -0.270598, 0.707107), (-0.612372, -0.353553, 0.707107), (-0.560986, -0.430459, 0.707107), (-0.5, -0.5, 0.707107), (-0.430459, -0.560986, 0.707107), (-0.353553, -0.612372, 0.707107), (-0.270598, -0.653281, 0.707107), (-0.183013, -0.683013, 0.707107), (-0.092296, -0.701057, 0.707107), (-1.29893e-16, -0.707107, 0.707107), (0.092296, -0.701057, 0.707107), (0.183013, -0.683013, 0.707107), (0.270598, -0.653281, 0.707107), (0.353553, -0.612372, 0.707107), (0.430459, -0.560986, 0.707107), (0.5, -0.5, 0.707107), (0.560986, -0.430459, 0.707107), (0.612372, -0.353553, 0.707107), (0.653281, -0.270598, 0.707107), (0.683013, -0.183013, 0.707107), (0.701057, -0.092296, 0.707107), (0.793353, 0, 0.608761), (0.786566, 0.103553, 0.608761), (0.76632, 0.205335, 0.608761), (0.732963, 0.303603, 0.608761), (0.687064, 0.396677, 0.608761), (0.62941, 0.482963, 0.608761), (0.560986, 0.560986, 0.608761), (0.482963, 0.62941, 0.608761), (0.396677, 0.687064, 0.608761), (0.303603, 0.732963, 0.608761), (0.205335, 0.76632, 0.608761), (0.103553, 0.786566, 0.608761), (4.85789e-17, 0.793353, 0.608761), (-0.103553, 0.786566, 0.608761), (-0.205335, 0.76632, 0.608761), (-0.303603, 0.732963, 0.608761), (-0.396677, 0.687064, 0.608761), (-0.482963, 0.62941, 0.608761), (-0.560986, 0.560986, 0.608761), (-0.62941, 0.482963, 0.608761), (-0.687064, 0.396677, 0.608761), (-0.732963, 0.303603, 0.608761), (-0.76632, 0.205335, 0.608761), (-0.786566, 0.103553, 0.608761), (-0.793353, 9.71578e-17, 0.608761), (-0.786566, -0.103553, 0.608761), (-0.76632, -0.205335, 0.608761), (-0.732963, -0.303603, 0.608761), (-0.687064, -0.396677, 0.608761), (-0.62941, -0.482963, 0.608761), (-0.560986, -0.560986, 0.608761), (-0.482963, -0.62941, 0.608761), (-0.396677, -0.687064, 0.608761), (-0.303603, -0.732963, 0.608761), (-0.205335, -0.76632, 0.608761), (-0.103553, -0.786566, 0.608761), (-1.45737e-16, -0.793353, 0.608761), (0.103553, -0.786566, 0.608761), (0.205335, -0.76632, 0.608761), (0.303603, -0.732963, 0.608761), (0.396677, -0.687064, 0.608761), (0.482963, -0.62941, 0.608761), (0.560986, -0.560986, 0.608761), (0.62941, -0.482963, 0.608761), (0.687064, -0.396677, 0.608761), (0.732963, -0.303603, 0.608761), (0.76632, -0.205335, 0.608761), (0.786566, -0.103553, 0.608761), (0.866025, 0, 0.5), (0.858616, 0.113039, 0.5), (0.836516, 0.224144, 0.5), (0.800103, 0.331414, 0.5), (0.75, 0.433013, 0.5), (0.687064, 0.527203, 0.5), (0.612372, 0.612372, 0.5), (0.527203, 0.687064, 0.5), (0.433013, 0.75, 0.5), (0.331414, 0.800103, 0.5), (0.224144, 0.836516, 0.5), (0.113039, 0.858616, 0.5), (5.30288e-17, 0.866025, 0.5), (-0.113039, 0.858616, 0.5), (-0.224144, 0.836516, 0.5), (-0.331414, 0.800103, 0.5), (-0.433013, 0.75, 0.5), (-0.527203, 0.687064, 0.5), (-0.612372, 0.612372, 0.5), (-0.687064, 0.527203, 0.5), (-0.75, 0.433013, 0.5), (-0.800103, 0.331414, 0.5), (-0.836516, 0.224144, 0.5), (-0.858616, 0.113039, 0.5), (-0.866025, 1.06058e-16, 0.5), (-0.858616, -0.113039, 0.5), (-0.836516, -0.224144, 0.5), (-0.800103, -0.331414, 0.5), (-0.75, -0.433013, 0.5), (-0.687064, -0.527203, 0.5), (-0.612372, -0.612372, 0.5), (-0.527203, -0.687064, 0.5), (-0.433013, -0.75, 0.5), (-0.331414, -0.800103, 0.5), (-0.224144, -0.836516, 0.5), (-0.113039, -0.858616, 0.5), (-1.59086e-16, -0.866025, 0.5), (0.113039, -0.858616, 0.5), (0.224144, -0.836516, 0.5), (0.331414, -0.800103, 0.5), (0.433013, -0.75, 0.5), (0.527203, -0.687064, 0.5), (0.612372, -0.612372, 0.5), (0.687064, -0.527203, 0.5), (0.75, -0.433013, 0.5), (0.800103, -0.331414, 0.5), (0.836516, -0.224144, 0.5), (0.858616, -0.113039, 0.5), (0.92388, 0, 0.382683), (0.915976, 0.12059, 0.382683), (0.892399, 0.239118, 0.382683), (0.853553, 0.353553, 0.382683), (0.800103, 0.46194, 0.382683), (0.732963, 0.562422, 0.382683), (0.653281, 0.653281, 0.382683), (0.562422, 0.732963, 0.382683), (0.46194, 0.800103, 0.382683), (0.353553, 0.853553, 0.382683), (0.239118, 0.892399, 0.382683), (0.12059, 0.915976, 0.382683), (5.65713e-17, 0.92388, 0.382683), (-0.12059, 0.915976, 0.382683), (-0.239118, 0.892399, 0.382683), (-0.353553, 0.853553, 0.382683), (-0.46194, 0.800103, 0.382683), (-0.562422, 0.732963, 0.382683), (-0.653281, 0.653281, 0.382683), (-0.732963, 0.562422, 0.382683), (-0.800103, 0.46194, 0.382683), (-0.853553, 0.353553, 0.382683), (-0.892399, 0.239118, 0.382683), (-0.915976, 0.12059, 0.382683), (-0.92388, 1.13143e-16, 0.382683), (-0.915976, -0.12059, 0.382683), (-0.892399, -0.239118, 0.382683), (-0.853553, -0.353553, 0.382683), (-0.800103, -0.46194, 0.382683), (-0.732963, -0.562422, 0.382683), (-0.653281, -0.653281, 0.382683), (-0.562422, -0.732963, 0.382683), (-0.46194, -0.800103, 0.382683), (-0.353553, -0.853553, 0.382683), (-0.239118, -0.892399, 0.382683), (-0.12059, -0.915976, 0.382683), (-1.69714e-16, -0.92388, 0.382683), (0.12059, -0.915976, 0.382683), (0.239118, -0.892399, 0.382683), (0.353553, -0.853553, 0.382683), (0.46194, -0.800103, 0.382683), (0.562422, -0.732963, 0.382683), (0.653281, -0.653281, 0.382683), (0.732963, -0.562422, 0.382683), (0.800103, -0.46194, 0.382683), (0.853553, -0.353553, 0.382683), (0.892399, -0.239118, 0.382683), (0.915976, -0.12059, 0.382683), (0.965926, 0, 0.258819), (0.957662, 0.126079, 0.258819), (0.933013, 0.25, 0.258819), (0.892399, 0.369644, 0.258819), (0.836516, 0.482963, 0.258819), (0.76632, 0.588018, 0.258819), (0.683013, 0.683013, 0.258819), (0.588018, 0.76632, 0.258819), (0.482963, 0.836516, 0.258819), (0.369644, 0.892399, 0.258819), (0.25, 0.933013, 0.258819), (0.126079, 0.957662, 0.258819), (5.91459e-17, 0.965926, 0.258819), (-0.126079, 0.957662, 0.258819), (-0.25, 0.933013, 0.258819), (-0.369644, 0.892399, 0.258819), (-0.482963, 0.836516, 0.258819), (-0.588018, 0.76632, 0.258819), (-0.683013, 0.683013, 0.258819), (-0.76632, 0.588018, 0.258819), (-0.836516, 0.482963, 0.258819), (-0.892399, 0.369644, 0.258819), (-0.933013, 0.25, 0.258819), (-0.957662, 0.126079, 0.258819), (-0.965926, 1.18292e-16, 0.258819), (-0.957662, -0.126079, 0.258819), (-0.933013, -0.25, 0.258819), (-0.892399, -0.369644, 0.258819), (-0.836516, -0.482963, 0.258819), (-0.76632, -0.588018, 0.258819), (-0.683013, -0.683013, 0.258819), (-0.588018, -0.76632, 0.258819), (-0.482963, -0.836516, 0.258819), (-0.369644, -0.892399, 0.258819), (-0.25, -0.933013, 0.258819), (-0.126079, -0.957662, 0.258819), (-1.77438e-16, -0.965926, 0.258819), (0.126079, -0.957662, 0.258819), (0.25, -0.933013, 0.258819), (0.369644, -0.892399, 0.258819), (0.482963, -0.836516, 0.258819), (0.588018, -0.76632, 0.258819), (0.683013, -0.683013, 0.258819), (0.76632, -0.588018, 0.258819), (0.836516, -0.482963, 0.258819), (0.892399, -0.369644, 0.258819), (0.933013, -0.25, 0.258819), (0.957662, -0.126079, 0.258819), (0.991445, 0, 0.130526), (0.982963, 0.12941, 0.130526), (0.957662, 0.256605, 0.130526), (0.915976, 0.37941, 0.130526), (0.858616, 0.495722, 0.130526), (0.786566, 0.603553, 0.130526), (0.701057, 0.701057, 0.130526), (0.603553, 0.786566, 0.130526), (0.495722, 0.858616, 0.130526), (0.37941, 0.915976, 0.130526), (0.256605, 0.957662, 0.130526), (0.12941, 0.982963, 0.130526), (6.07085e-17, 0.991445, 0.130526), (-0.12941, 0.982963, 0.130526), (-0.256605, 0.957662, 0.130526), (-0.37941, 0.915976, 0.130526), (-0.495722, 0.858616, 0.130526), (-0.603553, 0.786566, 0.130526), (-0.701057, 0.701057, 0.130526), (-0.786566, 0.603553, 0.130526), (-0.858616, 0.495722, 0.130526), (-0.915976, 0.37941, 0.130526), (-0.957662, 0.256605, 0.130526), (-0.982963, 0.12941, 0.130526), (-0.991445, 1.21417e-16, 0.130526), (-0.982963, -0.12941, 0.130526), (-0.957662, -0.256605, 0.130526), (-0.915976, -0.37941, 0.130526), (-0.858616, -0.495722, 0.130526), (-0.786566, -0.603553, 0.130526), (-0.701057, -0.701057, 0.130526), (-0.603553, -0.786566, 0.130526), (-0.495722, -0.858616, 0.130526), (-0.37941, -0.915976, 0.130526), (-0.256605, -0.957662, 0.130526), (-0.12941, -0.982963, 0.130526), (-1.82125e-16, -0.991445, 0.130526), (0.12941, -0.982963, 0.130526), (0.256605, -0.957662, 0.130526), (0.37941, -0.915976, 0.130526), (0.495722, -0.858616, 0.130526), (0.603553, -0.786566, 0.130526), (0.701057, -0.701057, 0.130526), (0.786566, -0.603553, 0.130526), (0.858616, -0.495722, 0.130526), (0.915976, -0.37941, 0.130526), (0.957662, -0.256605, 0.130526), (0.982963, -0.12941, 0.130526), (1, 0, 6.12323e-17), (0.991445, 0.130526, 6.12323e-17), (0.965926, 0.258819, 6.12323e-17), (0.92388, 0.382683, 6.12323e-17), (0.866025, 0.5, 6.12323e-17), (0.793353, 0.608761, 6.12323e-17), (0.707107, 0.707107, 6.12323e-17), (0.608761, 0.793353, 6.12323e-17), (0.5, 0.866025, 6.12323e-17), (0.382683, 0.92388, 6.12323e-17), (0.258819, 0.965926, 6.12323e-17), (0.130526, 0.991445, 6.12323e-17), (6.12323e-17, 1, 6.12323e-17), (-0.130526, 0.991445, 6.12323e-17), (-0.258819, 0.965926, 6.12323e-17), (-0.382683, 0.92388, 6.12323e-17), (-0.5, 0.866025, 6.12323e-17), (-0.608761, 0.793353, 6.12323e-17), (-0.707107, 0.707107, 6.12323e-17), (-0.793353, 0.608761, 6.12323e-17), (-0.866025, 0.5, 6.12323e-17), (-0.92388, 0.382683, 6.12323e-17), (-0.965926, 0.258819, 6.12323e-17), (-0.991445, 0.130526, 6.12323e-17), (-1, 1.22465e-16, 6.12323e-17), (-0.991445, -0.130526, 6.12323e-17), (-0.965926, -0.258819, 6.12323e-17), (-0.92388, -0.382683, 6.12323e-17), (-0.866025, -0.5, 6.12323e-17), (-0.793353, -0.608761, 6.12323e-17), (-0.707107, -0.707107, 6.12323e-17), (-0.608761, -0.793353, 6.12323e-17), (-0.5, -0.866025, 6.12323e-17), (-0.382683, -0.92388, 6.12323e-17), (-0.258819, -0.965926, 6.12323e-17), (-0.130526, -0.991445, 6.12323e-17), (-1.83697e-16, -1, 6.12323e-17), (0.130526, -0.991445, 6.12323e-17), (0.258819, -0.965926, 6.12323e-17), (0.382683, -0.92388, 6.12323e-17), (0.5, -0.866025, 6.12323e-17), (0.608761, -0.793353, 6.12323e-17), (0.707107, -0.707107, 6.12323e-17), (0.793353, -0.608761, 6.12323e-17), (0.866025, -0.5, 6.12323e-17), (0.92388, -0.382683, 6.12323e-17), (0.965926, -0.258819, 6.12323e-17), (0.991445, -0.130526, 6.12323e-17), (0.991445, 0, -0.130526), (0.982963, 0.12941, -0.130526), (0.957662, 0.256605, -0.130526), (0.915976, 0.37941, -0.130526), (0.858616, 0.495722, -0.130526), (0.786566, 0.603553, -0.130526), (0.701057, 0.701057, -0.130526), (0.603553, 0.786566, -0.130526), (0.495722, 0.858616, -0.130526), (0.37941, 0.915976, -0.130526), (0.256605, 0.957662, -0.130526), (0.12941, 0.982963, -0.130526), (6.07085e-17, 0.991445, -0.130526), (-0.12941, 0.982963, -0.130526), (-0.256605, 0.957662, -0.130526), (-0.37941, 0.915976, -0.130526), (-0.495722, 0.858616, -0.130526), (-0.603553, 0.786566, -0.130526), (-0.701057, 0.701057, -0.130526), (-0.786566, 0.603553, -0.130526), (-0.858616, 0.495722, -0.130526), (-0.915976, 0.37941, -0.130526), (-0.957662, 0.256605, -0.130526), (-0.982963, 0.12941, -0.130526), (-0.991445, 1.21417e-16, -0.130526), (-0.982963, -0.12941, -0.130526), (-0.957662, -0.256605, -0.130526), (-0.915976, -0.37941, -0.130526), (-0.858616, -0.495722, -0.130526), (-0.786566, -0.603553, -0.130526), (-0.701057, -0.701057, -0.130526), (-0.603553, -0.786566, -0.130526), (-0.495722, -0.858616, -0.130526), (-0.37941, -0.915976, -0.130526), (-0.256605, -0.957662, -0.130526), (-0.12941, -0.982963, -0.130526), (-1.82125e-16, -0.991445, -0.130526), (0.12941, -0.982963, -0.130526), (0.256605, -0.957662, -0.130526), (0.37941, -0.915976, -0.130526), (0.495722, -0.858616, -0.130526), (0.603553, -0.786566, -0.130526), (0.701057, -0.701057, -0.130526), (0.786566, -0.603553, -0.130526), (0.858616, -0.495722, -0.130526), (0.915976, -0.37941, -0.130526), (0.957662, -0.256605, -0.130526), (0.982963, -0.12941, -0.130526), (0.965926, 0, -0.258819), (0.957662, 0.126079, -0.258819), (0.933013, 0.25, -0.258819), (0.892399, 0.369644, -0.258819), (0.836516, 0.482963, -0.258819), (0.76632, 0.588018, -0.258819), (0.683013, 0.683013, -0.258819), (0.588018, 0.76632, -0.258819), (0.482963, 0.836516, -0.258819), (0.369644, 0.892399, -0.258819), (0.25, 0.933013, -0.258819), (0.126079, 0.957662, -0.258819), (5.91459e-17, 0.965926, -0.258819), (-0.126079, 0.957662, -0.258819), (-0.25, 0.933013, -0.258819), (-0.369644, 0.892399, -0.258819), (-0.482963, 0.836516, -0.258819), (-0.588018, 0.76632, -0.258819), (-0.683013, 0.683013, -0.258819), (-0.76632, 0.588018, -0.258819), (-0.836516, 0.482963, -0.258819), (-0.892399, 0.369644, -0.258819), (-0.933013, 0.25, -0.258819), (-0.957662, 0.126079, -0.258819), (-0.965926, 1.18292e-16, -0.258819), (-0.957662, -0.126079, -0.258819), (-0.933013, -0.25, -0.258819), (-0.892399, -0.369644, -0.258819), (-0.836516, -0.482963, -0.258819), (-0.76632, -0.588018, -0.258819), (-0.683013, -0.683013, -0.258819), (-0.588018, -0.76632, -0.258819), (-0.482963, -0.836516, -0.258819), (-0.369644, -0.892399, -0.258819), (-0.25, -0.933013, -0.258819), (-0.126079, -0.957662, -0.258819), (-1.77438e-16, -0.965926, -0.258819), (0.126079, -0.957662, -0.258819), (0.25, -0.933013, -0.258819), (0.369644, -0.892399, -0.258819), (0.482963, -0.836516, -0.258819), (0.588018, -0.76632, -0.258819), (0.683013, -0.683013, -0.258819), (0.76632, -0.588018, -0.258819), (0.836516, -0.482963, -0.258819), (0.892399, -0.369644, -0.258819), (0.933013, -0.25, -0.258819), (0.957662, -0.126079, -0.258819), (0.92388, 0, -0.382683), (0.915976, 0.12059, -0.382683), (0.892399, 0.239118, -0.382683), (0.853553, 0.353553, -0.382683), (0.800103, 0.46194, -0.382683), (0.732963, 0.562422, -0.382683), (0.653281, 0.653281, -0.382683), (0.562422, 0.732963, -0.382683), (0.46194, 0.800103, -0.382683), (0.353553, 0.853553, -0.382683), (0.239118, 0.892399, -0.382683), (0.12059, 0.915976, -0.382683), (5.65713e-17, 0.92388, -0.382683), (-0.12059, 0.915976, -0.382683), (-0.239118, 0.892399, -0.382683), (-0.353553, 0.853553, -0.382683), (-0.46194, 0.800103, -0.382683), (-0.562422, 0.732963, -0.382683), (-0.653281, 0.653281, -0.382683), (-0.732963, 0.562422, -0.382683), (-0.800103, 0.46194, -0.382683), (-0.853553, 0.353553, -0.382683), (-0.892399, 0.239118, -0.382683), (-0.915976, 0.12059, -0.382683), (-0.92388, 1.13143e-16, -0.382683), (-0.915976, -0.12059, -0.382683), (-0.892399, -0.239118, -0.382683), (-0.853553, -0.353553, -0.382683), (-0.800103, -0.46194, -0.382683), (-0.732963, -0.562422, -0.382683), (-0.653281, -0.653281, -0.382683), (-0.562422, -0.732963, -0.382683), (-0.46194, -0.800103, -0.382683), (-0.353553, -0.853553, -0.382683), (-0.239118, -0.892399, -0.382683), (-0.12059, -0.915976, -0.382683), (-1.69714e-16, -0.92388, -0.382683), (0.12059, -0.915976, -0.382683), (0.239118, -0.892399, -0.382683), (0.353553, -0.853553, -0.382683), (0.46194, -0.800103, -0.382683), (0.562422, -0.732963, -0.382683), (0.653281, -0.653281, -0.382683), (0.732963, -0.562422, -0.382683), (0.800103, -0.46194, -0.382683), (0.853553, -0.353553, -0.382683), (0.892399, -0.239118, -0.382683), (0.915976, -0.12059, -0.382683), (0.866025, 0, -0.5), (0.858616, 0.113039, -0.5), (0.836516, 0.224144, -0.5), (0.800103, 0.331414, -0.5), (0.75, 0.433013, -0.5), (0.687064, 0.527203, -0.5), (0.612372, 0.612372, -0.5), (0.527203, 0.687064, -0.5), (0.433013, 0.75, -0.5), (0.331414, 0.800103, -0.5), (0.224144, 0.836516, -0.5), (0.113039, 0.858616, -0.5), (5.30288e-17, 0.866025, -0.5), (-0.113039, 0.858616, -0.5), (-0.224144, 0.836516, -0.5), (-0.331414, 0.800103, -0.5), (-0.433013, 0.75, -0.5), (-0.527203, 0.687064, -0.5), (-0.612372, 0.612372, -0.5), (-0.687064, 0.527203, -0.5), (-0.75, 0.433013, -0.5), (-0.800103, 0.331414, -0.5), (-0.836516, 0.224144, -0.5), (-0.858616, 0.113039, -0.5), (-0.866025, 1.06058e-16, -0.5), (-0.858616, -0.113039, -0.5), (-0.836516, -0.224144, -0.5), (-0.800103, -0.331414, -0.5), (-0.75, -0.433013, -0.5), (-0.687064, -0.527203, -0.5), (-0.612372, -0.612372, -0.5), (-0.527203, -0.687064, -0.5), (-0.433013, -0.75, -0.5), (-0.331414, -0.800103, -0.5), (-0.224144, -0.836516, -0.5), (-0.113039, -0.858616, -0.5), (-1.59086e-16, -0.866025, -0.5), (0.113039, -0.858616, -0.5), (0.224144, -0.836516, -0.5), (0.331414, -0.800103, -0.5), (0.433013, -0.75, -0.5), (0.527203, -0.687064, -0.5), (0.612372, -0.612372, -0.5), (0.687064, -0.527203, -0.5), (0.75, -0.433013, -0.5), (0.800103, -0.331414, -0.5), (0.836516, -0.224144, -0.5), (0.858616, -0.113039, -0.5), (0.793353, 0, -0.608761), (0.786566, 0.103553, -0.608761), (0.76632, 0.205335, -0.608761), (0.732963, 0.303603, -0.608761), (0.687064, 0.396677, -0.608761), (0.62941, 0.482963, -0.608761), (0.560986, 0.560986, -0.608761), (0.482963, 0.62941, -0.608761), (0.396677, 0.687064, -0.608761), (0.303603, 0.732963, -0.608761), (0.205335, 0.76632, -0.608761), (0.103553, 0.786566, -0.608761), (4.85789e-17, 0.793353, -0.608761), (-0.103553, 0.786566, -0.608761), (-0.205335, 0.76632, -0.608761), (-0.303603, 0.732963, -0.608761), (-0.396677, 0.687064, -0.608761), (-0.482963, 0.62941, -0.608761), (-0.560986, 0.560986, -0.608761), (-0.62941, 0.482963, -0.608761), (-0.687064, 0.396677, -0.608761), (-0.732963, 0.303603, -0.608761), (-0.76632, 0.205335, -0.608761), (-0.786566, 0.103553, -0.608761), (-0.793353, 9.71578e-17, -0.608761), (-0.786566, -0.103553, -0.608761), (-0.76632, -0.205335, -0.608761), (-0.732963, -0.303603, -0.608761), (-0.687064, -0.396677, -0.608761), (-0.62941, -0.482963, -0.608761), (-0.560986, -0.560986, -0.608761), (-0.482963, -0.62941, -0.608761), (-0.396677, -0.687064, -0.608761), (-0.303603, -0.732963, -0.608761), (-0.205335, -0.76632, -0.608761), (-0.103553, -0.786566, -0.608761), (-1.45737e-16, -0.793353, -0.608761), (0.103553, -0.786566, -0.608761), (0.205335, -0.76632, -0.608761), (0.303603, -0.732963, -0.608761), (0.396677, -0.687064, -0.608761), (0.482963, -0.62941, -0.608761), (0.560986, -0.560986, -0.608761), (0.62941, -0.482963, -0.608761), (0.687064, -0.396677, -0.608761), (0.732963, -0.303603, -0.608761), (0.76632, -0.205335, -0.608761), (0.786566, -0.103553, -0.608761), (0.707107, 0, -0.707107), (0.701057, 0.092296, -0.707107), (0.683013, 0.183013, -0.707107), (0.653281, 0.270598, -0.707107), (0.612372, 0.353553, -0.707107), (0.560986, 0.430459, -0.707107), (0.5, 0.5, -0.707107), (0.430459, 0.560986, -0.707107), (0.353553, 0.612372, -0.707107), (0.270598, 0.653281, -0.707107), (0.183013, 0.683013, -0.707107), (0.092296, 0.701057, -0.707107), (4.32978e-17, 0.707107, -0.707107), (-0.092296, 0.701057, -0.707107), (-0.183013, 0.683013, -0.707107), (-0.270598, 0.653281, -0.707107), (-0.353553, 0.612372, -0.707107), (-0.430459, 0.560986, -0.707107), (-0.5, 0.5, -0.707107), (-0.560986, 0.430459, -0.707107), (-0.612372, 0.353553, -0.707107), (-0.653281, 0.270598, -0.707107), (-0.683013, 0.183013, -0.707107), (-0.701057, 0.092296, -0.707107), (-0.707107, 8.65956e-17, -0.707107), (-0.701057, -0.092296, -0.707107), (-0.683013, -0.183013, -0.707107), (-0.653281, -0.270598, -0.707107), (-0.612372, -0.353553, -0.707107), (-0.560986, -0.430459, -0.707107), (-0.5, -0.5, -0.707107), (-0.430459, -0.560986, -0.707107), (-0.353553, -0.612372, -0.707107), (-0.270598, -0.653281, -0.707107), (-0.183013, -0.683013, -0.707107), (-0.092296, -0.701057, -0.707107), (-1.29893e-16, -0.707107, -0.707107), (0.092296, -0.701057, -0.707107), (0.183013, -0.683013, -0.707107), (0.270598, -0.653281, -0.707107), (0.353553, -0.612372, -0.707107), (0.430459, -0.560986, -0.707107), (0.5, -0.5, -0.707107), (0.560986, -0.430459, -0.707107), (0.612372, -0.353553, -0.707107), (0.653281, -0.270598, -0.707107), (0.683013, -0.183013, -0.707107), (0.701057, -0.092296, -0.707107), (0.608761, 0, -0.793353), (0.603553, 0.0794593, -0.793353), (0.588018, 0.157559, -0.793353), (0.562422, 0.232963, -0.793353), (0.527203, 0.304381, -0.793353), (0.482963, 0.37059, -0.793353), (0.430459, 0.430459, -0.793353), (0.37059, 0.482963, -0.793353), (0.304381, 0.527203, -0.793353), (0.232963, 0.562422, -0.793353), (0.157559, 0.588018, -0.793353), (0.0794593, 0.603553, -0.793353), (3.72759e-17, 0.608761, -0.793353), (-0.0794593, 0.603553, -0.793353), (-0.157559, 0.588018, -0.793353), (-0.232963, 0.562422, -0.793353), (-0.304381, 0.527203, -0.793353), (-0.37059, 0.482963, -0.793353), (-0.430459, 0.430459, -0.793353), (-0.482963, 0.37059, -0.793353), (-0.527203, 0.304381, -0.793353), (-0.562422, 0.232963, -0.793353), (-0.588018, 0.157559, -0.793353), (-0.603553, 0.0794593, -0.793353), (-0.608761, 7.45518e-17, -0.793353), (-0.603553, -0.0794593, -0.793353), (-0.588018, -0.157559, -0.793353), (-0.562422, -0.232963, -0.793353), (-0.527203, -0.304381, -0.793353), (-0.482963, -0.37059, -0.793353), (-0.430459, -0.430459, -0.793353), (-0.37059, -0.482963, -0.793353), (-0.304381, -0.527203, -0.793353), (-0.232963, -0.562422, -0.793353), (-0.157559, -0.588018, -0.793353), (-0.0794593, -0.603553, -0.793353), (-1.11828e-16, -0.608761, -0.793353), (0.0794593, -0.603553, -0.793353), (0.157559, -0.588018, -0.793353), (0.232963, -0.562422, -0.793353), (0.304381, -0.527203, -0.793353), (0.37059, -0.482963, -0.793353), (0.430459, -0.430459, -0.793353), (0.482963, -0.37059, -0.793353), (0.527203, -0.304381, -0.793353), (0.562422, -0.232963, -0.793353), (0.588018, -0.157559, -0.793353), (0.603553, -0.0794593, -0.793353), (0.5, 0, -0.866025), (0.495722, 0.0652631, -0.866025), (0.482963, 0.12941, -0.866025), (0.46194, 0.191342, -0.866025), (0.433013, 0.25, -0.866025), (0.396677, 0.304381, -0.866025), (0.353553, 0.353553, -0.866025), (0.304381, 0.396677, -0.866025), (0.25, 0.433013, -0.866025), (0.191342, 0.46194, -0.866025), (0.12941, 0.482963, -0.866025), (0.0652631, 0.495722, -0.866025), (3.06162e-17, 0.5, -0.866025), (-0.0652631, 0.495722, -0.866025), (-0.12941, 0.482963, -0.866025), (-0.191342, 0.46194, -0.866025), (-0.25, 0.433013, -0.866025), (-0.304381, 0.396677, -0.866025), (-0.353553, 0.353553, -0.866025), (-0.396677, 0.304381, -0.866025), (-0.433013, 0.25, -0.866025), (-0.46194, 0.191342, -0.866025), (-0.482963, 0.12941, -0.866025), (-0.495722, 0.0652631, -0.866025), (-0.5, 6.12323e-17, -0.866025), (-0.495722, -0.0652631, -0.866025), (-0.482963, -0.12941, -0.866025), (-0.46194, -0.191342, -0.866025), (-0.433013, -0.25, -0.866025), (-0.396677, -0.304381, -0.866025), (-0.353553, -0.353553, -0.866025), (-0.304381, -0.396677, -0.866025), (-0.25, -0.433013, -0.866025), (-0.191342, -0.46194, -0.866025), (-0.12941, -0.482963, -0.866025), (-0.0652631, -0.495722, -0.866025), (-9.18485e-17, -0.5, -0.866025), (0.0652631, -0.495722, -0.866025), (0.12941, -0.482963, -0.866025), (0.191342, -0.46194, -0.866025), (0.25, -0.433013, -0.866025), (0.304381, -0.396677, -0.866025), (0.353553, -0.353553, -0.866025), (0.396677, -0.304381, -0.866025), (0.433013, -0.25, -0.866025), (0.46194, -0.191342, -0.866025), (0.482963, -0.12941, -0.866025), (0.495722, -0.0652631, -0.866025), (0.382683, 0, -0.92388), (0.37941, 0.0499502, -0.92388), (0.369644, 0.0990458, -0.92388), (0.353553, 0.146447, -0.92388), (0.331414, 0.191342, -0.92388), (0.303603, 0.232963, -0.92388), (0.270598, 0.270598, -0.92388), (0.232963, 0.303603, -0.92388), (0.191342, 0.331414, -0.92388), (0.146447, 0.353553, -0.92388), (0.0990458, 0.369644, -0.92388), (0.0499502, 0.37941, -0.92388), (2.34326e-17, 0.382683, -0.92388), (-0.0499502, 0.37941, -0.92388), (-0.0990458, 0.369644, -0.92388), (-0.146447, 0.353553, -0.92388), (-0.191342, 0.331414, -0.92388), (-0.232963, 0.303603, -0.92388), (-0.270598, 0.270598, -0.92388), (-0.303603, 0.232963, -0.92388), (-0.331414, 0.191342, -0.92388), (-0.353553, 0.146447, -0.92388), (-0.369644, 0.0990458, -0.92388), (-0.37941, 0.0499502, -0.92388), (-0.382683, 4.68652e-17, -0.92388), (-0.37941, -0.0499502, -0.92388), (-0.369644, -0.0990458, -0.92388), (-0.353553, -0.146447, -0.92388), (-0.331414, -0.191342, -0.92388), (-0.303603, -0.232963, -0.92388), (-0.270598, -0.270598, -0.92388), (-0.232963, -0.303603, -0.92388), (-0.191342, -0.331414, -0.92388), (-0.146447, -0.353553, -0.92388), (-0.0990458, -0.369644, -0.92388), (-0.0499502, -0.37941, -0.92388), (-7.02978e-17, -0.382683, -0.92388), (0.0499502, -0.37941, -0.92388), (0.0990458, -0.369644, -0.92388), (0.146447, -0.353553, -0.92388), (0.191342, -0.331414, -0.92388), (0.232963, -0.303603, -0.92388), (0.270598, -0.270598, -0.92388), (0.303603, -0.232963, -0.92388), (0.331414, -0.191342, -0.92388), (0.353553, -0.146447, -0.92388), (0.369644, -0.0990458, -0.92388), (0.37941, -0.0499502, -0.92388), (0.258819, 0, -0.965926), (0.256605, 0.0337827, -0.965926), (0.25, 0.0669873, -0.965926), (0.239118, 0.0990458, -0.965926), (0.224144, 0.12941, -0.965926), (0.205335, 0.157559, -0.965926), (0.183013, 0.183013, -0.965926), (0.157559, 0.205335, -0.965926), (0.12941, 0.224144, -0.965926), (0.0990458, 0.239118, -0.965926), (0.0669873, 0.25, -0.965926), (0.0337827, 0.256605, -0.965926), (1.58481e-17, 0.258819, -0.965926), (-0.0337827, 0.256605, -0.965926), (-0.0669873, 0.25, -0.965926), (-0.0990458, 0.239118, -0.965926), (-0.12941, 0.224144, -0.965926), (-0.157559, 0.205335, -0.965926), (-0.183013, 0.183013, -0.965926), (-0.205335, 0.157559, -0.965926), (-0.224144, 0.12941, -0.965926), (-0.239118, 0.0990458, -0.965926), (-0.25, 0.0669873, -0.965926), (-0.256605, 0.0337827, -0.965926), (-0.258819, 3.16962e-17, -0.965926), (-0.256605, -0.0337827, -0.965926), (-0.25, -0.0669873, -0.965926), (-0.239118, -0.0990458, -0.965926), (-0.224144, -0.12941, -0.965926), (-0.205335, -0.157559, -0.965926), (-0.183013, -0.183013, -0.965926), (-0.157559, -0.205335, -0.965926), (-0.12941, -0.224144, -0.965926), (-0.0990458, -0.239118, -0.965926), (-0.0669873, -0.25, -0.965926), (-0.0337827, -0.256605, -0.965926), (-4.75443e-17, -0.258819, -0.965926), (0.0337827, -0.256605, -0.965926), (0.0669873, -0.25, -0.965926), (0.0990458, -0.239118, -0.965926), (0.12941, -0.224144, -0.965926), (0.157559, -0.205335, -0.965926), (0.183013, -0.183013, -0.965926), (0.205335, -0.157559, -0.965926), (0.224144, -0.12941, -0.965926), (0.239118, -0.0990458, -0.965926), (0.25, -0.0669873, -0.965926), (0.256605, -0.0337827, -0.965926), (0.130526, 0, -0.991445), (0.12941, 0.0170371, -0.991445), (0.126079, 0.0337827, -0.991445), (0.12059, 0.0499502, -0.991445), (0.113039, 0.0652631, -0.991445), (0.103553, 0.0794593, -0.991445), (0.092296, 0.092296, -0.991445), (0.0794593, 0.103553, -0.991445), (0.0652631, 0.113039, -0.991445), (0.0499502, 0.12059, -0.991445), (0.0337827, 0.126079, -0.991445), (0.0170371, 0.12941, -0.991445), (7.99242e-18, 0.130526, -0.991445), (-0.0170371, 0.12941, -0.991445), (-0.0337827, 0.126079, -0.991445), (-0.0499502, 0.12059, -0.991445), (-0.0652631, 0.113039, -0.991445), (-0.0794593, 0.103553, -0.991445), (-0.092296, 0.092296, -0.991445), (-0.103553, 0.0794593, -0.991445), (-0.113039, 0.0652631, -0.991445), (-0.12059, 0.0499502, -0.991445), (-0.126079, 0.0337827, -0.991445), (-0.12941, 0.0170371, -0.991445), (-0.130526, 1.59848e-17, -0.991445), (-0.12941, -0.0170371, -0.991445), (-0.126079, -0.0337827, -0.991445), (-0.12059, -0.0499502, -0.991445), (-0.113039, -0.0652631, -0.991445), (-0.103553, -0.0794593, -0.991445), (-0.092296, -0.092296, -0.991445), (-0.0794593, -0.103553, -0.991445), (-0.0652631, -0.113039, -0.991445), (-0.0499502, -0.12059, -0.991445), (-0.0337827, -0.126079, -0.991445), (-0.0170371, -0.12941, -0.991445), (-2.39773e-17, -0.130526, -0.991445), (0.0170371, -0.12941, -0.991445), (0.0337827, -0.126079, -0.991445), (0.0499502, -0.12059, -0.991445), (0.0652631, -0.113039, -0.991445), (0.0794593, -0.103553, -0.991445), (0.092296, -0.092296, -0.991445), (0.103553, -0.0794593, -0.991445), (0.113039, -0.0652631, -0.991445), (0.12059, -0.0499502, -0.991445), (0.126079, -0.0337827, -0.991445), (0.12941, -0.0170371, -0.991445), (1.22465e-16, 0, -1), (1.21417e-16, 1.59848e-17, -1), (1.18292e-16, 3.16962e-17, -1), (1.13143e-16, 4.68652e-17, -1), (1.06058e-16, 6.12323e-17, -1), (9.71578e-17, 7.45518e-17, -1), (8.65956e-17, 8.65956e-17, -1), (7.45518e-17, 9.71578e-17, -1), (6.12323e-17, 1.06058e-16, -1), (4.68652e-17, 1.13143e-16, -1), (3.16962e-17, 1.18292e-16, -1), (1.59848e-17, 1.21417e-16, -1), (7.4988e-33, 1.22465e-16, -1), (-1.59848e-17, 1.21417e-16, -1), (-3.16962e-17, 1.18292e-16, -1), (-4.68652e-17, 1.13143e-16, -1), (-6.12323e-17, 1.06058e-16, -1), (-7.45518e-17, 9.71578e-17, -1), (-8.65956e-17, 8.65956e-17, -1), (-9.71578e-17, 7.45518e-17, -1), (-1.06058e-16, 6.12323e-17, -1), (-1.13143e-16, 4.68652e-17, -1), (-1.18292e-16, 3.16962e-17, -1), (-1.21417e-16, 1.59848e-17, -1), (-1.22465e-16, 1.49976e-32, -1), (-1.21417e-16, -1.59848e-17, -1), (-1.18292e-16, -3.16962e-17, -1), (-1.13143e-16, -4.68652e-17, -1), (-1.06058e-16, -6.12323e-17, -1), (-9.71578e-17, -7.45518e-17, -1), (-8.65956e-17, -8.65956e-17, -1), (-7.45518e-17, -9.71578e-17, -1), (-6.12323e-17, -1.06058e-16, -1), (-4.68652e-17, -1.13143e-16, -1), (-3.16962e-17, -1.18292e-16, -1), (-1.59848e-17, -1.21417e-16, -1), (-2.24964e-32, -1.22465e-16, -1), (1.59848e-17, -1.21417e-16, -1), (3.16962e-17, -1.18292e-16, -1), (4.68652e-17, -1.13143e-16, -1), (6.12323e-17, -1.06058e-16, -1), (7.45518e-17, -9.71578e-17, -1), (8.65956e-17, -8.65956e-17, -1), (9.71578e-17, -7.45518e-17, -1), (1.06058e-16, -6.12323e-17, -1), (1.13143e-16, -4.68652e-17, -1), (1.18292e-16, -3.16962e-17, -1), (1.21417e-16, -1.59848e-17, -1)]
    }
}
