#usda 1.0
(
    defaultPrim = "World"
    upAxis = "Y"
)

def Xform "World"
{
    def BasisCurves "RibbonCurves"
    {
        uniform token type = "linear"
        uniform token basis = "bezier"
        uniform token wrap = "nonperiodic"
        int[] curveVertexCounts = [5, 5, 4]
        point3f[] points = [
            (-1.8, 0.0, -0.4), (-1.1, 0.35, -0.15), (-0.4, 0.0, 0.15), (0.3, 0.35, 0.35), (1.0, 0.0, 0.55),
            (-1.6, -0.55, 0.5), (-0.9, -0.2, 0.15), (-0.2, -0.55, -0.15), (0.5, -0.2, -0.35), (1.2, -0.55, -0.55),
            (-1.2, 0.75, 0.65), (-0.35, 1.05, 0.35), (0.55, 0.8, 0.0), (1.35, 1.1, -0.25)
        ]
        float[] widths = [0.08, 0.18, 0.11]
    }
}
