#usda 1.0
(
    defaultPrim = "root"
    doc = "Blender v4.5.1 LTS"
    metersPerUnit = 1
    upAxis = "Z"
)

def Xform "root" (
    customData = {
        dictionary Blender = {
            bool generated = 1
        }
    }
)
{
    def Xform "Light"
    {
        custom string userProperties:blender:object_name = "Light"
        float3 xformOp:rotateXYZ = (37.261047, 3.1637092, 106.936325)
        float3 xformOp:scale = (1, 0.99999994, 1)
        double3 xformOp:translate = (4.076245307922363, 1.0054539442062378, 5.903861999511719)
        uniform token[] xformOpOrder = ["xformOp:translate", "xformOp:rotateXYZ", "xformOp:scale"]

        def SphereLight "Light"
        {
            float3[] extent = [(-0.1, -0.1, -0.1), (0.1, 0.1, 0.1)]
            bool inputs:enableColorTemperature = 1
            float inputs:intensity = 318.30988
            bool inputs:normalize = 1
            float inputs:radius = 0.1
            custom string userProperties:blender:data_name = "Light"
        }
    }

    def Xform "Camera"
    {
        custom string userProperties:blender:object_name = "Camera"
        float3 xformOp:rotateXYZ = (63.559296, 2.2983238e-7, 46.691944)
        float3 xformOp:scale = (1, 1, 1)
        double3 xformOp:translate = (7.358891487121582, -6.925790786743164, 4.958309173583984)
        uniform token[] xformOpOrder = ["xformOp:translate", "xformOp:rotateXYZ", "xformOp:scale"]

        def Camera "Camera"
        {
            float2 clippingRange = (0.1, 100)
            float focalLength = 0.5
            float horizontalAperture = 0.36
            token projection = "perspective"
            custom string userProperties:blender:data_name = "Camera"
            float verticalAperture = 0.2025
        }
    }

    def Xform "Icosphere"
    {
        custom string userProperties:blender:object_name = "Icosphere"

        def Mesh "Icosphere" (
            active = true
            prepend apiSchemas = ["MaterialBindingAPI"]
        )
        {
            uniform bool doubleSided = 1
            float3[] extent = [(-0.99999994, -0.99999994, -1), (1, 0.99999994, 1)]
            int[] faceVertexCounts = [3, 3, 3, 3, 3, 3, 3, 3, 3, 3, 3, 3, 3, 3, 3, 3, 3, 3, 3, 3, 3, 3, 3, 3, 3, 3, 3, 3, 3, 3, 3, 3, 3, 3, 3, 3, 3, 3, 3, 3, 3, 3, 3, 3, 3, 3, 3, 3, 3, 3, 3, 3, 3, 3, 3, 3, 3, 3, 3, 3, 3, 3, 3, 3, 3, 3, 3, 3, 3, 3, 3, 3, 3, 3, 3, 3, 3, 3, 3, 3, 3, 3, 3, 3, 3, 3, 3, 3, 3, 3, 3, 3, 3, 3, 3, 3, 3, 3, 3, 3, 3, 3, 3, 3, 3, 3, 3, 3, 3, 3, 3, 3, 3, 3, 3, 3, 3, 3, 3, 3, 3, 3, 3, 3, 3, 3, 3, 3, 3, 3, 3, 3, 3, 3, 3, 3, 3, 3, 3, 3, 3, 3, 3, 3, 3, 3, 3, 3, 3, 3, 3, 3, 3, 3, 3, 3, 3, 3, 3, 3, 3, 3, 3, 3, 3, 3, 3, 3, 3, 3, 3, 3, 3, 3, 3, 3, 3, 3, 3, 3, 3, 3, 3, 3, 3, 3, 3, 3, 3, 3, 3, 3, 3, 3, 3, 3, 3, 3, 3, 3, 3, 3, 3, 3, 3, 3, 3, 3, 3, 3, 3, 3, 3, 3, 3, 3, 3, 3, 3, 3, 3, 3, 3, 3, 3, 3, 3, 3, 3, 3, 3, 3, 3, 3, 3, 3, 3, 3, 3, 3, 3, 3, 3, 3, 3, 3, 3, 3, 3, 3, 3, 3, 3, 3, 3, 3, 3, 3, 3, 3, 3, 3, 3, 3, 3, 3, 3, 3, 3, 3, 3, 3, 3, 3, 3, 3, 3, 3, 3, 3, 3, 3, 3, 3, 3, 3, 3, 3, 3, 3, 3, 3, 3, 3, 3, 3, 3, 3, 3, 3, 3, 3, 3, 3, 3, 3, 3, 3, 3, 3, 3, 3, 3, 3, 3, 3, 3, 3, 3, 3]
            int[] faceVertexIndices = [0, 15, 14, 1, 17, 23, 0, 14, 29, 0, 29, 35, 0, 35, 24, 1, 23, 44, 2, 20, 50, 3, 32, 56, 4, 38, 62, 5, 41, 68, 1, 44, 51, 2, 50, 57, 3, 56, 63, 4, 62, 69, 5, 68, 45, 6, 74, 89, 7, 77, 95, 8, 80, 98, 9, 83, 101, 10, 86, 90, 92, 99, 11, 91, 102, 92, 90, 103, 91, 92, 102, 99, 102, 100, 99, 91, 103, 102, 103, 104, 102, 102, 104, 100, 104, 101, 100, 90, 86, 103, 86, 85, 103, 103, 85, 104, 85, 84, 104, 104, 84, 101, 84, 9, 101, 99, 96, 11, 100, 105, 99, 101, 106, 100, 99, 105, 96, 105, 97, 96, 100, 106, 105, 106, 107, 105, 105, 107, 97, 107, 98, 97, 101, 83, 106, 83, 82, 106, 106, 82, 107, 82, 81, 107, 107, 81, 98, 81, 8, 98, 96, 93, 11, 97, 108, 96, 98, 109, 97, 96, 108, 93, 108, 94, 93, 97, 109, 108, 109, 110, 108, 108, 110, 94, 110, 95, 94, 98, 80, 109, 80, 79, 109, 109, 79, 110, 79, 78, 110, 110, 78, 95, 78, 7, 95, 93, 87, 11, 94, 111, 93, 95, 112, 94, 93, 111, 87, 111, 88, 87, 94, 112, 111, 112, 113, 111, 111, 113, 88, 113, 89, 88, 95, 77, 112, 77, 76, 112, 112, 76, 113, 76, 75, 113, 113, 75, 89, 75, 6, 89, 87, 92, 11, 88, 114, 87, 89, 115, 88, 87, 114, 92, 114, 91, 92, 88, 115, 114, 115, 116, 114, 114, 116, 91, 116, 90, 91, 89, 74, 115, 74, 73, 115, 115, 73, 116, 73, 72, 116, 116, 72, 90, 72, 10, 90, 47, 86, 10, 46, 117, 47, 45, 118, 46, 47, 117, 86, 117, 85, 86, 46, 118, 117, 118, 119, 117, 117, 119, 85, 119, 84, 85, 45, 68, 118, 68, 67, 118, 118, 67, 119, 67, 66, 119, 119, 66, 84, 66, 9, 84, 71, 83, 9, 70, 120, 71, 69, 121, 70, 71, 120, 83, 120, 82, 83, 70, 121, 120, 121, 122, 120, 120, 122, 82, 122, 81, 82, 69, 62, 121, 62, 61, 121, 121, 61, 122, 61, 60, 122, 122, 60, 81, 60, 8, 81, 65, 80, 8, 64, 123, 65, 63, 124, 64, 65, 123, 80, 123, 79, 80, 64, 124, 123, 124, 125, 123, 123, 125, 79, 125, 78, 79, 63, 56, 124, 56, 55, 124, 124, 55, 125, 55, 54, 125, 125, 54, 78, 54, 7, 78, 59, 77, 7, 58, 126, 59, 57, 127, 58, 59, 126, 77, 126, 76, 77, 58, 127, 126, 127, 128, 126, 126, 128, 76, 128, 75, 76, 57, 50, 127, 50, 49, 127, 127, 49, 128, 49, 48, 128, 128, 48, 75, 48, 6, 75, 53, 74, 6, 52, 129, 53, 51, 130, 52, 53, 129, 74, 129, 73, 74, 52, 130, 129, 130, 131, 129, 129, 131, 73, 131, 72, 73, 51, 44, 130, 44, 43, 130, 130, 43, 131, 43, 42, 131, 131, 42, 72, 42, 10, 72, 66, 71, 9, 67, 132, 66, 68, 133, 67, 66, 132, 71, 132, 70, 71, 67, 133, 132, 133, 134, 132, 132, 134, 70, 134, 69, 70, 68, 41, 133, 41, 40, 133, 133, 40, 134, 40, 39, 134, 134, 39, 69, 39, 4, 69, 60, 65, 8, 61, 135, 60, 62, 136, 61, 60, 135, 65, 135, 64, 65, 61, 136, 135, 136, 137, 135, 135, 137, 64, 137, 63, 64, 62, 38, 136, 38, 37, 136, 136, 37, 137, 37, 36, 137, 137, 36, 63, 36, 3, 63, 54, 59, 7, 55, 138, 54, 56, 139, 55, 54, 138, 59, 138, 58, 59, 55, 139, 138, 139, 140, 138, 138, 140, 58, 140, 57, 58, 56, 32, 139, 32, 31, 139, 139, 31, 140, 31, 30, 140, 140, 30, 57, 30, 2, 57, 48, 53, 6, 49, 141, 48, 50, 142, 49, 48, 141, 53, 141, 52, 53, 49, 142, 141, 142, 143, 141, 141, 143, 52, 143, 51, 52, 50, 20, 142, 20, 19, 142, 142, 19, 143, 19, 18, 143, 143, 18, 51, 18, 1, 51, 42, 47, 10, 43, 144, 42, 44, 145, 43, 42, 144, 47, 144, 46, 47, 43, 145, 144, 145, 146, 144, 144, 146, 46, 146, 45, 46, 44, 23, 145, 23, 22, 145, 145, 22, 146, 22, 21, 146, 146, 21, 45, 21, 5, 45, 26, 41, 5, 25, 147, 26, 24, 148, 25, 26, 147, 41, 147, 40, 41, 25, 148, 147, 148, 149, 147, 147, 149, 40, 149, 39, 40, 24, 35, 148, 35, 34, 148, 148, 34, 149, 34, 33, 149, 149, 33, 39, 33, 4, 39, 33, 38, 4, 34, 150, 33, 35, 151, 34, 33, 150, 38, 150, 37, 38, 34, 151, 150, 151, 152, 150, 150, 152, 37, 152, 36, 37, 35, 29, 151, 29, 28, 151, 151, 28, 152, 28, 27, 152, 152, 27, 36, 27, 3, 36, 27, 32, 3, 28, 153, 27, 29, 154, 28, 27, 153, 32, 153, 31, 32, 28, 154, 153, 154, 155, 153, 153, 155, 31, 155, 30, 31, 29, 14, 154, 14, 13, 154, 154, 13, 155, 13, 12, 155, 155, 12, 30, 12, 2, 30, 21, 26, 5, 22, 156, 21, 23, 157, 22, 21, 156, 26, 156, 25, 26, 22, 157, 156, 157, 158, 156, 156, 158, 25, 158, 24, 25, 23, 17, 157, 17, 16, 157, 157, 16, 158, 16, 15, 158, 158, 15, 24, 15, 0, 24, 12, 20, 2, 13, 159, 12, 14, 160, 13, 12, 159, 20, 159, 19, 20, 13, 160, 159, 160, 161, 159, 159, 161, 19, 161, 18, 19, 14, 15, 160, 15, 16, 160, 160, 16, 161, 16, 17, 161, 161, 17, 18, 17, 1, 18]
            rel material:binding = </root/_materials/Material_001>
            normal3f[] normals = [(-5.6952115e-7, 0, -1), (0.21095031, -0.15326287, -0.9654069), (-0.080574796, -0.24798612, -0.9654069), (0.72360754, -0.5257258, -0.4472187), (0.6042323, -0.43899587, -0.6649707), (0.8151844, -0.2857323, -0.5038169), (-5.6952115e-7, 0, -1), (-0.080574796, -0.24798612, -0.9654069), (-0.2607502, -2.3119095e-7, -0.96540636), (-5.6952115e-7, 0, -1), (-0.2607502, -2.3119095e-7, -0.96540636), (-0.080574796, 0.247986, -0.96540695), (-5.6952115e-7, 0, -1), (-0.080574796, 0.247986, -0.96540695), (0.21095045, 0.15326305, -0.96540684), (0.72360754, -0.5257258, -0.4472187), (0.8151844, -0.2857323, -0.5038169), (0.8649862, -0.43899736, -0.24306445), (-0.27638865, -0.8506493, -0.44721937), (-0.019839942, -0.8635817, -0.50381845), (-0.15021753, -0.958308, -0.2430649), (-0.89442617, 4.8469904e-9, -0.44721565), (-0.8274494, -0.24798721, -0.5038153), (-0.95782584, -0.1532645, -0.24306318), (-0.2763887, 0.8506493, -0.4472194), (-0.49154493, 0.71031725, -0.5038184), (-0.44174662, 0.863585, -0.24306563), (0.7236075, 0.52572596, -0.44721872), (0.5236591, 0.686985, -0.50381815), (0.6848122, 0.6869873, -0.24306516), (0.72360754, -0.5257258, -0.4472187), (0.8649862, -0.43899736, -0.24306445), (0.6848119, -0.6869875, -0.24306549), (-0.27638865, -0.8506493, -0.44721937), (-0.15021753, -0.958308, -0.2430649), (-0.44174653, -0.863585, -0.24306563), (-0.89442617, 4.8469904e-9, -0.44721565), (-0.95782584, -0.1532645, -0.24306318), (-0.95782584, 0.15326428, -0.24306306), (-0.2763887, 0.8506493, -0.4472194), (-0.44174662, 0.863585, -0.24306563), (-0.15021753, 0.95830786, -0.24306497), (0.7236075, 0.52572596, -0.44721872), (0.6848122, 0.6869873, -0.24306516), (0.8649861, 0.43899748, -0.24306427), (0.2763886, -0.8506491, 0.44721952), (0.49154523, -0.7103173, 0.50381804), (0.2307922, -0.71031576, 0.66497105), (-0.7236075, -0.52572596, 0.44721872), (-0.523659, -0.68698525, 0.503818), (-0.6042324, -0.43899572, 0.66497076), (-0.7236075, 0.52572584, 0.44721872), (-0.81518424, 0.2857321, 0.50381726), (-0.60423243, 0.4389957, 0.6649707), (0.27638862, 0.85064924, 0.44721943), (0.01983986, 0.86358166, 0.5038185), (0.23079218, 0.71031576, 0.66497105), (0.89442617, 9.693981e-9, 0.4472157), (0.8274492, 0.24798721, 0.5038156), (0.74687254, -2.7986276e-8, 0.6649672), (0.2607499, 9.734354e-9, 0.96540636), (0.08057488, 0.24798587, 0.965407), (5.598272e-7, -3.6352414e-9, 1), (0.5257297, 1.2210151e-9, 0.8506517), (0.36820653, 0.26751748, 0.890426), (0.2607499, 9.734354e-9, 0.96540636), (0.74687254, -2.7986276e-8, 0.6649672), (0.63174826, 0.26751855, 0.7275493), (0.5257297, 1.2210151e-9, 0.8506517), (0.2607499, 9.734354e-9, 0.96540636), (0.36820653, 0.26751748, 0.890426), (0.08057488, 0.24798587, 0.965407), (0.36820653, 0.26751748, 0.890426), (0.16245624, 0.4999955, 0.8506542), (0.08057488, 0.24798587, 0.965407), (0.5257297, 1.2210151e-9, 0.8506517), (0.63174826, 0.26751855, 0.7275493), (0.36820653, 0.26751748, 0.890426), (0.63174826, 0.26751855, 0.7275493), (0.44964424, 0.51816016, 0.7275508), (0.36820653, 0.26751748, 0.890426), (0.36820653, 0.26751748, 0.890426), (0.44964424, 0.51816016, 0.7275508), (0.16245624, 0.4999955, 0.8506542), (0.44964424, 0.51816016, 0.7275508), (0.23079218, 0.71031576, 0.66497105), (0.16245624, 0.4999955, 0.8506542), (0.74687254, -2.7986276e-8, 0.6649672), (0.8274492, 0.24798721, 0.5038156), (0.63174826, 0.26751855, 0.7275493), (0.8274492, 0.24798721, 0.5038156), (0.68818927, 0.49999747, 0.5257357), (0.63174826, 0.26751855, 0.7275493), (0.63174826, 0.26751855, 0.7275493), (0.68818927, 0.49999747, 0.5257357), (0.44964424, 0.51816016, 0.7275508), (0.68818927, 0.49999747, 0.5257357), (0.491545, 0.71031743, 0.50381815), (0.44964424, 0.51816016, 0.7275508), (0.44964424, 0.51816016, 0.7275508), (0.491545, 0.71031743, 0.50381815), (0.23079218, 0.71031576, 0.66497105), (0.491545, 0.71031743, 0.50381815), (0.27638862, 0.85064924, 0.44721943), (0.23079218, 0.71031576, 0.66497105), (0.08057488, 0.24798587, 0.965407), (-0.21095009, 0.15326281, 0.9654069), (5.598272e-7, -3.6352414e-9, 1), (0.16245624, 0.4999955, 0.8506542), (-0.14064434, 0.4328505, 0.89042664), (0.08057488, 0.24798587, 0.965407), (0.23079218, 0.71031576, 0.66497105), (-0.059207916, 0.6834936, 0.72755134), (0.16245624, 0.4999955, 0.8506542), (0.08057488, 0.24798587, 0.965407), (-0.14064434, 0.4328505, 0.89042664), (-0.21095009, 0.15326281, 0.9654069), (-0.14064434, 0.4328505, 0.89042664), (-0.42532286, 0.3090119, 0.85065395), (-0.21095009, 0.15326281, 0.9654069), (0.16245624, 0.4999955, 0.8506542), (-0.059207916, 0.6834936, 0.72755134), (-0.14064434, 0.4328505, 0.89042664), (-0.059207916, 0.6834936, 0.72755134), (-0.3538539, 0.5877556, 0.72755116), (-0.14064434, 0.4328505, 0.89042664), (-0.14064434, 0.4328505, 0.89042664), (-0.3538539, 0.5877556, 0.72755116), (-0.42532286, 0.3090119, 0.85065395), (-0.3538539, 0.5877556, 0.72755116), (-0.60423243, 0.4389957, 0.6649707), (-0.42532286, 0.3090119, 0.85065395), (0.23079218, 0.71031576, 0.66497105), (0.01983986, 0.86358166, 0.5038185), (-0.059207916, 0.6834936, 0.72755134), (0.01983986, 0.86358166, 0.5038185), (-0.26286894, 0.8090121, 0.52573687), (-0.059207916, 0.6834936, 0.72755134), (-0.059207916, 0.6834936, 0.72755134), (-0.26286894, 0.8090121, 0.52573687), (-0.3538539, 0.5877556, 0.72755116), (-0.26286894, 0.8090121, 0.52573687), (-0.5236589, 0.68698514, 0.50381815), (-0.3538539, 0.5877556, 0.72755116), (-0.3538539, 0.5877556, 0.72755116), (-0.5236589, 0.68698514, 0.50381815), (-0.60423243, 0.4389957, 0.6649707), (-0.5236589, 0.68698514, 0.50381815), (-0.7236075, 0.52572584, 0.44721872), (-0.60423243, 0.4389957, 0.6649707), (-0.21095009, 0.15326281, 0.9654069), (-0.21095006, -0.15326278, 0.9654069), (5.598272e-7, -3.6352414e-9, 1), (-0.42532286, 0.3090119, 0.85065395), (-0.45512825, 0, 0.89042586), (-0.21095009, 0.15326281, 0.9654069), (-0.60423243, 0.4389957, 0.6649707), (-0.6683382, 0.15490344, 0.72755), (-0.42532286, 0.3090119, 0.85065395), (-0.21095009, 0.15326281, 0.9654069), (-0.45512825, 0, 0.89042586), (-0.21095006, -0.15326278, 0.9654069), (-0.45512825, 0, 0.89042586), (-0.42532283, -0.30901185, 0.8506539), (-0.21095006, -0.15326278, 0.9654069), (-0.42532286, 0.3090119, 0.85065395), (-0.6683382, 0.15490344, 0.72755), (-0.45512825, 0, 0.89042586), (-0.6683382, 0.15490344, 0.72755), (-0.6683382, -0.15490346, 0.72755), (-0.45512825, 0, 0.89042586), (-0.45512825, 0, 0.89042586), (-0.6683382, -0.15490346, 0.72755), (-0.42532283, -0.30901185, 0.8506539), (-0.6683382, -0.15490346, 0.72755), (-0.6042324, -0.43899572, 0.66497076), (-0.42532283, -0.30901185, 0.8506539), (-0.60423243, 0.4389957, 0.6649707), (-0.81518424, 0.2857321, 0.50381726), (-0.6683382, 0.15490344, 0.72755), (-0.81518424, 0.2857321, 0.50381726), (-0.85064816, 3.4188417e-8, 0.5257354), (-0.6683382, 0.15490344, 0.72755), (-0.6683382, 0.15490344, 0.72755), (-0.85064816, 3.4188417e-8, 0.5257354), (-0.6683382, -0.15490346, 0.72755), (-0.85064816, 3.4188417e-8, 0.5257354), (-0.8151842, -0.28573218, 0.50381726), (-0.6683382, -0.15490346, 0.72755), (-0.6683382, -0.15490346, 0.72755), (-0.8151842, -0.28573218, 0.50381726), (-0.6042324, -0.43899572, 0.66497076), (-0.8151842, -0.28573218, 0.50381726), (-0.7236075, -0.52572596, 0.44721872), (-0.6042324, -0.43899572, 0.66497076), (-0.21095006, -0.15326278, 0.9654069), (0.08057486, -0.24798584, 0.9654071), (5.598272e-7, -3.6352414e-9, 1), (-0.42532283, -0.30901185, 0.8506539), (-0.14064434, -0.4328505, 0.89042664), (-0.21095006, -0.15326278, 0.9654069), (-0.6042324, -0.43899572, 0.66497076), (-0.35385382, -0.5877556, 0.7275512), (-0.42532283, -0.30901185, 0.8506539), (-0.21095006, -0.15326278, 0.9654069), (-0.14064434, -0.4328505, 0.89042664), (0.08057486, -0.24798584, 0.9654071), (-0.14064434, -0.4328505, 0.89042664), (0.1624562, -0.49999547, 0.8506542), (0.08057486, -0.24798584, 0.9654071), (-0.42532283, -0.30901185, 0.8506539), (-0.35385382, -0.5877556, 0.7275512), (-0.14064434, -0.4328505, 0.89042664), (-0.35385382, -0.5877556, 0.7275512), (-0.05920777, -0.6834936, 0.72755134), (-0.14064434, -0.4328505, 0.89042664), (-0.14064434, -0.4328505, 0.89042664), (-0.05920777, -0.6834936, 0.72755134), (0.1624562, -0.49999547, 0.8506542), (-0.05920777, -0.6834936, 0.72755134), (0.2307922, -0.71031576, 0.66497105), (0.1624562, -0.49999547, 0.8506542), (-0.6042324, -0.43899572, 0.66497076), (-0.523659, -0.68698525, 0.503818), (-0.35385382, -0.5877556, 0.7275512), (-0.523659, -0.68698525, 0.503818), (-0.26286894, -0.80901223, 0.52573675), (-0.35385382, -0.5877556, 0.7275512), (-0.35385382, -0.5877556, 0.7275512), (-0.26286894, -0.80901223, 0.52573675), (-0.05920777, -0.6834936, 0.72755134), (-0.26286894, -0.80901223, 0.52573675), (0.019839883, -0.86358166, 0.50381845), (-0.05920777, -0.6834936, 0.72755134), (-0.05920777, -0.6834936, 0.72755134), (0.019839883, -0.86358166, 0.50381845), (0.2307922, -0.71031576, 0.66497105), (0.019839883, -0.86358166, 0.50381845), (0.2763886, -0.8506491, 0.44721952), (0.2307922, -0.71031576, 0.66497105), (0.08057486, -0.24798584, 0.9654071), (0.2607499, 9.734354e-9, 0.96540636), (5.598272e-7, -3.6352414e-9, 1), (0.1624562, -0.49999547, 0.8506542), (0.3682065, -0.26751742, 0.890426), (0.08057486, -0.24798584, 0.9654071), (0.2307922, -0.71031576, 0.66497105), (0.44964424, -0.51816016, 0.72755075), (0.1624562, -0.49999547, 0.8506542), (0.08057486, -0.24798584, 0.9654071), (0.3682065, -0.26751742, 0.890426), (0.2607499, 9.734354e-9, 0.96540636), (0.3682065, -0.26751742, 0.890426), (0.5257297, 1.2210151e-9, 0.8506517), (0.2607499, 9.734354e-9, 0.96540636), (0.1624562, -0.49999547, 0.8506542), (0.44964424, -0.51816016, 0.72755075), (0.3682065, -0.26751742, 0.890426), (0.44964424, -0.51816016, 0.72755075), (0.63174826, -0.26751846, 0.7275493), (0.3682065, -0.26751742, 0.890426), (0.3682065, -0.26751742, 0.890426), (0.63174826, -0.26751846, 0.7275493), (0.5257297, 1.2210151e-9, 0.8506517), (0.63174826, -0.26751846, 0.7275493), (0.74687254, -2.7986276e-8, 0.6649672), (0.5257297, 1.2210151e-9, 0.8506517), (0.2307922, -0.71031576, 0.66497105), (0.49154523, -0.7103173, 0.50381804), (0.44964424, -0.51816016, 0.72755075), (0.49154523, -0.7103173, 0.50381804), (0.68818945, -0.4999976, 0.5257353), (0.44964424, -0.51816016, 0.72755075), (0.44964424, -0.51816016, 0.72755075), (0.68818945, -0.4999976, 0.5257353), (0.63174826, -0.26751846, 0.7275493), (0.68818945, -0.4999976, 0.5257353), (0.8274493, -0.24798746, 0.5038153), (0.63174826, -0.26751846, 0.7275493), (0.63174826, -0.26751846, 0.7275493), (0.8274493, -0.24798746, 0.5038153), (0.74687254, -2.7986276e-8, 0.6649672), (0.8274493, -0.24798746, 0.5038153), (0.89442617, 9.693981e-9, 0.4472157), (0.74687254, -2.7986276e-8, 0.6649672), (0.95782584, 0.15326396, 0.2430632), (0.8274492, 0.24798721, 0.5038156), (0.89442617, 9.693981e-9, 0.4472157), (0.95105755, 0.30901372, 1.4652184e-8), (0.8593178, 0.43285346, 0.27241677), (0.95782584, 0.15326396, 0.2430632), (0.8649861, 0.43899748, -0.24306427), (0.80898696, 0.5877595, 0.00887248), (0.95105755, 0.30901372, 1.4652184e-8), (0.95782584, 0.15326396, 0.2430632), (0.8593178, 0.43285346, 0.27241677), (0.8274492, 0.24798721, 0.5038156), (0.8593178, 0.43285346, 0.27241677), (0.68818927, 0.49999747, 0.5257357), (0.8274492, 0.24798721, 0.5038156), (0.95105755, 0.30901372, 1.4652184e-8), (0.80898696, 0.5877595, 0.00887248), (0.8593178, 0.43285346, 0.27241677), (0.80898696, 0.5877595, 0.00887248), (0.67721426, 0.6834978, 0.27241787), (0.8593178, 0.43285346, 0.27241677), (0.8593178, 0.43285346, 0.27241677), (0.67721426, 0.6834978, 0.27241787), (0.68818927, 0.49999747, 0.5257357), (0.67721426, 0.6834978, 0.27241787), (0.491545, 0.71031743, 0.50381815), (0.68818927, 0.49999747, 0.5257357), (0.8649861, 0.43899748, -0.24306427), (0.6848122, 0.6869873, -0.24306516), (0.80898696, 0.5877595, 0.00887248), (0.6848122, 0.6869873, -0.24306516), (0.587786, 0.8090164, 2.8083372e-7), (0.80898696, 0.5877595, 0.00887248), (0.80898696, 0.5877595, 0.00887248), (0.587786, 0.8090164, 2.8083372e-7), (0.67721426, 0.6834978, 0.27241787), (0.587786, 0.8090164, 2.8083372e-7), (0.44174683, 0.8635849, 0.2430657), (0.67721426, 0.6834978, 0.27241787), (0.67721426, 0.6834978, 0.27241787), (0.44174683, 0.8635849, 0.2430657), (0.491545, 0.71031743, 0.50381815), (0.44174683, 0.8635849, 0.2430657), (0.27638862, 0.85064924, 0.44721943), (0.491545, 0.71031743, 0.50381815), (0.15021768, 0.958308, 0.2430649), (0.01983986, 0.86358166, 0.5038185), (0.27638862, 0.85064924, 0.44721943), (1.4325947e-7, 1, -1.2210157e-7), (-0.14612931, 0.9510177, 0.27241784), (0.15021768, 0.958308, 0.2430649), (-0.15021753, 0.95830786, -0.24306497), (-0.30900463, 0.9510191, 0.008872091), (1.4325947e-7, 1, -1.2210157e-7), (0.15021768, 0.958308, 0.2430649), (-0.14612931, 0.9510177, 0.27241784), (0.01983986, 0.86358166, 0.5038185), (-0.14612931, 0.9510177, 0.27241784), (-0.26286894, 0.8090121, 0.52573687), (0.01983986, 0.86358166, 0.5038185), (1.4325947e-7, 1, -1.2210157e-7), (-0.30900463, 0.9510191, 0.008872091), (-0.14612931, 0.9510177, 0.27241784), (-0.30900463, 0.9510191, 0.008872091), (-0.44077724, 0.85528, 0.27241805), (-0.14612931, 0.9510177, 0.27241784), (-0.14612931, 0.9510177, 0.27241784), (-0.44077724, 0.85528, 0.27241805), (-0.26286894, 0.8090121, 0.52573687), (-0.44077724, 0.85528, 0.27241805), (-0.5236589, 0.68698514, 0.50381815), (-0.26286894, 0.8090121, 0.52573687), (-0.15021753, 0.95830786, -0.24306497), (-0.44174662, 0.863585, -0.24306563), (-0.30900463, 0.9510191, 0.008872091), (-0.44174662, 0.863585, -0.24306563), (-0.5877858, 0.8090166, -1.3309075e-7), (-0.30900463, 0.9510191, 0.008872091), (-0.30900463, 0.9510191, 0.008872091), (-0.5877858, 0.8090166, -1.3309075e-7), (-0.44077724, 0.85528, 0.27241805), (-0.5877858, 0.8090166, -1.3309075e-7), (-0.68481195, 0.6869876, 0.24306525), (-0.44077724, 0.85528, 0.27241805), (-0.44077724, 0.85528, 0.27241805), (-0.68481195, 0.6869876, 0.24306525), (-0.5236589, 0.68698514, 0.50381815), (-0.68481195, 0.6869876, 0.24306525), (-0.7236075, 0.52572584, 0.44721872), (-0.5236589, 0.68698514, 0.50381815), (-0.8649862, 0.43899736, 0.2430641), (-0.81518424, 0.2857321, 0.50381726), (-0.7236075, 0.52572584, 0.44721872), (-0.95105755, 0.3090138, -2.3443496e-7), (-0.94962823, 0.15490404, 0.27241698), (-0.8649862, 0.43899736, 0.2430641), (-0.95782584, 0.15326428, -0.24306306), (-0.99996066, -1.856743e-7, 0.0088734515), (-0.95105755, 0.3090138, -2.3443496e-7), (-0.8649862, 0.43899736, 0.2430641), (-0.94962823, 0.15490404, 0.27241698), (-0.81518424, 0.2857321, 0.50381726), (-0.94962823, 0.15490404, 0.27241698), (-0.85064816, 3.4188417e-8, 0.5257354), (-0.81518424, 0.2857321, 0.50381726), (-0.95105755, 0.3090138, -2.3443496e-7), (-0.99996066, -1.856743e-7, 0.0088734515), (-0.94962823, 0.15490404, 0.27241698), (-0.99996066, -1.856743e-7, 0.0088734515), (-0.94962806, -0.15490407, 0.2724175), (-0.94962823, 0.15490404, 0.27241698), (-0.94962823, 0.15490404, 0.27241698), (-0.94962806, -0.15490407, 0.2724175), (-0.85064816, 3.4188417e-8, 0.5257354), (-0.94962806, -0.15490407, 0.2724175), (-0.8151842, -0.28573218, 0.50381726), (-0.85064816, 3.4188417e-8, 0.5257354), (-0.95782584, 0.15326428, -0.24306306), (-0.95782584, -0.1532645, -0.24306318), (-0.99996066, -1.856743e-7, 0.0088734515), (-0.95782584, -0.1532645, -0.24306318), (-0.95105755, -0.3090139, -8.180804e-8), (-0.99996066, -1.856743e-7, 0.0088734515), (-0.99996066, -1.856743e-7, 0.0088734515), (-0.95105755, -0.3090139, -8.180804e-8), (-0.94962806, -0.15490407, 0.2724175), (-0.95105755, -0.3090139, -8.180804e-8), (-0.8649861, -0.43899748, 0.2430641), (-0.94962806, -0.15490407, 0.2724175), (-0.94962806, -0.15490407, 0.2724175), (-0.8649861, -0.43899748, 0.2430641), (-0.8151842, -0.28573218, 0.50381726), (-0.8649861, -0.43899748, 0.2430641), (-0.7236075, -0.52572596, 0.44721872), (-0.8151842, -0.28573218, 0.50381726), (-0.684812, -0.6869875, 0.24306534), (-0.523659, -0.68698525, 0.503818), (-0.7236075, -0.52572596, 0.44721872), (-0.5877859, -0.8090165, -1.7094225e-8), (-0.4407779, -0.8552797, 0.27241787), (-0.684812, -0.6869875, 0.24306534), (-0.44174653, -0.863585, -0.24306563), (-0.30900514, -0.9510189, 0.008871999), (-0.5877859, -0.8090165, -1.7094225e-8), (-0.684812, -0.6869875, 0.24306534), (-0.4407779, -0.8552797, 0.27241787), (-0.523659, -0.68698525, 0.503818), (-0.4407779, -0.8552797, 0.27241787), (-0.26286894, -0.80901223, 0.52573675), (-0.523659, -0.68698525, 0.503818), (-0.5877859, -0.8090165, -1.7094225e-8), (-0.30900514, -0.9510189, 0.008871999), (-0.4407779, -0.8552797, 0.27241787), (-0.30900514, -0.9510189, 0.008871999), (-0.14613, -0.9510176, 0.27241772), (-0.4407779, -0.8552797, 0.27241787), (-0.4407779, -0.8552797, 0.27241787), (-0.14613, -0.9510176, 0.27241772), (-0.26286894, -0.80901223, 0.52573675), (-0.14613, -0.9510176, 0.27241772), (0.019839883, -0.86358166, 0.50381845), (-0.26286894, -0.80901223, 0.52573675), (-0.44174653, -0.863585, -0.24306563), (-0.15021753, -0.958308, -0.2430649), (-0.30900514, -0.9510189, 0.008871999), (-0.15021753, -0.958308, -0.2430649), (5.128266e-8, -1, -1.9292048e-7), (-0.30900514, -0.9510189, 0.008871999), (-0.30900514, -0.9510189, 0.008871999), (5.128266e-8, -1, -1.9292048e-7), (-0.14613, -0.9510176, 0.27241772), (5.128266e-8, -1, -1.9292048e-7), (0.1502176, -0.958308, 0.24306503), (-0.14613, -0.9510176, 0.27241772), (-0.14613, -0.9510176, 0.27241772), (0.1502176, -0.958308, 0.24306503), (0.019839883, -0.86358166, 0.50381845), (0.1502176, -0.958308, 0.24306503), (0.2763886, -0.8506491, 0.44721952), (0.019839883, -0.86358166, 0.50381845), (0.4417468, -0.8635848, 0.24306585), (0.49154523, -0.7103173, 0.50381804), (0.2763886, -0.8506491, 0.44721952), (0.5877858, -0.8090165, 1.3186973e-7), (0.67721415, -0.68349826, 0.27241716), (0.4417468, -0.8635848, 0.24306585), (0.6848119, -0.6869875, -0.24306549), (0.80898666, -0.58776003, 0.008870954), (0.5877858, -0.8090165, 1.3186973e-7), (0.4417468, -0.8635848, 0.24306585), (0.67721415, -0.68349826, 0.27241716), (0.49154523, -0.7103173, 0.50381804), (0.67721415, -0.68349826, 0.27241716), (0.68818945, -0.4999976, 0.5257353), (0.49154523, -0.7103173, 0.50381804), (0.5877858, -0.8090165, 1.3186973e-7), (0.80898666, -0.58776003, 0.008870954), (0.67721415, -0.68349826, 0.27241716), (0.80898666, -0.58776003, 0.008870954), (0.85931766, -0.43285444, 0.27241552), (0.67721415, -0.68349826, 0.27241716), (0.67721415, -0.68349826, 0.27241716), (0.85931766, -0.43285444, 0.27241552), (0.68818945, -0.4999976, 0.5257353), (0.85931766, -0.43285444, 0.27241552), (0.8274493, -0.24798746, 0.5038153), (0.68818945, -0.4999976, 0.5257353), (0.6848119, -0.6869875, -0.24306549), (0.8649862, -0.43899736, -0.24306445), (0.80898666, -0.58776003, 0.008870954), (0.8649862, -0.43899736, -0.24306445), (0.9510576, -0.30901358, -9.768123e-8), (0.80898666, -0.58776003, 0.008870954), (0.80898666, -0.58776003, 0.008870954), (0.9510576, -0.30901358, -9.768123e-8), (0.85931766, -0.43285444, 0.27241552), (0.9510576, -0.30901358, -9.768123e-8), (0.9578258, -0.15326415, 0.24306326), (0.85931766, -0.43285444, 0.27241552), (0.85931766, -0.43285444, 0.27241552), (0.9578258, -0.15326415, 0.24306326), (0.8274493, -0.24798746, 0.5038153), (0.9578258, -0.15326415, 0.24306326), (0.89442617, 9.693981e-9, 0.4472157), (0.8274493, -0.24798746, 0.5038153), (0.44174683, 0.8635849, 0.2430657), (0.15021768, 0.958308, 0.2430649), (0.27638862, 0.85064924, 0.44721943), (0.587786, 0.8090164, 2.8083372e-7), (0.30900505, 0.951019, -0.008872542), (0.44174683, 0.8635849, 0.2430657), (0.6848122, 0.6869873, -0.24306516), (0.44077775, 0.85527956, -0.27241838), (0.587786, 0.8090164, 2.8083372e-7), (0.44174683, 0.8635849, 0.2430657), (0.30900505, 0.951019, -0.008872542), (0.15021768, 0.958308, 0.2430649), (0.30900505, 0.951019, -0.008872542), (1.4325947e-7, 1, -1.2210157e-7), (0.15021768, 0.958308, 0.2430649), (0.587786, 0.8090164, 2.8083372e-7), (0.44077775, 0.85527956, -0.27241838), (0.30900505, 0.951019, -0.008872542), (0.44077775, 0.85527956, -0.27241838), (0.14612962, 0.9510176, -0.27241802), (0.30900505, 0.951019, -0.008872542), (0.30900505, 0.951019, -0.008872542), (0.14612962, 0.9510176, -0.27241802), (1.4325947e-7, 1, -1.2210157e-7), (0.14612962, 0.9510176, -0.27241802), (-0.15021753, 0.95830786, -0.24306497), (1.4325947e-7, 1, -1.2210157e-7), (0.6848122, 0.6869873, -0.24306516), (0.5236591, 0.686985, -0.50381815), (0.44077775, 0.85527956, -0.27241838), (0.5236591, 0.686985, -0.50381815), (0.2628688, 0.8090121, -0.52573687), (0.44077775, 0.85527956, -0.27241838), (0.44077775, 0.85527956, -0.27241838), (0.2628688, 0.8090121, -0.52573687), (0.14612962, 0.9510176, -0.27241802), (0.2628688, 0.8090121, -0.52573687), (-0.019840067, 0.86358184, -0.5038182), (0.14612962, 0.9510176, -0.27241802), (0.14612962, 0.9510176, -0.27241802), (-0.019840067, 0.86358184, -0.5038182), (-0.15021753, 0.95830786, -0.24306497), (-0.019840067, 0.86358184, -0.5038182), (-0.2763887, 0.8506493, -0.4472194), (-0.15021753, 0.95830786, -0.24306497), (-0.68481195, 0.6869876, 0.24306525), (-0.8649862, 0.43899736, 0.2430641), (-0.7236075, 0.52572584, 0.44721872), (-0.5877858, 0.8090166, -1.3309075e-7), (-0.80898654, 0.5877602, -0.0088725425), (-0.68481195, 0.6869876, 0.24306525), (-0.44174662, 0.863585, -0.24306563), (-0.677213, 0.68349904, -0.2724179), (-0.5877858, 0.8090166, -1.3309075e-7), (-0.68481195, 0.6869876, 0.24306525), (-0.80898654, 0.5877602, -0.0088725425), (-0.8649862, 0.43899736, 0.2430641), (-0.80898654, 0.5877602, -0.0088725425), (-0.95105755, 0.3090138, -2.3443496e-7), (-0.8649862, 0.43899736, 0.2430641), (-0.5877858, 0.8090166, -1.3309075e-7), (-0.677213, 0.68349904, -0.2724179), (-0.80898654, 0.5877602, -0.0088725425), (-0.677213, 0.68349904, -0.2724179), (-0.8593169, 0.43285507, -0.27241674), (-0.80898654, 0.5877602, -0.0088725425), (-0.80898654, 0.5877602, -0.0088725425), (-0.8593169, 0.43285507, -0.27241674), (-0.95105755, 0.3090138, -2.3443496e-7), (-0.8593169, 0.43285507, -0.27241674), (-0.95782584, 0.15326428, -0.24306306), (-0.95105755, 0.3090138, -2.3443496e-7), (-0.44174662, 0.863585, -0.24306563), (-0.49154493, 0.71031725, -0.5038184), (-0.677213, 0.68349904, -0.2724179), (-0.49154493, 0.71031725, -0.5038184), (-0.6881894, 0.4999976, -0.52573556), (-0.677213, 0.68349904, -0.2724179), (-0.677213, 0.68349904, -0.2724179), (-0.6881894, 0.4999976, -0.52573556), (-0.8593169, 0.43285507, -0.27241674), (-0.6881894, 0.4999976, -0.52573556), (-0.8274494, 0.24798727, -0.50381523), (-0.8593169, 0.43285507, -0.27241674), (-0.8593169, 0.43285507, -0.27241674), (-0.8274494, 0.24798727, -0.50381523), (-0.95782584, 0.15326428, -0.24306306), (-0.8274494, 0.24798727, -0.50381523), (-0.89442617, 4.8469904e-9, -0.44721565), (-0.95782584, 0.15326428, -0.24306306), (-0.8649861, -0.43899748, 0.2430641), (-0.684812, -0.6869875, 0.24306534), (-0.7236075, -0.52572596, 0.44721872), (-0.95105755, -0.3090139, -8.180804e-8), (-0.8089864, -0.5877602, -0.008872388), (-0.8649861, -0.43899748, 0.2430641), (-0.95782584, -0.1532645, -0.24306318), (-0.8593169, -0.43285507, -0.27241677), (-0.95105755, -0.3090139, -8.180804e-8), (-0.8649861, -0.43899748, 0.2430641), (-0.8089864, -0.5877602, -0.008872388), (-0.684812, -0.6869875, 0.24306534), (-0.8089864, -0.5877602, -0.008872388), (-0.5877859, -0.8090165, -1.7094225e-8), (-0.684812, -0.6869875, 0.24306534), (-0.95105755, -0.3090139, -8.180804e-8), (-0.8593169, -0.43285507, -0.27241677), (-0.8089864, -0.5877602, -0.008872388), (-0.8593169, -0.43285507, -0.27241677), (-0.677213, -0.68349904, -0.2724179), (-0.8089864, -0.5877602, -0.008872388), (-0.8089864, -0.5877602, -0.008872388), (-0.677213, -0.68349904, -0.2724179), (-0.5877859, -0.8090165, -1.7094225e-8), (-0.677213, -0.68349904, -0.2724179), (-0.44174653, -0.863585, -0.24306563), (-0.5877859, -0.8090165, -1.7094225e-8), (-0.95782584, -0.1532645, -0.24306318), (-0.8274494, -0.24798721, -0.5038153), (-0.8593169, -0.43285507, -0.27241677), (-0.8274494, -0.24798721, -0.5038153), (-0.6881894, -0.49999747, -0.5257356), (-0.8593169, -0.43285507, -0.27241677), (-0.8593169, -0.43285507, -0.27241677), (-0.6881894, -0.49999747, -0.5257356), (-0.677213, -0.68349904, -0.2724179), (-0.6881894, -0.49999747, -0.5257356), (-0.49154484, -0.7103175, -0.50381815), (-0.677213, -0.68349904, -0.2724179), (-0.677213, -0.68349904, -0.2724179), (-0.49154484, -0.7103175, -0.50381815), (-0.44174653, -0.863585, -0.24306563), (-0.49154484, -0.7103175, -0.50381815), (-0.27638865, -0.8506493, -0.44721937), (-0.44174653, -0.863585, -0.24306563), (0.1502176, -0.958308, 0.24306503), (0.4417468, -0.8635848, 0.24306585), (0.2763886, -0.8506491, 0.44721952), (5.128266e-8, -1, -1.9292048e-7), (0.30900514, -0.9510189, -0.008872648), (0.1502176, -0.958308, 0.24306503), (-0.15021753, -0.958308, -0.2430649), (0.14612977, -0.9510176, -0.27241808), (5.128266e-8, -1, -1.9292048e-7), (0.1502176, -0.958308, 0.24306503), (0.30900514, -0.9510189, -0.008872648), (0.4417468, -0.8635848, 0.24306585), (0.30900514, -0.9510189, -0.008872648), (0.5877858, -0.8090165, 1.3186973e-7), (0.4417468, -0.8635848, 0.24306585), (5.128266e-8, -1, -1.9292048e-7), (0.14612977, -0.9510176, -0.27241808), (0.30900514, -0.9510189, -0.008872648), (0.14612977, -0.9510176, -0.27241808), (0.44077775, -0.85527956, -0.27241844), (0.30900514, -0.9510189, -0.008872648), (0.30900514, -0.9510189, -0.008872648), (0.44077775, -0.85527956, -0.27241844), (0.5877858, -0.8090165, 1.3186973e-7), (0.44077775, -0.85527956, -0.27241844), (0.6848119, -0.6869875, -0.24306549), (0.5877858, -0.8090165, 1.3186973e-7), (-0.15021753, -0.958308, -0.2430649), (-0.019839942, -0.8635817, -0.50381845), (0.14612977, -0.9510176, -0.27241808), (-0.019839942, -0.8635817, -0.50381845), (0.2628689, -0.8090122, -0.52573687), (0.14612977, -0.9510176, -0.27241808), (0.14612977, -0.9510176, -0.27241808), (0.2628689, -0.8090122, -0.52573687), (0.44077775, -0.85527956, -0.27241844), (0.2628689, -0.8090122, -0.52573687), (0.5236591, -0.68698514, -0.503818), (0.44077775, -0.85527956, -0.27241844), (0.44077775, -0.85527956, -0.27241844), (0.5236591, -0.68698514, -0.503818), (0.6848119, -0.6869875, -0.24306549), (0.5236591, -0.68698514, -0.503818), (0.72360754, -0.5257258, -0.4472187), (0.6848119, -0.6869875, -0.24306549), (0.9578258, -0.15326415, 0.24306326), (0.95782584, 0.15326396, 0.2430632), (0.89442617, 9.693981e-9, 0.4472157), (0.9510576, -0.30901358, -9.768123e-8), (0.99996066, 5.6190906e-8, -0.008872879), (0.9578258, -0.15326415, 0.24306326), (0.8649862, -0.43899736, -0.24306445), (0.9496282, -0.15490395, -0.27241707), (0.9510576, -0.30901358, -9.768123e-8), (0.9578258, -0.15326415, 0.24306326), (0.99996066, 5.6190906e-8, -0.008872879), (0.95782584, 0.15326396, 0.2430632), (0.99996066, 5.6190906e-8, -0.008872879), (0.95105755, 0.30901372, 1.4652184e-8), (0.95782584, 0.15326396, 0.2430632), (0.9510576, -0.30901358, -9.768123e-8), (0.9496282, -0.15490395, -0.27241707), (0.99996066, 5.6190906e-8, -0.008872879), (0.9496282, -0.15490395, -0.27241707), (0.9496282, 0.15490389, -0.27241707), (0.99996066, 5.6190906e-8, -0.008872879), (0.99996066, 5.6190906e-8, -0.008872879), (0.9496282, 0.15490389, -0.27241707), (0.95105755, 0.30901372, 1.4652184e-8), (0.9496282, 0.15490389, -0.27241707), (0.8649861, 0.43899748, -0.24306427), (0.95105755, 0.30901372, 1.4652184e-8), (0.8649862, -0.43899736, -0.24306445), (0.8151844, -0.2857323, -0.5038169), (0.9496282, -0.15490395, -0.27241707), (0.8151844, -0.2857323, -0.5038169), (0.8506483, 1.692743e-8, -0.52573526), (0.9496282, -0.15490395, -0.27241707), (0.9496282, -0.15490395, -0.27241707), (0.8506483, 1.692743e-8, -0.52573526), (0.9496282, 0.15490389, -0.27241707), (0.8506483, 1.692743e-8, -0.52573526), (0.81518424, 0.28573218, -0.50381714), (0.9496282, 0.15490389, -0.27241707), (0.9496282, 0.15490389, -0.27241707), (0.81518424, 0.28573218, -0.50381714), (0.8649861, 0.43899748, -0.24306427), (0.81518424, 0.28573218, -0.50381714), (0.7236075, 0.52572596, -0.44721872), (0.8649861, 0.43899748, -0.24306427), (0.60423213, 0.4389958, -0.6649708), (0.5236591, 0.686985, -0.50381815), (0.7236075, 0.52572596, -0.44721872), (0.4253226, 0.30901197, -0.850654), (0.3538536, 0.5877562, -0.72755075), (0.60423213, 0.4389958, -0.6649708), (0.21095045, 0.15326305, -0.96540684), (0.14064421, 0.43285215, -0.89042586), (0.4253226, 0.30901197, -0.850654), (0.60423213, 0.4389958, -0.6649708), (0.3538536, 0.5877562, -0.72755075), (0.5236591, 0.686985, -0.50381815), (0.3538536, 0.5877562, -0.72755075), (0.2628688, 0.8090121, -0.52573687), (0.5236591, 0.686985, -0.50381815), (0.4253226, 0.30901197, -0.850654), (0.14064421, 0.43285215, -0.89042586), (0.3538536, 0.5877562, -0.72755075), (0.14064421, 0.43285215, -0.89042586), (0.059207484, 0.6834946, -0.7275504), (0.3538536, 0.5877562, -0.72755075), (0.3538536, 0.5877562, -0.72755075), (0.059207484, 0.6834946, -0.7275504), (0.2628688, 0.8090121, -0.52573687), (0.059207484, 0.6834946, -0.7275504), (-0.019840067, 0.86358184, -0.5038182), (0.2628688, 0.8090121, -0.52573687), (0.21095045, 0.15326305, -0.96540684), (-0.080574796, 0.247986, -0.96540695), (0.14064421, 0.43285215, -0.89042586), (-0.080574796, 0.247986, -0.96540695), (-0.16245654, 0.49999547, -0.85065407), (0.14064421, 0.43285215, -0.89042586), (0.14064421, 0.43285215, -0.89042586), (-0.16245654, 0.49999547, -0.85065407), (0.059207484, 0.6834946, -0.7275504), (-0.16245654, 0.49999547, -0.85065407), (-0.23079239, 0.71031547, -0.66497135), (0.059207484, 0.6834946, -0.7275504), (0.059207484, 0.6834946, -0.7275504), (-0.23079239, 0.71031547, -0.66497135), (-0.019840067, 0.86358184, -0.5038182), (-0.23079239, 0.71031547, -0.66497135), (-0.2763887, 0.8506493, -0.4472194), (-0.019840067, 0.86358184, -0.5038182), (-0.23079239, 0.71031547, -0.66497135), (-0.49154493, 0.71031725, -0.5038184), (-0.2763887, 0.8506493, -0.4472194), (-0.16245654, 0.49999547, -0.85065407), (-0.4496453, 0.5181593, -0.72755075), (-0.23079239, 0.71031547, -0.66497135), (-0.080574796, 0.247986, -0.96540695), (-0.3682072, 0.26751724, -0.89042574), (-0.16245654, 0.49999547, -0.85065407), (-0.23079239, 0.71031547, -0.66497135), (-0.4496453, 0.5181593, -0.72755075), (-0.49154493, 0.71031725, -0.5038184), (-0.4496453, 0.5181593, -0.72755075), (-0.6881894, 0.4999976, -0.52573556), (-0.49154493, 0.71031725, -0.5038184), (-0.16245654, 0.49999547, -0.85065407), (-0.3682072, 0.26751724, -0.89042574), (-0.4496453, 0.5181593, -0.72755075), (-0.3682072, 0.26751724, -0.89042574), (-0.63174915, 0.26751754, -0.7275489), (-0.4496453, 0.5181593, -0.72755075), (-0.4496453, 0.5181593, -0.72755075), (-0.63174915, 0.26751754, -0.7275489), (-0.6881894, 0.4999976, -0.52573556), (-0.63174915, 0.26751754, -0.7275489), (-0.8274494, 0.24798727, -0.50381523), (-0.6881894, 0.4999976, -0.52573556), (-0.080574796, 0.247986, -0.96540695), (-0.2607502, -2.3119095e-7, -0.96540636), (-0.3682072, 0.26751724, -0.89042574), (-0.2607502, -2.3119095e-7, -0.96540636), (-0.5257295, -2.7350734e-7, -0.8506518), (-0.3682072, 0.26751724, -0.89042574), (-0.3682072, 0.26751724, -0.89042574), (-0.5257295, -2.7350734e-7, -0.8506518), (-0.63174915, 0.26751754, -0.7275489), (-0.5257295, -2.7350734e-7, -0.8506518), (-0.74687266, -1.9712073e-7, -0.6649671), (-0.63174915, 0.26751754, -0.7275489), (-0.63174915, 0.26751754, -0.7275489), (-0.74687266, -1.9712073e-7, -0.6649671), (-0.8274494, 0.24798727, -0.50381523), (-0.74687266, -1.9712073e-7, -0.6649671), (-0.89442617, 4.8469904e-9, -0.44721565), (-0.8274494, 0.24798727, -0.50381523), (-0.74687266, -1.9712073e-7, -0.6649671), (-0.8274494, -0.24798721, -0.5038153), (-0.89442617, 4.8469904e-9, -0.44721565), (-0.5257295, -2.7350734e-7, -0.8506518), (-0.631749, -0.2675182, -0.7275488), (-0.74687266, -1.9712073e-7, -0.6649671), (-0.2607502, -2.3119095e-7, -0.96540636), (-0.36820734, -0.26751852, -0.89042526), (-0.5257295, -2.7350734e-7, -0.8506518), (-0.74687266, -1.9712073e-7, -0.6649671), (-0.631749, -0.2675182, -0.7275488), (-0.8274494, -0.24798721, -0.5038153), (-0.631749, -0.2675182, -0.7275488), (-0.6881894, -0.49999747, -0.5257356), (-0.8274494, -0.24798721, -0.5038153), (-0.5257295, -2.7350734e-7, -0.8506518), (-0.36820734, -0.26751852, -0.89042526), (-0.631749, -0.2675182, -0.7275488), (-0.36820734, -0.26751852, -0.89042526), (-0.44964513, -0.5181605, -0.72754997), (-0.631749, -0.2675182, -0.7275488), (-0.631749, -0.2675182, -0.7275488), (-0.44964513, -0.5181605, -0.72754997), (-0.6881894, -0.49999747, -0.5257356), (-0.44964513, -0.5181605, -0.72754997), (-0.49154484, -0.7103175, -0.50381815), (-0.6881894, -0.49999747, -0.5257356), (-0.2607502, -2.3119095e-7, -0.96540636), (-0.080574796, -0.24798612, -0.9654069), (-0.36820734, -0.26751852, -0.89042526), (-0.080574796, -0.24798612, -0.9654069), (-0.16245589, -0.49999562, -0.8506541), (-0.36820734, -0.26751852, -0.89042526), (-0.36820734, -0.26751852, -0.89042526), (-0.16245589, -0.49999562, -0.8506541), (-0.44964513, -0.5181605, -0.72754997), (-0.16245589, -0.49999562, -0.8506541), (-0.23079203, -0.7103156, -0.6649713), (-0.44964513, -0.5181605, -0.72754997), (-0.44964513, -0.5181605, -0.72754997), (-0.23079203, -0.7103156, -0.6649713), (-0.49154484, -0.7103175, -0.50381815), (-0.23079203, -0.7103156, -0.6649713), (-0.27638865, -0.8506493, -0.44721937), (-0.49154484, -0.7103175, -0.50381815), (0.81518424, 0.28573218, -0.50381714), (0.60423213, 0.4389958, -0.6649708), (0.7236075, 0.52572596, -0.44721872), (0.8506483, 1.692743e-8, -0.52573526), (0.66833836, 0.15490343, -0.7275499), (0.81518424, 0.28573218, -0.50381714), (0.8151844, -0.2857323, -0.5038169), (0.6683387, -0.15490404, -0.7275493), (0.8506483, 1.692743e-8, -0.52573526), (0.81518424, 0.28573218, -0.50381714), (0.66833836, 0.15490343, -0.7275499), (0.60423213, 0.4389958, -0.6649708), (0.66833836, 0.15490343, -0.7275499), (0.4253226, 0.30901197, -0.850654), (0.60423213, 0.4389958, -0.6649708), (0.8506483, 1.692743e-8, -0.52573526), (0.6683387, -0.15490404, -0.7275493), (0.66833836, 0.15490343, -0.7275499), (0.6683387, -0.15490404, -0.7275493), (0.45512903, -4.983886e-7, -0.8904255), (0.66833836, 0.15490343, -0.7275499), (0.66833836, 0.15490343, -0.7275499), (0.45512903, -4.983886e-7, -0.8904255), (0.4253226, 0.30901197, -0.850654), (0.45512903, -4.983886e-7, -0.8904255), (0.21095045, 0.15326305, -0.96540684), (0.4253226, 0.30901197, -0.850654), (0.8151844, -0.2857323, -0.5038169), (0.6042323, -0.43899587, -0.6649707), (0.6683387, -0.15490404, -0.7275493), (0.6042323, -0.43899587, -0.6649707), (0.42532283, -0.30901203, -0.85065395), (0.6683387, -0.15490404, -0.7275493), (0.6683387, -0.15490404, -0.7275493), (0.42532283, -0.30901203, -0.85065395), (0.45512903, -4.983886e-7, -0.8904255), (0.42532283, -0.30901203, -0.85065395), (0.21095031, -0.15326287, -0.9654069), (0.45512903, -4.983886e-7, -0.8904255), (0.45512903, -4.983886e-7, -0.8904255), (0.21095031, -0.15326287, -0.9654069), (0.21095045, 0.15326305, -0.96540684), (0.21095031, -0.15326287, -0.9654069), (-5.6952115e-7, 0, -1), (0.21095045, 0.15326305, -0.96540684), (-0.23079203, -0.7103156, -0.6649713), (-0.019839942, -0.8635817, -0.50381845), (-0.27638865, -0.8506493, -0.44721937), (-0.16245589, -0.49999562, -0.8506541), (0.05920844, -0.68349385, -0.727551), (-0.23079203, -0.7103156, -0.6649713), (-0.080574796, -0.24798612, -0.9654069), (0.1406454, -0.43285158, -0.89042604), (-0.16245589, -0.49999562, -0.8506541), (-0.23079203, -0.7103156, -0.6649713), (0.05920844, -0.68349385, -0.727551), (-0.019839942, -0.8635817, -0.50381845), (0.05920844, -0.68349385, -0.727551), (0.2628689, -0.8090122, -0.52573687), (-0.019839942, -0.8635817, -0.50381845), (-0.16245589, -0.49999562, -0.8506541), (0.1406454, -0.43285158, -0.89042604), (0.05920844, -0.68349385, -0.727551), (0.1406454, -0.43285158, -0.89042604), (0.3538548, -0.5877562, -0.7275502), (0.05920844, -0.68349385, -0.727551), (0.05920844, -0.68349385, -0.727551), (0.3538548, -0.5877562, -0.7275502), (0.2628689, -0.8090122, -0.52573687), (0.3538548, -0.5877562, -0.7275502), (0.5236591, -0.68698514, -0.503818), (0.2628689, -0.8090122, -0.52573687), (-0.080574796, -0.24798612, -0.9654069), (0.21095031, -0.15326287, -0.9654069), (0.1406454, -0.43285158, -0.89042604), (0.21095031, -0.15326287, -0.9654069), (0.42532283, -0.30901203, -0.85065395), (0.1406454, -0.43285158, -0.89042604), (0.1406454, -0.43285158, -0.89042604), (0.42532283, -0.30901203, -0.85065395), (0.3538548, -0.5877562, -0.7275502), (0.42532283, -0.30901203, -0.85065395), (0.6042323, -0.43899587, -0.6649707), (0.3538548, -0.5877562, -0.7275502), (0.3538548, -0.5877562, -0.7275502), (0.6042323, -0.43899587, -0.6649707), (0.5236591, -0.68698514, -0.503818), (0.6042323, -0.43899587, -0.6649707), (0.72360754, -0.5257258, -0.4472187), (0.5236591, -0.68698514, -0.503818)] (
                interpolation = "faceVarying"
            )
            point3f[] points = [(0, 0, -1), (0.7236073, -0.5257253, -0.44721952), (-0.27638802, -0.85064924, -0.44721985), (-0.8944262, 0, -0.44721562), (-0.27638802, 0.85064924, -0.44721985), (0.7236073, 0.5257253, -0.44721952), (0.27638802, -0.85064924, 0.44721985), (-0.7236073, -0.5257253, 0.44721952), (-0.7236073, 0.5257253, 0.44721952), (0.27638802, 0.85064924, 0.44721985), (0.8944262, 0, 0.44721562), (0, 0, 1), (-0.23282152, -0.7165631, -0.6575192), (-0.16245556, -0.49999523, -0.8506544), (-0.07760664, -0.23885271, -0.9679497), (0.20318091, -0.14761785, -0.96794957), (0.42532268, -0.30901137, -0.8506542), (0.60954666, -0.4428564, -0.65751886), (0.5319409, -0.6817124, -0.5023017), (0.26286882, -0.80901164, -0.52573764), (-0.029639274, -0.8641842, -0.50230193), (0.81272924, 0.29523772, -0.5023006), (0.85064787, 0, -0.5257359), (0.81272924, -0.29523772, -0.5023006), (0.20318091, 0.14761785, -0.96794957), (0.42532268, 0.30901137, -0.8506542), (0.60954666, 0.4428564, -0.65751886), (-0.7534417, 0, -0.65751475), (-0.5257298, 0, -0.8506517), (-0.25114697, 0, -0.96794885), (-0.48397142, -0.71656454, -0.5023017), (-0.6881894, -0.4999969, -0.5257362), (-0.83105063, -0.2388534, -0.50229865), (-0.23282152, 0.7165631, -0.6575192), (-0.16245556, 0.49999523, -0.8506544), (-0.07760664, 0.23885271, -0.9679497), (-0.83105063, 0.23885341, -0.50229865), (-0.6881894, 0.49999693, -0.5257362), (-0.48397142, 0.71656454, -0.5023017), (-0.029639274, 0.8641842, -0.50230193), (0.26286882, 0.8090117, -0.52573764), (0.5319409, 0.68171245, -0.5023017), (0.95662576, -0.14761837, 0.25114945), (0.95105785, -0.30901262, -1.7517488e-8), (0.8606976, -0.44285753, -0.25115085), (0.8606976, 0.44285753, -0.25115085), (0.95105785, 0.30901262, 1.7517488e-8), (0.95662576, 0.14761837, 0.25114945), (0.1552151, -0.95542204, 0.25115153), (0, -0.99999994, -1.7517587e-8), (-0.1552151, -0.95542204, -0.25115153), (0.6871586, -0.6817153, -0.25115192), (0.5877856, -0.8090167, 1.7517639e-8), (0.4360068, -0.8641879, 0.25115204), (-0.8606976, -0.44285753, 0.25115085), (-0.95105785, -0.30901262, -1.7517488e-8), (-0.95662576, -0.14761837, -0.25114945), (-0.4360068, -0.8641879, -0.25115204), (-0.5877856, -0.80901676, 1.7517639e-8), (-0.6871585, -0.6817153, 0.2511519), (-0.6871586, 0.6817153, 0.25115192), (-0.5877856, 0.8090167, -1.7517639e-8), (-0.4360068, 0.8641879, -0.25115204), (-0.95662576, 0.14761837, -0.25114945), (-0.95105785, 0.30901262, 1.7517488e-8), (-0.8606976, 0.44285753, 0.25115085), (0.4360068, 0.8641879, 0.25115204), (0.5877856, 0.80901676, -1.7517639e-8), (0.6871585, 0.6817153, -0.2511519), (-0.1552151, 0.95542204, -0.25115153), (0, 0.99999994, 1.7517587e-8), (0.1552151, 0.95542204, 0.25115153), (0.83105063, -0.23885341, 0.50229865), (0.6881894, -0.49999693, 0.5257362), (0.48397142, -0.71656454, 0.5023017), (0.029639274, -0.8641842, 0.50230193), (-0.26286882, -0.8090117, 0.52573764), (-0.5319409, -0.68171245, 0.5023017), (-0.81272924, -0.29523772, 0.5023006), (-0.85064787, 0, 0.5257359), (-0.81272924, 0.29523772, 0.5023006), (-0.5319409, 0.6817124, 0.5023017), (-0.26286882, 0.80901164, 0.52573764), (0.029639274, 0.8641842, 0.50230193), (0.48397142, 0.71656454, 0.5023017), (0.6881894, 0.4999969, 0.5257362), (0.83105063, 0.2388534, 0.50229865), (0.07760664, -0.23885272, 0.9679497), (0.16245556, -0.49999526, 0.8506544), (0.23282152, -0.7165631, 0.6575192), (0.7534417, 0, 0.65751475), (0.5257298, 0, 0.8506517), (0.25114697, 0, 0.96794885), (-0.20318091, -0.14761785, 0.96794957), (-0.42532268, -0.30901137, 0.8506542), (-0.60954666, -0.4428564, 0.65751886), (-0.20318091, 0.14761785, 0.96794957), (-0.42532268, 0.30901137, 0.8506542), (-0.60954666, 0.4428564, 0.65751886), (0.07760664, 0.23885272, 0.9679497), (0.16245556, 0.49999526, 0.8506544), (0.23282152, 0.7165631, 0.6575192), (0.3618003, 0.26286295, 0.8944292), (0.63819355, 0.2628641, 0.72361004), (0.44720915, 0.52572817, 0.7236116), (-0.13819726, 0.4253195, 0.8944299), (-0.052789573, 0.6881849, 0.72361237), (-0.36180368, 0.58777845, 0.72361225), (-0.4472099, 0, 0.8944291), (-0.6708166, 0.16245703, 0.7236109), (-0.6708166, -0.16245703, 0.7236109), (-0.13819729, -0.4253195, 0.8944299), (-0.36180368, -0.58777845, 0.72361225), (-0.052789573, -0.6881849, 0.72361237), (0.3618003, -0.26286295, 0.8944292), (0.4472092, -0.52572817, 0.72361165), (0.63819355, -0.26286408, 0.72361004), (0.8618042, 0.42532197, 0.27639621), (0.80901927, 0.5877821, 0), (0.67082053, 0.68818915, 0.2763974), (-0.13819852, 0.9510551, 0.27639708), (-0.30901647, 0.95105666, -4.9197246e-7), (-0.44721505, 0.85064876, 0.27639726), (-0.94721323, 0.16245763, 0.2763959), (-0.99999994, -3.60779e-7, 6.231637e-7), (-0.94721293, -0.16245788, 0.27639657), (-0.44721577, -0.8506484, 0.27639684), (-0.30901718, -0.9510564, -7.871547e-7), (-0.13819925, -0.9510551, 0.27639678), (0.67082036, -0.68818974, 0.27639616), (0.8090187, -0.587783, -0.0000019022905), (0.8618041, -0.4253232, 0.27639443), (0.3090172, 0.9510564, -2.6148812e-14), (0.4472156, 0.8506484, -0.2763977), (0.13819908, 0.95105493, -0.27639753), (-0.80901843, 0.5877833, -7.8446486e-14), (-0.670819, 0.6881907, -0.2763973), (-0.8618031, 0.42532393, -0.27639633), (-0.80901843, -0.5877833, 8.031426e-14), (-0.8618032, -0.42532396, -0.27639633), (-0.67081904, -0.6881907, -0.2763973), (0.3090172, -0.9510564, 2.8016584e-14), (0.13819909, -0.95105493, -0.27639753), (0.44721562, -0.8506483, -0.2763977), (1, 0, 0), (0.94721323, -0.16245754, -0.27639604), (0.94721323, 0.16245757, -0.27639604), (0.36180347, 0.5877792, -0.7236116), (0.1381968, 0.4253213, -0.8944291), (0.052789096, 0.6881863, -0.72361094), (-0.44721058, 0.5257271, -0.72361153), (-0.3618012, 0.26286253, -0.8944289), (-0.63819474, 0.26286283, -0.72360945), (-0.63819456, -0.2628637, -0.72360927), (-0.36180133, -0.26286435, -0.8944284), (-0.44721052, -0.52572864, -0.72361046), (0.670817, 0.1624568, -0.72361064), (0.67081755, -0.16245775, -0.72361004), (0.44721097, -7.3795553e-7, -0.8944285), (0.05279035, -0.68818533, -0.7236118), (0.13819869, -0.42532063, -0.89442915), (0.36180496, -0.58777916, -0.72361094)]
            texCoord2f[] primvars:st = [(0.181819, 0), (0.20454624, 0.03936525), (0.15909176, 0.03936525), (0.272728, 0.157461), (0.29545522, 0.118095756), (0.31818247, 0.15746099), (0.909091, 0), (0.93181825, 0.03936525), (0.88636374, 0.03936525), (0.727273, 0), (0.75000024, 0.03936525), (0.70454574, 0.03936525), (0.545455, 0), (0.56818223, 0.03936525), (0.5227277, 0.03936525), (0.272728, 0.157461), (0.31818247, 0.15746099), (0.29545522, 0.196826), (0.09091, 0.157461), (0.13636449, 0.15746099), (0.113637246, 0.196826), (0.818182, 0.157461), (0.8636365, 0.15746099), (0.84090924, 0.196826), (0.636364, 0.157461), (0.6818185, 0.15746099), (0.65909123, 0.196826), (0.454546, 0.157461), (0.5000005, 0.15746099), (0.47727323, 0.196826), (0.272728, 0.157461), (0.29545522, 0.196826), (0.25000075, 0.19682601), (0.09091, 0.157461), (0.113637246, 0.196826), (0.0681825, 0.19682601), (0.818182, 0.157461), (0.84090924, 0.196826), (0.79545474, 0.19682601), (0.636364, 0.157461), (0.65909123, 0.196826), (0.61363673, 0.19682601), (0.454546, 0.157461), (0.47727323, 0.196826), (0.43181875, 0.19682601), (0.181819, 0.314921), (0.2272735, 0.314921), (0.20454624, 0.35428625), (0, 0.314921), (0.045454748, 0.314921), (0.022727499, 0.35428625), (0.727273, 0.314921), (0.7727275, 0.314921), (0.75000024, 0.35428625), (0.545455, 0.314921), (0.5909095, 0.314921), (0.56818223, 0.35428625), (0.363637, 0.314921), (0.40909147, 0.314921), (0.38636425, 0.35428625), (0.43181872, 0.43301675), (0.47727326, 0.43301675), (0.454546, 0.472382), (0.40909147, 0.3936515), (0.45454597, 0.3936515), (0.43181872, 0.43301675), (0.38636425, 0.35428625), (0.43181872, 0.35428625), (0.40909147, 0.3936515), (0.43181872, 0.43301675), (0.45454597, 0.3936515), (0.47727326, 0.43301675), (0.45454597, 0.3936515), (0.5000005, 0.3936515), (0.47727326, 0.43301675), (0.40909147, 0.3936515), (0.43181872, 0.35428625), (0.45454597, 0.3936515), (0.43181872, 0.35428625), (0.47727323, 0.35428625), (0.45454597, 0.3936515), (0.45454597, 0.3936515), (0.47727323, 0.35428625), (0.5000005, 0.3936515), (0.47727323, 0.35428625), (0.5227277, 0.35428625), (0.5000005, 0.3936515), (0.38636425, 0.35428625), (0.40909147, 0.314921), (0.43181872, 0.35428625), (0.40909147, 0.314921), (0.45454597, 0.314921), (0.43181872, 0.35428625), (0.43181872, 0.35428625), (0.45454597, 0.314921), (0.47727323, 0.35428625), (0.45454597, 0.314921), (0.5000005, 0.314921), (0.47727323, 0.35428625), (0.47727323, 0.35428625), (0.5000005, 0.314921), (0.5227277, 0.35428625), (0.5000005, 0.314921), (0.545455, 0.314921), (0.5227277, 0.35428625), (0.61363673, 0.43301675), (0.65909123, 0.43301675), (0.636364, 0.472382), (0.5909095, 0.3936515), (0.636364, 0.3936515), (0.61363673, 0.43301675), (0.56818223, 0.35428625), (0.61363673, 0.35428625), (0.5909095, 0.3936515), (0.61363673, 0.43301675), (0.636364, 0.3936515), (0.65909123, 0.43301675), (0.636364, 0.3936515), (0.6818185, 0.3936515), (0.65909123, 0.43301675), (0.5909095, 0.3936515), (0.61363673, 0.35428625), (0.636364, 0.3936515), (0.61363673, 0.35428625), (0.65909123, 0.35428625), (0.636364, 0.3936515), (0.636364, 0.3936515), (0.65909123, 0.35428625), (0.6818185, 0.3936515), (0.65909123, 0.35428625), (0.70454574, 0.35428625), (0.6818185, 0.3936515), (0.56818223, 0.35428625), (0.5909095, 0.314921), (0.61363673, 0.35428625), (0.5909095, 0.314921), (0.636364, 0.314921), (0.61363673, 0.35428625), (0.61363673, 0.35428625), (0.636364, 0.314921), (0.65909123, 0.35428625), (0.636364, 0.314921), (0.6818185, 0.314921), (0.65909123, 0.35428625), (0.65909123, 0.35428625), (0.6818185, 0.314921), (0.70454574, 0.35428625), (0.6818185, 0.314921), (0.727273, 0.314921), (0.70454574, 0.35428625), (0.79545474, 0.43301675), (0.84090924, 0.43301675), (0.818182, 0.472382), (0.7727275, 0.3936515), (0.818182, 0.3936515), (0.79545474, 0.43301675), (0.75000024, 0.35428625), (0.79545474, 0.35428625), (0.7727275, 0.3936515), (0.79545474, 0.43301675), (0.818182, 0.3936515), (0.84090924, 0.43301675), (0.818182, 0.3936515), (0.8636365, 0.3936515), (0.84090924, 0.43301675), (0.7727275, 0.3936515), (0.79545474, 0.35428625), (0.818182, 0.3936515), (0.79545474, 0.35428625), (0.84090924, 0.35428625), (0.818182, 0.3936515), (0.818182, 0.3936515), (0.84090924, 0.35428625), (0.8636365, 0.3936515), (0.84090924, 0.35428625), (0.88636374, 0.35428625), (0.8636365, 0.3936515), (0.75000024, 0.35428625), (0.7727275, 0.314921), (0.79545474, 0.35428625), (0.7727275, 0.314921), (0.818182, 0.314921), (0.79545474, 0.35428625), (0.79545474, 0.35428625), (0.818182, 0.314921), (0.84090924, 0.35428625), (0.818182, 0.314921), (0.8636365, 0.314921), (0.84090924, 0.35428625), (0.84090924, 0.35428625), (0.8636365, 0.314921), (0.88636374, 0.35428625), (0.8636365, 0.314921), (0.909091, 0.314921), (0.88636374, 0.35428625), (0.0681825, 0.43301675), (0.11363725, 0.43301675), (0.09091, 0.472382), (0.045454998, 0.3936515), (0.09090975, 0.3936515), (0.0681825, 0.43301675), (0.022727499, 0.35428625), (0.06818225, 0.35428625), (0.045454998, 0.3936515), (0.0681825, 0.43301675), (0.09090975, 0.3936515), (0.11363725, 0.43301675), (0.09090975, 0.3936515), (0.1363645, 0.3936515), (0.11363725, 0.43301675), (0.045454998, 0.3936515), (0.06818225, 0.35428625), (0.09090975, 0.3936515), (0.06818225, 0.35428625), (0.113637, 0.35428625), (0.09090975, 0.3936515), (0.09090975, 0.3936515), (0.113637, 0.35428625), (0.1363645, 0.3936515), (0.113637, 0.35428625), (0.15909176, 0.35428625), (0.1363645, 0.3936515), (0.022727499, 0.35428625), (0.045454748, 0.314921), (0.06818225, 0.35428625), (0.045454748, 0.314921), (0.090909496, 0.314921), (0.06818225, 0.35428625), (0.06818225, 0.35428625), (0.090909496, 0.314921), (0.113637, 0.35428625), (0.090909496, 0.314921), (0.13636425, 0.314921), (0.113637, 0.35428625), (0.113637, 0.35428625), (0.13636425, 0.314921), (0.15909176, 0.35428625), (0.13636425, 0.314921), (0.181819, 0.314921), (0.15909176, 0.35428625), (0.25000075, 0.43301675), (0.29545522, 0.43301675), (0.272728, 0.472382), (0.2272735, 0.3936515), (0.27272797, 0.3936515), (0.25000075, 0.43301675), (0.20454624, 0.35428625), (0.25000072, 0.35428625), (0.2272735, 0.3936515), (0.25000075, 0.43301675), (0.27272797, 0.3936515), (0.29545522, 0.43301675), (0.27272797, 0.3936515), (0.31818247, 0.3936515), (0.29545522, 0.43301675), (0.2272735, 0.3936515), (0.25000072, 0.35428625), (0.27272797, 0.3936515), (0.25000072, 0.35428625), (0.29545522, 0.35428625), (0.27272797, 0.3936515), (0.27272797, 0.3936515), (0.29545522, 0.35428625), (0.31818247, 0.3936515), (0.29545522, 0.35428625), (0.34090975, 0.35428625), (0.31818247, 0.3936515), (0.20454624, 0.35428625), (0.2272735, 0.314921), (0.25000072, 0.35428625), (0.2272735, 0.314921), (0.272728, 0.314921), (0.25000072, 0.35428625), (0.25000072, 0.35428625), (0.272728, 0.314921), (0.29545522, 0.35428625), (0.272728, 0.314921), (0.3181825, 0.314921), (0.29545522, 0.35428625), (0.29545522, 0.35428625), (0.3181825, 0.314921), (0.34090975, 0.35428625), (0.3181825, 0.314921), (0.363637, 0.314921), (0.34090975, 0.35428625), (0.38636422, 0.275556), (0.40909147, 0.314921), (0.363637, 0.314921), (0.40909147, 0.236191), (0.43181872, 0.275556), (0.38636422, 0.275556), (0.43181875, 0.19682601), (0.45454597, 0.236191), (0.40909147, 0.236191), (0.38636422, 0.275556), (0.43181872, 0.275556), (0.40909147, 0.314921), (0.43181872, 0.275556), (0.45454597, 0.314921), (0.40909147, 0.314921), (0.40909147, 0.236191), (0.45454597, 0.236191), (0.43181872, 0.275556), (0.45454597, 0.236191), (0.47727323, 0.275556), (0.43181872, 0.275556), (0.43181872, 0.275556), (0.47727323, 0.275556), (0.45454597, 0.314921), (0.47727323, 0.275556), (0.5000005, 0.314921), (0.45454597, 0.314921), (0.43181875, 0.19682601), (0.47727323, 0.196826), (0.45454597, 0.236191), (0.47727323, 0.196826), (0.5000005, 0.23619099), (0.45454597, 0.236191), (0.45454597, 0.236191), (0.5000005, 0.23619099), (0.47727323, 0.275556), (0.5000005, 0.23619099), (0.5227277, 0.275556), (0.47727323, 0.275556), (0.47727323, 0.275556), (0.5227277, 0.275556), (0.5000005, 0.314921), (0.5227277, 0.275556), (0.545455, 0.314921), (0.5000005, 0.314921), (0.56818223, 0.275556), (0.5909095, 0.314921), (0.545455, 0.314921), (0.5909095, 0.236191), (0.61363673, 0.275556), (0.56818223, 0.275556), (0.61363673, 0.19682601), (0.636364, 0.236191), (0.5909095, 0.236191), (0.56818223, 0.275556), (0.61363673, 0.275556), (0.5909095, 0.314921), (0.61363673, 0.275556), (0.636364, 0.314921), (0.5909095, 0.314921), (0.5909095, 0.236191), (0.636364, 0.236191), (0.61363673, 0.275556), (0.636364, 0.236191), (0.65909123, 0.275556), (0.61363673, 0.275556), (0.61363673, 0.275556), (0.65909123, 0.275556), (0.636364, 0.314921), (0.65909123, 0.275556), (0.6818185, 0.314921), (0.636364, 0.314921), (0.61363673, 0.19682601), (0.65909123, 0.196826), (0.636364, 0.236191), (0.65909123, 0.196826), (0.6818185, 0.23619099), (0.636364, 0.236191), (0.636364, 0.236191), (0.6818185, 0.23619099), (0.65909123, 0.275556), (0.6818185, 0.23619099), (0.70454574, 0.275556), (0.65909123, 0.275556), (0.65909123, 0.275556), (0.70454574, 0.275556), (0.6818185, 0.314921), (0.70454574, 0.275556), (0.727273, 0.314921), (0.6818185, 0.314921), (0.75000024, 0.275556), (0.7727275, 0.314921), (0.727273, 0.314921), (0.7727275, 0.236191), (0.79545474, 0.275556), (0.75000024, 0.275556), (0.79545474, 0.19682601), (0.818182, 0.236191), (0.7727275, 0.236191), (0.75000024, 0.275556), (0.79545474, 0.275556), (0.7727275, 0.314921), (0.79545474, 0.275556), (0.818182, 0.314921), (0.7727275, 0.314921), (0.7727275, 0.236191), (0.818182, 0.236191), (0.79545474, 0.275556), (0.818182, 0.236191), (0.84090924, 0.275556), (0.79545474, 0.275556), (0.79545474, 0.275556), (0.84090924, 0.275556), (0.818182, 0.314921), (0.84090924, 0.275556), (0.8636365, 0.314921), (0.818182, 0.314921), (0.79545474, 0.19682601), (0.84090924, 0.196826), (0.818182, 0.236191), (0.84090924, 0.196826), (0.8636365, 0.23619099), (0.818182, 0.236191), (0.818182, 0.236191), (0.8636365, 0.23619099), (0.84090924, 0.275556), (0.8636365, 0.23619099), (0.88636374, 0.275556), (0.84090924, 0.275556), (0.84090924, 0.275556), (0.88636374, 0.275556), (0.8636365, 0.314921), (0.88636374, 0.275556), (0.909091, 0.314921), (0.8636365, 0.314921), (0.022727499, 0.275556), (0.045454748, 0.314921), (0, 0.314921), (0.045454998, 0.236191), (0.068182245, 0.275556), (0.022727499, 0.275556), (0.0681825, 0.19682601), (0.09090975, 0.236191), (0.045454998, 0.236191), (0.022727499, 0.275556), (0.068182245, 0.275556), (0.045454748, 0.314921), (0.068182245, 0.275556), (0.090909496, 0.314921), (0.045454748, 0.314921), (0.045454998, 0.236191), (0.09090975, 0.236191), (0.068182245, 0.275556), (0.09090975, 0.236191), (0.113637, 0.275556), (0.068182245, 0.275556), (0.068182245, 0.275556), (0.113637, 0.275556), (0.090909496, 0.314921), (0.113637, 0.275556), (0.13636425, 0.314921), (0.090909496, 0.314921), (0.0681825, 0.19682601), (0.113637246, 0.196826), (0.09090975, 0.236191), (0.113637246, 0.196826), (0.13636449, 0.23619099), (0.09090975, 0.236191), (0.09090975, 0.236191), (0.13636449, 0.23619099), (0.113637, 0.275556), (0.13636449, 0.23619099), (0.15909176, 0.275556), (0.113637, 0.275556), (0.113637, 0.275556), (0.15909176, 0.275556), (0.13636425, 0.314921), (0.15909176, 0.275556), (0.181819, 0.314921), (0.13636425, 0.314921), (0.20454624, 0.275556), (0.2272735, 0.314921), (0.181819, 0.314921), (0.2272735, 0.236191), (0.25000075, 0.275556), (0.20454624, 0.275556), (0.25000075, 0.19682601), (0.27272797, 0.236191), (0.2272735, 0.236191), (0.20454624, 0.275556), (0.25000075, 0.275556), (0.2272735, 0.314921), (0.25000075, 0.275556), (0.272728, 0.314921), (0.2272735, 0.314921), (0.2272735, 0.236191), (0.27272797, 0.236191), (0.25000075, 0.275556), (0.27272797, 0.236191), (0.29545522, 0.275556), (0.25000075, 0.275556), (0.25000075, 0.275556), (0.29545522, 0.275556), (0.272728, 0.314921), (0.29545522, 0.275556), (0.3181825, 0.314921), (0.272728, 0.314921), (0.25000075, 0.19682601), (0.29545522, 0.196826), (0.27272797, 0.236191), (0.29545522, 0.196826), (0.31818247, 0.23619099), (0.27272797, 0.236191), (0.27272797, 0.236191), (0.31818247, 0.23619099), (0.29545522, 0.275556), (0.31818247, 0.23619099), (0.34090975, 0.275556), (0.29545522, 0.275556), (0.29545522, 0.275556), (0.34090975, 0.275556), (0.3181825, 0.314921), (0.34090975, 0.275556), (0.363637, 0.314921), (0.3181825, 0.314921), (0.5227277, 0.275556), (0.56818223, 0.275556), (0.545455, 0.314921), (0.5000005, 0.23619099), (0.545455, 0.236191), (0.5227277, 0.275556), (0.47727323, 0.196826), (0.5227277, 0.19682598), (0.5000005, 0.23619099), (0.5227277, 0.275556), (0.545455, 0.236191), (0.56818223, 0.275556), (0.545455, 0.236191), (0.5909095, 0.236191), (0.56818223, 0.275556), (0.5000005, 0.23619099), (0.5227277, 0.19682598), (0.545455, 0.236191), (0.5227277, 0.19682598), (0.56818223, 0.196826), (0.545455, 0.236191), (0.545455, 0.236191), (0.56818223, 0.196826), (0.5909095, 0.236191), (0.56818223, 0.196826), (0.61363673, 0.19682601), (0.5909095, 0.236191), (0.47727323, 0.196826), (0.5000005, 0.15746099), (0.5227277, 0.19682598), (0.5000005, 0.15746099), (0.545455, 0.15746099), (0.5227277, 0.19682598), (0.5227277, 0.19682598), (0.545455, 0.15746099), (0.56818223, 0.196826), (0.545455, 0.15746099), (0.5909095, 0.157461), (0.56818223, 0.196826), (0.56818223, 0.196826), (0.5909095, 0.157461), (0.61363673, 0.19682601), (0.5909095, 0.157461), (0.636364, 0.157461), (0.61363673, 0.19682601), (0.70454574, 0.275556), (0.75000024, 0.275556), (0.727273, 0.314921), (0.6818185, 0.23619099), (0.727273, 0.236191), (0.70454574, 0.275556), (0.65909123, 0.196826), (0.70454574, 0.19682598), (0.6818185, 0.23619099), (0.70454574, 0.275556), (0.727273, 0.236191), (0.75000024, 0.275556), (0.727273, 0.236191), (0.7727275, 0.236191), (0.75000024, 0.275556), (0.6818185, 0.23619099), (0.70454574, 0.19682598), (0.727273, 0.236191), (0.70454574, 0.19682598), (0.75000024, 0.196826), (0.727273, 0.236191), (0.727273, 0.236191), (0.75000024, 0.196826), (0.7727275, 0.236191), (0.75000024, 0.196826), (0.79545474, 0.19682601), (0.7727275, 0.236191), (0.65909123, 0.196826), (0.6818185, 0.15746099), (0.70454574, 0.19682598), (0.6818185, 0.15746099), (0.727273, 0.15746099), (0.70454574, 0.19682598), (0.70454574, 0.19682598), (0.727273, 0.15746099), (0.75000024, 0.196826), (0.727273, 0.15746099), (0.7727275, 0.157461), (0.75000024, 0.196826), (0.75000024, 0.196826), (0.7727275, 0.157461), (0.79545474, 0.19682601), (0.7727275, 0.157461), (0.818182, 0.157461), (0.79545474, 0.19682601), (0.88636374, 0.275556), (0.93181825, 0.275556), (0.909091, 0.314921), (0.8636365, 0.23619099), (0.909091, 0.236191), (0.88636374, 0.275556), (0.84090924, 0.196826), (0.88636374, 0.19682598), (0.8636365, 0.23619099), (0.88636374, 0.275556), (0.909091, 0.236191), (0.93181825, 0.275556), (0.909091, 0.236191), (0.9545455, 0.236191), (0.93181825, 0.275556), (0.8636365, 0.23619099), (0.88636374, 0.19682598), (0.909091, 0.236191), (0.88636374, 0.19682598), (0.93181825, 0.196826), (0.909091, 0.236191), (0.909091, 0.236191), (0.93181825, 0.196826), (0.9545455, 0.236191), (0.93181825, 0.196826), (0.97727275, 0.19682601), (0.9545455, 0.236191), (0.84090924, 0.196826), (0.8636365, 0.15746099), (0.88636374, 0.19682598), (0.8636365, 0.15746099), (0.909091, 0.15746099), (0.88636374, 0.19682598), (0.88636374, 0.19682598), (0.909091, 0.15746099), (0.93181825, 0.196826), (0.909091, 0.15746099), (0.9545455, 0.157461), (0.93181825, 0.196826), (0.93181825, 0.196826), (0.9545455, 0.157461), (0.97727275, 0.19682601), (0.9545455, 0.157461), (1, 0.157461), (0.97727275, 0.19682601), (0.15909176, 0.275556), (0.20454624, 0.275556), (0.181819, 0.314921), (0.13636449, 0.23619099), (0.18181899, 0.236191), (0.15909176, 0.275556), (0.113637246, 0.196826), (0.15909174, 0.19682598), (0.13636449, 0.23619099), (0.15909176, 0.275556), (0.18181899, 0.236191), (0.20454624, 0.275556), (0.18181899, 0.236191), (0.2272735, 0.236191), (0.20454624, 0.275556), (0.13636449, 0.23619099), (0.15909174, 0.19682598), (0.18181899, 0.236191), (0.15909174, 0.19682598), (0.20454624, 0.196826), (0.18181899, 0.236191), (0.18181899, 0.236191), (0.20454624, 0.196826), (0.2272735, 0.236191), (0.20454624, 0.196826), (0.25000075, 0.19682601), (0.2272735, 0.236191), (0.113637246, 0.196826), (0.13636449, 0.15746099), (0.15909174, 0.19682598), (0.13636449, 0.15746099), (0.18181899, 0.15746099), (0.15909174, 0.19682598), (0.15909174, 0.19682598), (0.18181899, 0.15746099), (0.20454624, 0.196826), (0.18181899, 0.15746099), (0.22727351, 0.157461), (0.20454624, 0.196826), (0.20454624, 0.196826), (0.22727351, 0.157461), (0.25000075, 0.19682601), (0.22727351, 0.157461), (0.272728, 0.157461), (0.25000075, 0.19682601), (0.34090975, 0.275556), (0.38636422, 0.275556), (0.363637, 0.314921), (0.31818247, 0.23619099), (0.36363697, 0.236191), (0.34090975, 0.275556), (0.29545522, 0.196826), (0.34090972, 0.19682598), (0.31818247, 0.23619099), (0.34090975, 0.275556), (0.36363697, 0.236191), (0.38636422, 0.275556), (0.36363697, 0.236191), (0.40909147, 0.236191), (0.38636422, 0.275556), (0.31818247, 0.23619099), (0.34090972, 0.19682598), (0.36363697, 0.236191), (0.34090972, 0.19682598), (0.38636422, 0.196826), (0.36363697, 0.236191), (0.36363697, 0.236191), (0.38636422, 0.196826), (0.40909147, 0.236191), (0.38636422, 0.196826), (0.43181875, 0.19682601), (0.40909147, 0.236191), (0.29545522, 0.196826), (0.31818247, 0.15746099), (0.34090972, 0.19682598), (0.31818247, 0.15746099), (0.36363697, 0.15746099), (0.34090972, 0.19682598), (0.34090972, 0.19682598), (0.36363697, 0.15746099), (0.38636422, 0.196826), (0.36363697, 0.15746099), (0.4090915, 0.157461), (0.38636422, 0.196826), (0.38636422, 0.196826), (0.4090915, 0.157461), (0.43181875, 0.19682601), (0.4090915, 0.157461), (0.454546, 0.157461), (0.43181875, 0.19682601), (0.47727323, 0.118095756), (0.5000005, 0.15746099), (0.454546, 0.157461), (0.5000005, 0.0787305), (0.5227277, 0.11809574), (0.47727323, 0.118095756), (0.5227277, 0.03936525), (0.545455, 0.0787305), (0.5000005, 0.0787305), (0.47727323, 0.118095756), (0.5227277, 0.11809574), (0.5000005, 0.15746099), (0.5227277, 0.11809574), (0.545455, 0.15746099), (0.5000005, 0.15746099), (0.5000005, 0.0787305), (0.545455, 0.0787305), (0.5227277, 0.11809574), (0.545455, 0.0787305), (0.56818223, 0.118095756), (0.5227277, 0.11809574), (0.5227277, 0.11809574), (0.56818223, 0.118095756), (0.545455, 0.15746099), (0.56818223, 0.118095756), (0.5909095, 0.157461), (0.545455, 0.15746099), (0.5227277, 0.03936525), (0.56818223, 0.03936525), (0.545455, 0.0787305), (0.56818223, 0.03936525), (0.5909095, 0.0787305), (0.545455, 0.0787305), (0.545455, 0.0787305), (0.5909095, 0.0787305), (0.56818223, 0.118095756), (0.5909095, 0.0787305), (0.61363673, 0.118095756), (0.56818223, 0.118095756), (0.56818223, 0.118095756), (0.61363673, 0.118095756), (0.5909095, 0.157461), (0.61363673, 0.118095756), (0.636364, 0.157461), (0.5909095, 0.157461), (0.65909123, 0.118095756), (0.6818185, 0.15746099), (0.636364, 0.157461), (0.6818185, 0.0787305), (0.70454574, 0.11809574), (0.65909123, 0.118095756), (0.70454574, 0.03936525), (0.727273, 0.0787305), (0.6818185, 0.0787305), (0.65909123, 0.118095756), (0.70454574, 0.11809574), (0.6818185, 0.15746099), (0.70454574, 0.11809574), (0.727273, 0.15746099), (0.6818185, 0.15746099), (0.6818185, 0.0787305), (0.727273, 0.0787305), (0.70454574, 0.11809574), (0.727273, 0.0787305), (0.75000024, 0.118095756), (0.70454574, 0.11809574), (0.70454574, 0.11809574), (0.75000024, 0.118095756), (0.727273, 0.15746099), (0.75000024, 0.118095756), (0.7727275, 0.157461), (0.727273, 0.15746099), (0.70454574, 0.03936525), (0.75000024, 0.03936525), (0.727273, 0.0787305), (0.75000024, 0.03936525), (0.7727275, 0.0787305), (0.727273, 0.0787305), (0.727273, 0.0787305), (0.7727275, 0.0787305), (0.75000024, 0.118095756), (0.7727275, 0.0787305), (0.79545474, 0.118095756), (0.75000024, 0.118095756), (0.75000024, 0.118095756), (0.79545474, 0.118095756), (0.7727275, 0.157461), (0.79545474, 0.118095756), (0.818182, 0.157461), (0.7727275, 0.157461), (0.84090924, 0.118095756), (0.8636365, 0.15746099), (0.818182, 0.157461), (0.8636365, 0.0787305), (0.88636374, 0.11809574), (0.84090924, 0.118095756), (0.88636374, 0.03936525), (0.909091, 0.0787305), (0.8636365, 0.0787305), (0.84090924, 0.118095756), (0.88636374, 0.11809574), (0.8636365, 0.15746099), (0.88636374, 0.11809574), (0.909091, 0.15746099), (0.8636365, 0.15746099), (0.8636365, 0.0787305), (0.909091, 0.0787305), (0.88636374, 0.11809574), (0.909091, 0.0787305), (0.93181825, 0.118095756), (0.88636374, 0.11809574), (0.88636374, 0.11809574), (0.93181825, 0.118095756), (0.909091, 0.15746099), (0.93181825, 0.118095756), (0.9545455, 0.157461), (0.909091, 0.15746099), (0.88636374, 0.03936525), (0.93181825, 0.03936525), (0.909091, 0.0787305), (0.93181825, 0.03936525), (0.9545455, 0.0787305), (0.909091, 0.0787305), (0.909091, 0.0787305), (0.9545455, 0.0787305), (0.93181825, 0.118095756), (0.9545455, 0.0787305), (0.97727275, 0.118095756), (0.93181825, 0.118095756), (0.93181825, 0.118095756), (0.97727275, 0.118095756), (0.9545455, 0.157461), (0.97727275, 0.118095756), (1, 0.157461), (0.9545455, 0.157461), (0.4090915, 0.157461), (0.43181872, 0.118095756), (0.454546, 0.157461), (0.36363697, 0.15746099), (0.38636422, 0.11809574), (0.4090915, 0.157461), (0.31818247, 0.15746099), (0.34090972, 0.11809574), (0.36363697, 0.15746099), (0.4090915, 0.157461), (0.38636422, 0.11809574), (0.43181872, 0.118095756), (0.38636422, 0.11809574), (0.40909147, 0.0787305), (0.43181872, 0.118095756), (0.36363697, 0.15746099), (0.34090972, 0.11809574), (0.38636422, 0.11809574), (0.34090972, 0.11809574), (0.36363697, 0.078730494), (0.38636422, 0.11809574), (0.38636422, 0.11809574), (0.36363697, 0.078730494), (0.40909147, 0.0787305), (0.36363697, 0.078730494), (0.38636425, 0.03936525), (0.40909147, 0.0787305), (0.31818247, 0.15746099), (0.29545522, 0.118095756), (0.34090972, 0.11809574), (0.29545522, 0.118095756), (0.31818247, 0.0787305), (0.34090972, 0.11809574), (0.34090972, 0.11809574), (0.31818247, 0.0787305), (0.36363697, 0.078730494), (0.31818247, 0.0787305), (0.34090975, 0.03936525), (0.36363697, 0.078730494), (0.36363697, 0.078730494), (0.34090975, 0.03936525), (0.38636425, 0.03936525), (0.34090975, 0.03936525), (0.363637, 0), (0.38636425, 0.03936525), (0.11363725, 0.118095756), (0.13636449, 0.15746099), (0.09091, 0.157461), (0.1363645, 0.0787305), (0.15909174, 0.11809574), (0.11363725, 0.118095756), (0.15909176, 0.03936525), (0.18181899, 0.0787305), (0.1363645, 0.0787305), (0.11363725, 0.118095756), (0.15909174, 0.11809574), (0.13636449, 0.15746099), (0.15909174, 0.11809574), (0.18181899, 0.15746099), (0.13636449, 0.15746099), (0.1363645, 0.0787305), (0.18181899, 0.0787305), (0.15909174, 0.11809574), (0.18181899, 0.0787305), (0.20454624, 0.118095756), (0.15909174, 0.11809574), (0.15909174, 0.11809574), (0.20454624, 0.118095756), (0.18181899, 0.15746099), (0.20454624, 0.118095756), (0.22727351, 0.157461), (0.18181899, 0.15746099), (0.15909176, 0.03936525), (0.20454624, 0.03936525), (0.18181899, 0.0787305), (0.20454624, 0.03936525), (0.22727348, 0.0787305), (0.18181899, 0.0787305), (0.18181899, 0.0787305), (0.22727348, 0.0787305), (0.20454624, 0.118095756), (0.22727348, 0.0787305), (0.25000075, 0.118095756), (0.20454624, 0.118095756), (0.20454624, 0.118095756), (0.25000075, 0.118095756), (0.22727351, 0.157461), (0.25000075, 0.118095756), (0.272728, 0.157461), (0.22727351, 0.157461)] (
                interpolation = "faceVarying"
            )
            uniform token subdivisionScheme = "none"
            custom string userProperties:blender:data_name = "Icosphere"
        }
    }

    def Scope "_materials"
    {
        def Material "Material_001" (
            prepend apiSchemas = ["MaterialXConfigAPI"]
        )
        {
            string config:mtlx:version = "1.39"
            token outputs:mtlx:surface.connect = </root/_materials/Material_001/Principled_BSDF.outputs:surface>
            token outputs:surface.connect = </root/_materials/Material_001/previewShader.outputs:surface>
            custom string userProperties:blender:data_name = "Material.001"

            def Shader "previewShader"
            {
                uniform token info:id = "UsdPreviewSurface"
                color3f inputs:diffuseColor = (0.8, 0.8, 0.8)
                float inputs:metallic = 0
                float inputs:roughness = 0.4
                token outputs:surface
            }

            def Shader "Principled_BSDF"
            {
                uniform token info:id = "ND_open_pbr_surface_surfaceshader"
                color3f inputs:base_color = (0.167411, 0.243348, 0.800291)
                float inputs:base_diffuse_roughness = 0
                float inputs:base_metalness = 0.458621
                float inputs:base_weight = 1
                color3f inputs:coat_color = (1, 1, 1)
                float inputs:coat_darkening
                float inputs:coat_ior = 1.5
                float inputs:coat_roughness = 0.03
                float inputs:coat_roughness_anisotropy
                float inputs:coat_weight = 0
                color3f inputs:emission_color = (1, 1, 1)
                float inputs:emission_luminance = 0
                color3f inputs:fuzz_color = (1, 1, 1)
                float inputs:fuzz_roughness = 0.5
                float inputs:fuzz_weight = 0
                float3 inputs:geometry_coat_normal
                float3 inputs:geometry_coat_tangent
                float3 inputs:geometry_normal
                float inputs:geometry_opacity = 1
                float3 inputs:geometry_tangent.connect = </root/_materials/Material_001/NodeGraphs.outputs:node_003_out>
                bool inputs:geometry_thin_walled
                color3f inputs:specular_color = (1, 1, 1)
                float inputs:specular_ior = 1.5
                float inputs:specular_roughness = 0.5
                float inputs:specular_roughness_anisotropy = 0
                float inputs:specular_weight = 1
                color3f inputs:subsurface_color = (0.167411, 0.243348, 0.800291)
                float inputs:subsurface_radius = 0.05
                color3f inputs:subsurface_radius_scale = (1, 0.2, 0.1)
                float inputs:subsurface_scatter_anisotropy = 0
                float inputs:subsurface_weight = 0
                float inputs:thin_film_ior = 1.33
                float inputs:thin_film_thickness = 0
                float inputs:thin_film_weight = 0
                color3f inputs:transmission_color = (0.167411, 0.243348, 0.800291)
                float inputs:transmission_depth
                float inputs:transmission_dispersion_abbe_number
                float inputs:transmission_dispersion_scale
                color3f inputs:transmission_scatter
                float inputs:transmission_scatter_anisotropy
                float inputs:transmission_weight = 0
                token outputs:surface
            }

            def NodeGraph "NodeGraphs"
            {
                float3 outputs:node_003_out.connect = </root/_materials/Material_001/NodeGraphs/node_003.outputs:out>

                def Shader "node"
                {
                    uniform token info:id = "ND_normal_vector3"
                    string inputs:space = "world"
                    float3 outputs:out
                }

                def Shader "node_001"
                {
                    uniform token info:id = "ND_normalize_vector3"
                    float3 inputs:in.connect = </root/_materials/Material_001/NodeGraphs/node.outputs:out>
                    float3 outputs:out
                }

                def Shader "node_002"
                {
                    uniform token info:id = "ND_tangent_vector3"
                    string inputs:space = "world"
                    float3 outputs:out
                }

                def Shader "node_003"
                {
                    uniform token info:id = "ND_normalize_vector3"
                    float3 inputs:in.connect = </root/_materials/Material_001/NodeGraphs/node_002.outputs:out>
                    float3 outputs:out
                }

                def Shader "node_004"
                {
                    uniform token info:id = "ND_rotate3d_vector3"
                    float inputs:amount = -90
                    float3 inputs:axis.connect = </root/_materials/Material_001/NodeGraphs/node_001.outputs:out>
                    float3 inputs:in.connect = </root/_materials/Material_001/NodeGraphs/node_003.outputs:out>
                    float3 outputs:out
                }

                def Shader "node_005"
                {
                    uniform token info:id = "ND_normalize_vector3"
                    float3 inputs:in.connect = </root/_materials/Material_001/NodeGraphs/node_004.outputs:out>
                    float3 outputs:out
                }
            }
        }
    }

    def DomeLight "env_light"
    {
        float inputs:intensity = 1
        asset inputs:texture:file = @.\textures\color_121212.hdr@
        float3 xformOp:rotateXYZ = (90, 1.2722219e-14, 90)
        uniform token[] xformOpOrder = ["xformOp:rotateXYZ"]
    }
}

