#usda 1.0
(
    defaultPrim = "Root"
    upAxis = "Z"
)

def Xform "Root"
{
    def Skeleton "Skel"
    {
        uniform token[] joints = ["joint0", "joint0/joint1", "joint0/joint1/joint2"]
        uniform matrix4d[] bindTransforms = [
            ( (1, 0, 0, 0), (0, 1, 0, 0), (0, 0, 1, 0), (0, 0, 0, 1) ),
            ( (1, 0, 0, 0), (0, 1, 0, 0), (0, 0, 1, 0), (0, 1, 0, 1) ),
            ( (1, 0, 0, 0), (0, 1, 0, 0), (0, 0, 1, 0), (0, 1, 0, 1) )
        ]
        uniform matrix4d[] restTransforms = [
            ( (1, 0, 0, 0), (0, 1, 0, 0), (0, 0, 1, 0), (0, 0, 0, 1) ),
            ( (1, 0, 0, 0), (0, 1, 0, 0), (0, 0, 1, 0), (0, 1, 0, 1) ),
            ( (1, 0, 0, 0), (0, 1, 0, 0), (0, 0, 1, 0), (0, 1, 0, 1) )
        ]

        def SkelAnimation "StaticAnim"
        {
            uniform token[] joints = ["joint0", "joint0/joint1", "joint0/joint1/joint2"]

            # All static (non-time-sampled) values
            float3[] translations = [(0.5, 0, 0), (0, 1.5, 0), (0, 0.75, 0)]
            quatf[] rotations = [(1, 0, 0, 0), (0.7071, 0, 0.7071, 0), (0.9239, 0.3827, 0, 0)]
            half3[] scales = [(1, 1, 1), (1.2, 1.2, 1.2), (0.8, 0.8, 0.8)]
        }
    }
}
