#usda 1.0
(
    defaultPrim = "Root"
    upAxis = "Z"
)

def Xform "Root"
{
    def Skeleton "Skel"
    {
        uniform token[] joints = ["joint0", "joint0/joint1"]
        uniform matrix4d[] bindTransforms = [
            ( (1, 0, 0, 0), (0, 1, 0, 0), (0, 0, 1, 0), (0, 0, 0, 1) ),
            ( (1, 0, 0, 0), (0, 1, 0, 0), (0, 0, 1, 0), (0, 1, 0, 1) )
        ]
        uniform matrix4d[] restTransforms = [
            ( (1, 0, 0, 0), (0, 1, 0, 0), (0, 0, 1, 0), (0, 0, 0, 1) ),
            ( (1, 0, 0, 0), (0, 1, 0, 0), (0, 0, 1, 0), (0, 1, 0, 1) )
        ]

        def SkelAnimation "RotationOnlyAnim"
        {
            uniform token[] joints = ["joint0", "joint0/joint1"]

            # Only rotations are animated, no translations or scales
            quatf[] rotations.timeSamples = {
                0: [(1, 0, 0, 0), (1, 0, 0, 0)],
                0.5: [(0.9239, 0, 0.3827, 0), (0.9659, 0.2588, 0, 0)],
                1: [(0.7071, 0, 0.7071, 0), (0.8660, 0.5, 0, 0)],
                1.5: [(0.9239, 0, 0.3827, 0), (0.9659, 0.2588, 0, 0)],
                2: [(1, 0, 0, 0), (1, 0, 0, 0)]
            }
        }
    }
}
