#usda 1.0
(
    defaultPrim = "Root"
    upAxis = "Z"
)

def Xform "Root"
{
    def Skeleton "Skel"
    {
        uniform token[] joints = ["root", "root/spine", "root/leftArm", "root/rightArm"]
        uniform matrix4d[] bindTransforms = [
            ( (1, 0, 0, 0), (0, 1, 0, 0), (0, 0, 1, 0), (0, 0, 0, 1) ),
            ( (1, 0, 0, 0), (0, 1, 0, 0), (0, 0, 1, 0), (0, 1, 0, 1) ),
            ( (1, 0, 0, 0), (0, 1, 0, 0), (0, 0, 1, 0), (-0.5, 1.5, 0, 1) ),
            ( (1, 0, 0, 0), (0, 1, 0, 0), (0, 0, 1, 0), (0.5, 1.5, 0, 1) )
        ]
        uniform matrix4d[] restTransforms = [
            ( (1, 0, 0, 0), (0, 1, 0, 0), (0, 0, 1, 0), (0, 0, 0, 1) ),
            ( (1, 0, 0, 0), (0, 1, 0, 0), (0, 0, 1, 0), (0, 1, 0, 1) ),
            ( (1, 0, 0, 0), (0, 1, 0, 0), (0, 0, 1, 0), (-0.5, 1.5, 0, 1) ),
            ( (1, 0, 0, 0), (0, 1, 0, 0), (0, 0, 1, 0), (0.5, 1.5, 0, 1) )
        ]

        def SkelAnimation "MixedAnim"
        {
            uniform token[] joints = ["root", "root/spine", "root/leftArm", "root/rightArm"]

            # Static translations (bind pose)
            float3[] translations = [(0, 0, 0), (0, 1, 0), (-0.5, 1.5, 0), (0.5, 1.5, 0)]

            # Time-sampled rotations (animated)
            quatf[] rotations.timeSamples = {
                0: [(1, 0, 0, 0), (1, 0, 0, 0), (1, 0, 0, 0), (1, 0, 0, 0)],
                0.5: [(0.9962, 0, 0.0872, 0), (1, 0, 0, 0), (0.9659, 0, 0, 0.2588), (0.9659, 0, 0, -0.2588)],
                1: [(0.9848, 0, 0.1736, 0), (1, 0, 0, 0), (0.8660, 0, 0, 0.5), (0.8660, 0, 0, -0.5)],
                1.5: [(0.9962, 0, 0.0872, 0), (1, 0, 0, 0), (0.9659, 0, 0, 0.2588), (0.9659, 0, 0, -0.2588)],
                2: [(1, 0, 0, 0), (1, 0, 0, 0), (1, 0, 0, 0), (1, 0, 0, 0)]
            }

            # Static scales (uniform)
            half3[] scales = [(1, 1, 1), (1, 1, 1), (1, 1, 1), (1, 1, 1)]
        }
    }
}
