#usda 1.0
(
    defaultPrim = "Root"
    upAxis = "Z"
)

def Xform "Root"
{
    def Skeleton "Skel"
    {
        uniform token[] joints = ["joint0", "joint0/joint1"]
        uniform matrix4d[] bindTransforms = [
            ( (1, 0, 0, 0), (0, 1, 0, 0), (0, 0, 1, 0), (0, 0, 0, 1) ),
            ( (1, 0, 0, 0), (0, 1, 0, 0), (0, 0, 1, 0), (0, 2, 0, 1) )
        ]
        uniform matrix4d[] restTransforms = [
            ( (1, 0, 0, 0), (0, 1, 0, 0), (0, 0, 1, 0), (0, 0, 0, 1) ),
            ( (1, 0, 0, 0), (0, 1, 0, 0), (0, 0, 1, 0), (0, 2, 0, 1) )
        ]

        def SkelAnimation "Anim"
        {
            uniform token[] joints = ["joint0", "joint0/joint1"]

            # Time-sampled translations
            float3[] translations.timeSamples = {
                0: [(0, 0, 0), (0, 2, 0)],
                1: [(1, 0, 0), (0, 2.5, 0)],
                2: [(2, 0, 0), (0, 3, 0)],
                3: [(1, 0, 0), (0, 2.5, 0)],
                4: [(0, 0, 0), (0, 2, 0)]
            }

            # Time-sampled rotations
            quatf[] rotations.timeSamples = {
                0: [(1, 0, 0, 0), (1, 0, 0, 0)],
                1: [(0.9239, 0, 0.3827, 0), (0.9659, 0.2588, 0, 0)],
                2: [(0.7071, 0, 0.7071, 0), (0.8660, 0.5, 0, 0)],
                3: [(0.9239, 0, 0.3827, 0), (0.9659, 0.2588, 0, 0)],
                4: [(1, 0, 0, 0), (1, 0, 0, 0)]
            }

            # Time-sampled scales
            half3[] scales.timeSamples = {
                0: [(1, 1, 1), (1, 1, 1)],
                1: [(1.2, 1, 1), (1, 1.1, 1)],
                2: [(1.5, 1, 1), (1, 1.2, 1)],
                3: [(1.2, 1, 1), (1, 1.1, 1)],
                4: [(1, 1, 1), (1, 1, 1)]
            }
        }
    }
}
