#usda 1.0
(
    defaultPrim = "root"
    upAxis = "Z"
    metersPerUnit = 1
)

def SkelRoot "root"
{
    def Skeleton "Skeleton"
    {
        uniform token[] joints = ["Root", "Root/joint1", "Root/joint2", "Root/joint3", "Root/joint4", "Root/joint5", "Root/joint6", "Root/joint7"]
        uniform matrix4d[] bindTransforms = [
            ((1, 0, 0, 0), (0, 1, 0, 0), (0, 0, 1, 0), (0, 0, 0, 1)),
            ((1, 0, 0, 0), (0, 1, 0, 0), (0, 0, 1, 0), (0, 0.5, 0, 1)),
            ((1, 0, 0, 0), (0, 1, 0, 0), (0, 0, 1, 0), (0, 1.0, 0, 1)),
            ((1, 0, 0, 0), (0, 1, 0, 0), (0, 0, 1, 0), (0, 1.5, 0, 1)),
            ((1, 0, 0, 0), (0, 1, 0, 0), (0, 0, 1, 0), (0, 2.0, 0, 1)),
            ((1, 0, 0, 0), (0, 1, 0, 0), (0, 0, 1, 0), (0, 2.5, 0, 1)),
            ((1, 0, 0, 0), (0, 1, 0, 0), (0, 0, 1, 0), (0, 3.0, 0, 1)),
            ((1, 0, 0, 0), (0, 1, 0, 0), (0, 0, 1, 0), (0, 3.5, 0, 1))
        ]
        uniform matrix4d[] restTransforms = [
            ((1, 0, 0, 0), (0, 1, 0, 0), (0, 0, 1, 0), (0, 0, 0, 1)),
            ((1, 0, 0, 0), (0, 1, 0, 0), (0, 0, 1, 0), (0, 0.5, 0, 1)),
            ((1, 0, 0, 0), (0, 1, 0, 0), (0, 0, 1, 0), (0, 1.0, 0, 1)),
            ((1, 0, 0, 0), (0, 1, 0, 0), (0, 0, 1, 0), (0, 1.5, 0, 1)),
            ((1, 0, 0, 0), (0, 1, 0, 0), (0, 0, 1, 0), (0, 2.0, 0, 1)),
            ((1, 0, 0, 0), (0, 1, 0, 0), (0, 0, 1, 0), (0, 2.5, 0, 1)),
            ((1, 0, 0, 0), (0, 1, 0, 0), (0, 0, 1, 0), (0, 3.0, 0, 1)),
            ((1, 0, 0, 0), (0, 1, 0, 0), (0, 0, 1, 0), (0, 3.5, 0, 1))
        ]
    }

    def Mesh "Mesh" (
        prepend apiSchemas = ["SkelBindingAPI"]
    )
    {
        uniform bool doubleSided = 0
        int[] faceVertexCounts = [3, 3, 3, 3]
        int[] faceVertexIndices = [0, 1, 2, 0, 2, 3, 0, 3, 4, 0, 4, 1]
        rel skel:skeleton = </root/Skeleton>

        point3f[] points = [
            (0, 0, 0),
            (1, 0, 0),
            (1, 1, 0),
            (0, 1, 0),
            (-1, 0, 0)
        ]

        int[] primvars:skel:jointIndices = [
            0, 1, 2, 3, 4, 5, 6, 7,
            0, 1, 2, 3, 4, 5, 6, 7,
            0, 1, 2, 3, 4, 5, 6, 7,
            0, 1, 2, 3, 4, 5, 6, 7,
            0, 1, 2, 3, 4, 5, 6, 7
        ] (
            elementSize = 8
            interpolation = "vertex"
        )

        float[] primvars:skel:jointWeights = [
            0.125, 0.125, 0.125, 0.125, 0.125, 0.125, 0.125, 0.125,
            0.30, 0.25, 0.20, 0.15, 0.05, 0.03, 0.01, 0.01,
            0.05, 0.10, 0.20, 0.30, 0.20, 0.10, 0.04, 0.01,
            0.01, 0.01, 0.03, 0.05, 0.15, 0.20, 0.25, 0.30,
            0.40, 0.30, 0.15, 0.10, 0.05, 0.0, 0.0, 0.0
        ] (
            elementSize = 8
            interpolation = "vertex"
        )

        matrix4d primvars:skel:geomBindTransform = ((1, 0, 0, 0), (0, 1, 0, 0), (0, 0, 1, 0), (0, 0, 0, 1))

        normal3f[] normals = [
            (0, 0, 1),
            (0, 0, 1),
            (0, 0, 1),
            (0, 0, 1),
            (0, 0, 1)
        ] (
            interpolation = "vertex"
        )
    }
}
