#usda 1.0
(
    defaultPrim = "root"
    upAxis = "Z"
    metersPerUnit = 1
)

def SkelRoot "root"
{
    def Skeleton "Skeleton"
    {
        uniform token[] joints = [
            "Root", "Root/joint1", "Root/joint2", "Root/joint3", "Root/joint4", "Root/joint5", "Root/joint6", "Root/joint7",
            "Root/joint8", "Root/joint9", "Root/joint10", "Root/joint11", "Root/joint12", "Root/joint13", "Root/joint14", "Root/joint15",
            "Root/joint16", "Root/joint17", "Root/joint18", "Root/joint19", "Root/joint20", "Root/joint21", "Root/joint22", "Root/joint23",
            "Root/joint24", "Root/joint25", "Root/joint26", "Root/joint27", "Root/joint28", "Root/joint29", "Root/joint30", "Root/joint31"
        ]
        uniform matrix4d[] bindTransforms = [
            ((1, 0, 0, 0), (0, 1, 0, 0), (0, 0, 1, 0), (0, 0.00, 0, 1)),
            ((1, 0, 0, 0), (0, 1, 0, 0), (0, 0, 1, 0), (0, 0.25, 0, 1)),
            ((1, 0, 0, 0), (0, 1, 0, 0), (0, 0, 1, 0), (0, 0.50, 0, 1)),
            ((1, 0, 0, 0), (0, 1, 0, 0), (0, 0, 1, 0), (0, 0.75, 0, 1)),
            ((1, 0, 0, 0), (0, 1, 0, 0), (0, 0, 1, 0), (0, 1.00, 0, 1)),
            ((1, 0, 0, 0), (0, 1, 0, 0), (0, 0, 1, 0), (0, 1.25, 0, 1)),
            ((1, 0, 0, 0), (0, 1, 0, 0), (0, 0, 1, 0), (0, 1.50, 0, 1)),
            ((1, 0, 0, 0), (0, 1, 0, 0), (0, 0, 1, 0), (0, 1.75, 0, 1)),
            ((1, 0, 0, 0), (0, 1, 0, 0), (0, 0, 1, 0), (0, 2.00, 0, 1)),
            ((1, 0, 0, 0), (0, 1, 0, 0), (0, 0, 1, 0), (0, 2.25, 0, 1)),
            ((1, 0, 0, 0), (0, 1, 0, 0), (0, 0, 1, 0), (0, 2.50, 0, 1)),
            ((1, 0, 0, 0), (0, 1, 0, 0), (0, 0, 1, 0), (0, 2.75, 0, 1)),
            ((1, 0, 0, 0), (0, 1, 0, 0), (0, 0, 1, 0), (0, 3.00, 0, 1)),
            ((1, 0, 0, 0), (0, 1, 0, 0), (0, 0, 1, 0), (0, 3.25, 0, 1)),
            ((1, 0, 0, 0), (0, 1, 0, 0), (0, 0, 1, 0), (0, 3.50, 0, 1)),
            ((1, 0, 0, 0), (0, 1, 0, 0), (0, 0, 1, 0), (0, 3.75, 0, 1)),
            ((1, 0, 0, 0), (0, 1, 0, 0), (0, 0, 1, 0), (0, 4.00, 0, 1)),
            ((1, 0, 0, 0), (0, 1, 0, 0), (0, 0, 1, 0), (0, 4.25, 0, 1)),
            ((1, 0, 0, 0), (0, 1, 0, 0), (0, 0, 1, 0), (0, 4.50, 0, 1)),
            ((1, 0, 0, 0), (0, 1, 0, 0), (0, 0, 1, 0), (0, 4.75, 0, 1)),
            ((1, 0, 0, 0), (0, 1, 0, 0), (0, 0, 1, 0), (0, 5.00, 0, 1)),
            ((1, 0, 0, 0), (0, 1, 0, 0), (0, 0, 1, 0), (0, 5.25, 0, 1)),
            ((1, 0, 0, 0), (0, 1, 0, 0), (0, 0, 1, 0), (0, 5.50, 0, 1)),
            ((1, 0, 0, 0), (0, 1, 0, 0), (0, 0, 1, 0), (0, 5.75, 0, 1)),
            ((1, 0, 0, 0), (0, 1, 0, 0), (0, 0, 1, 0), (0, 6.00, 0, 1)),
            ((1, 0, 0, 0), (0, 1, 0, 0), (0, 0, 1, 0), (0, 6.25, 0, 1)),
            ((1, 0, 0, 0), (0, 1, 0, 0), (0, 0, 1, 0), (0, 6.50, 0, 1)),
            ((1, 0, 0, 0), (0, 1, 0, 0), (0, 0, 1, 0), (0, 6.75, 0, 1)),
            ((1, 0, 0, 0), (0, 1, 0, 0), (0, 0, 1, 0), (0, 7.00, 0, 1)),
            ((1, 0, 0, 0), (0, 1, 0, 0), (0, 0, 1, 0), (0, 7.25, 0, 1)),
            ((1, 0, 0, 0), (0, 1, 0, 0), (0, 0, 1, 0), (0, 7.50, 0, 1)),
            ((1, 0, 0, 0), (0, 1, 0, 0), (0, 0, 1, 0), (0, 7.75, 0, 1))
        ]
        uniform matrix4d[] restTransforms = [
            ((1, 0, 0, 0), (0, 1, 0, 0), (0, 0, 1, 0), (0, 0.00, 0, 1)),
            ((1, 0, 0, 0), (0, 1, 0, 0), (0, 0, 1, 0), (0, 0.25, 0, 1)),
            ((1, 0, 0, 0), (0, 1, 0, 0), (0, 0, 1, 0), (0, 0.50, 0, 1)),
            ((1, 0, 0, 0), (0, 1, 0, 0), (0, 0, 1, 0), (0, 0.75, 0, 1)),
            ((1, 0, 0, 0), (0, 1, 0, 0), (0, 0, 1, 0), (0, 1.00, 0, 1)),
            ((1, 0, 0, 0), (0, 1, 0, 0), (0, 0, 1, 0), (0, 1.25, 0, 1)),
            ((1, 0, 0, 0), (0, 1, 0, 0), (0, 0, 1, 0), (0, 1.50, 0, 1)),
            ((1, 0, 0, 0), (0, 1, 0, 0), (0, 0, 1, 0), (0, 1.75, 0, 1)),
            ((1, 0, 0, 0), (0, 1, 0, 0), (0, 0, 1, 0), (0, 2.00, 0, 1)),
            ((1, 0, 0, 0), (0, 1, 0, 0), (0, 0, 1, 0), (0, 2.25, 0, 1)),
            ((1, 0, 0, 0), (0, 1, 0, 0), (0, 0, 1, 0), (0, 2.50, 0, 1)),
            ((1, 0, 0, 0), (0, 1, 0, 0), (0, 0, 1, 0), (0, 2.75, 0, 1)),
            ((1, 0, 0, 0), (0, 1, 0, 0), (0, 0, 1, 0), (0, 3.00, 0, 1)),
            ((1, 0, 0, 0), (0, 1, 0, 0), (0, 0, 1, 0), (0, 3.25, 0, 1)),
            ((1, 0, 0, 0), (0, 1, 0, 0), (0, 0, 1, 0), (0, 3.50, 0, 1)),
            ((1, 0, 0, 0), (0, 1, 0, 0), (0, 0, 1, 0), (0, 3.75, 0, 1)),
            ((1, 0, 0, 0), (0, 1, 0, 0), (0, 0, 1, 0), (0, 4.00, 0, 1)),
            ((1, 0, 0, 0), (0, 1, 0, 0), (0, 0, 1, 0), (0, 4.25, 0, 1)),
            ((1, 0, 0, 0), (0, 1, 0, 0), (0, 0, 1, 0), (0, 4.50, 0, 1)),
            ((1, 0, 0, 0), (0, 1, 0, 0), (0, 0, 1, 0), (0, 4.75, 0, 1)),
            ((1, 0, 0, 0), (0, 1, 0, 0), (0, 0, 1, 0), (0, 5.00, 0, 1)),
            ((1, 0, 0, 0), (0, 1, 0, 0), (0, 0, 1, 0), (0, 5.25, 0, 1)),
            ((1, 0, 0, 0), (0, 1, 0, 0), (0, 0, 1, 0), (0, 5.50, 0, 1)),
            ((1, 0, 0, 0), (0, 1, 0, 0), (0, 0, 1, 0), (0, 5.75, 0, 1)),
            ((1, 0, 0, 0), (0, 1, 0, 0), (0, 0, 1, 0), (0, 6.00, 0, 1)),
            ((1, 0, 0, 0), (0, 1, 0, 0), (0, 0, 1, 0), (0, 6.25, 0, 1)),
            ((1, 0, 0, 0), (0, 1, 0, 0), (0, 0, 1, 0), (0, 6.50, 0, 1)),
            ((1, 0, 0, 0), (0, 1, 0, 0), (0, 0, 1, 0), (0, 6.75, 0, 1)),
            ((1, 0, 0, 0), (0, 1, 0, 0), (0, 0, 1, 0), (0, 7.00, 0, 1)),
            ((1, 0, 0, 0), (0, 1, 0, 0), (0, 0, 1, 0), (0, 7.25, 0, 1)),
            ((1, 0, 0, 0), (0, 1, 0, 0), (0, 0, 1, 0), (0, 7.50, 0, 1)),
            ((1, 0, 0, 0), (0, 1, 0, 0), (0, 0, 1, 0), (0, 7.75, 0, 1))
        ]
    }

    def Mesh "Mesh" (
        prepend apiSchemas = ["SkelBindingAPI"]
    )
    {
        uniform bool doubleSided = 0
        int[] faceVertexCounts = [4, 4]
        int[] faceVertexIndices = [0, 1, 2, 3, 0, 3, 4, 5]
        rel skel:skeleton = </root/Skeleton>

        point3f[] points = [
            (0, 0, 0),
            (2, 0, 0),
            (2, 2, 0),
            (0, 2, 0),
            (-2, 2, 0),
            (-2, 0, 0)
        ]

        int[] primvars:skel:jointIndices = [
            0, 1, 2, 3, 4, 5, 6, 7, 8, 9, 10, 11, 12, 13, 14, 15, 16, 17, 18, 19, 20, 21, 22, 23, 24, 25, 26, 27, 28, 29, 30, 31,
            0, 1, 2, 3, 4, 5, 6, 7, 8, 9, 10, 11, 12, 13, 14, 15, 16, 17, 18, 19, 20, 21, 22, 23, 24, 25, 26, 27, 28, 29, 30, 31,
            0, 1, 2, 3, 4, 5, 6, 7, 8, 9, 10, 11, 12, 13, 14, 15, 16, 17, 18, 19, 20, 21, 22, 23, 24, 25, 26, 27, 28, 29, 30, 31,
            0, 1, 2, 3, 4, 5, 6, 7, 8, 9, 10, 11, 12, 13, 14, 15, 16, 17, 18, 19, 20, 21, 22, 23, 24, 25, 26, 27, 28, 29, 30, 31,
            0, 1, 2, 3, 4, 5, 6, 7, 8, 9, 10, 11, 12, 13, 14, 15, 16, 17, 18, 19, 20, 21, 22, 23, 24, 25, 26, 27, 28, 29, 30, 31,
            0, 1, 2, 3, 4, 5, 6, 7, 8, 9, 10, 11, 12, 13, 14, 15, 16, 17, 18, 19, 20, 21, 22, 23, 24, 25, 26, 27, 28, 29, 30, 31
        ] (
            elementSize = 32
            interpolation = "vertex"
        )

        float[] primvars:skel:jointWeights = [
            0.03125, 0.03125, 0.03125, 0.03125, 0.03125, 0.03125, 0.03125, 0.03125,
            0.03125, 0.03125, 0.03125, 0.03125, 0.03125, 0.03125, 0.03125, 0.03125,
            0.03125, 0.03125, 0.03125, 0.03125, 0.03125, 0.03125, 0.03125, 0.03125,
            0.03125, 0.03125, 0.03125, 0.03125, 0.03125, 0.03125, 0.03125, 0.03125,
            0.15, 0.12, 0.10, 0.08, 0.07, 0.06, 0.05, 0.045, 0.04, 0.035, 0.03, 0.025, 0.02, 0.018, 0.016, 0.014,
            0.012, 0.010, 0.009, 0.008, 0.007, 0.006, 0.005, 0.004, 0.003, 0.002, 0.001, 0.001, 0.001, 0.001, 0.001, 0.001,
            0.001, 0.002, 0.003, 0.005, 0.008, 0.012, 0.018, 0.025, 0.035, 0.045, 0.055, 0.065, 0.075, 0.080, 0.085, 0.088,
            0.085, 0.080, 0.070, 0.055, 0.040, 0.028, 0.018, 0.012, 0.008, 0.005, 0.003, 0.002, 0.001, 0.001, 0.001, 0.001,
            0.10, 0.08, 0.06, 0.04, 0.02, 0.01, 0.005, 0.003, 0.002, 0.001, 0.001, 0.001, 0.001, 0.001, 0.002, 0.003,
            0.005, 0.01, 0.02, 0.04, 0.06, 0.08, 0.10, 0.08, 0.06, 0.04, 0.02, 0.01, 0.005, 0.003, 0.002, 0.001,
            0.001, 0.001, 0.001, 0.002, 0.002, 0.003, 0.004, 0.005, 0.006, 0.008, 0.010, 0.012, 0.015, 0.018, 0.022, 0.026,
            0.030, 0.035, 0.040, 0.045, 0.050, 0.055, 0.060, 0.070, 0.080, 0.090, 0.095, 0.090, 0.070, 0.050, 0.030, 0.020,
            0.30, 0.25, 0.20, 0.12, 0.08, 0.03, 0.01, 0.01, 0.0, 0.0, 0.0, 0.0, 0.0, 0.0, 0.0, 0.0,
            0.0, 0.0, 0.0, 0.0, 0.0, 0.0, 0.0, 0.0, 0.0, 0.0, 0.0, 0.0, 0.0, 0.0, 0.0, 0.0
        ] (
            elementSize = 32
            interpolation = "vertex"
        )

        matrix4d primvars:skel:geomBindTransform = ((1, 0, 0, 0), (0, 1, 0, 0), (0, 0, 1, 0), (0, 0, 0, 1))

        normal3f[] normals = [
            (0, 0, 1),
            (0, 0, 1),
            (0, 0, 1),
            (0, 0, 1),
            (0, 0, 1),
            (0, 0, 1)
        ] (
            interpolation = "vertex"
        )
    }
}
