#usda 1.0
(
    defaultPrim = "World"
    upAxis = "Y"
)

def Xform "World"
{
    def NurbsPatch "WeightedPatch"
    {
        int uVertexCount = 4
        int vVertexCount = 4
        int uOrder = 4
        int vOrder = 4
        double[] uKnots = [0, 0, 0, 0, 1, 1, 1, 1]
        double[] vKnots = [0, 0, 0, 0, 1, 1, 1, 1]
        double2 uRange = (0, 1)
        double2 vRange = (0, 1)
        point3f[] points = [
            (-1.5, -0.8, -0.8), (-0.5, -0.8, -1.0), (0.5, -0.8, -1.0), (1.5, -0.8, -0.8),
            (-1.5, -0.25, -0.3), (-0.5, -0.15, 0.55), (0.5, -0.15, 0.55), (1.5, -0.25, -0.3),
            (-1.5, 0.35, 0.25), (-0.5, 0.45, 0.85), (0.5, 0.45, 0.85), (1.5, 0.35, 0.25),
            (-1.5, 0.9, -0.4), (-0.5, 0.9, -0.1), (0.5, 0.9, -0.1), (1.5, 0.9, -0.4)
        ]
        double[] pointWeights = [
            1, 1, 1, 1,
            1, 2.5, 2.5, 1,
            1, 2.5, 2.5, 1,
            1, 1, 1, 1
        ]
    }
}
