#usda 1.0
(
    doc = "CJK filename test asset for lusdquicklook font/encoding regression coverage."
    metersPerUnit = 1
    upAxis = "Y"
)

def Xform "キューブ"
{
    def Mesh "Cube"
    {
        int[] faceVertexCounts = [4, 4, 4, 4, 4, 4]
        int[] faceVertexIndices = [0, 4, 6, 2, 3, 2, 6, 7, 7, 6, 4, 5, 5, 1, 3, 7, 1, 0, 2, 3, 5, 4, 0, 1]
        normal3f[] normals = [(0, 0, 1), (0, 0, 1), (0, 0, 1), (0, 0, 1), (0, -1, 0), (0, -1, 0), (0, -1, 0), (0, -1, 0), (-1, 0, 0), (-1, 0, 0), (-1, 0, 0), (-1, 0, 0), (0, 0, -1), (0, 0, -1), (0, 0, -1), (0, 0, -1), (1, 0, 0), (1, 0, 0), (1, 0, 0), (1, 0, 0), (0, 1, 0), (0, 1, 0), (0, 1, 0), (0, 1, 0)] (
            interpolation = "faceVarying"
        )
        point3f[] points = [(1, 1, 1), (1, 1, -1), (1, -1, 1), (1, -1, -1), (-1, 1, 1), (-1, 1, -1), (-1, -1, 1), (-1, -1, -1)]
        uniform token subdivisionScheme = "none"
    }
}
